<svg height="1000" viewBox="0 0 1000 1000" width="1000" xmlns="http://www.w3.org/2000/svg"><path d="m757.60644 405.813953h-22.54025v-120.751341c0-128.801431-104.651163-235.062612-235.062612-235.062612s-235.062612 106.261181-235.062612 235.062612v120.751341h-22.54025c-35.420394 0-64.400716 28.980322-64.400716 66.010734v412.16458c0 37.030411 28.980322 66.010733 64.400716 66.010733h515.205724c35.420394 0 64.400716-28.980322 64.400716-66.010733v-410.554562c1.610018-37.030412-27.370304-67.620752-64.400716-67.620752zm-412.16458-120.751341c0-85.330948 69.23077-154.561718 154.561718-154.561718s154.561717 69.23077 154.561717 154.561718v120.751341h-309.123435zm202.862254 436.314848v61.18068c0 25.760286-20.930232 48.300536-48.300536 48.300536-25.760286 0-48.300537-20.930232-48.300537-48.300536v-61.18068c-28.980322-16.100179-48.300537-46.690519-48.300537-82.110913 0-53.13059 43.470483-94.991055 94.991056-94.991055 53.13059 0 94.991055 43.470483 94.991055 94.991055 1.610018 35.420394-17.710196 66.010734-45.080501 82.110913z"/></svg>