<svg height="1000" viewBox="0 0 1000 1000" width="1000" xmlns="http://www.w3.org/2000/svg"><path d="m839.545455 152h-679.09091c-61.3636359 0-110.454545 49.090909-110.454545 110.454545v474.545455c0 61.363636 49.0909091 110.454545 110.454545 110.454545h679.09091c61.363636 0 110.454545-49.090909 110.454545-110.454545v-474.545455c0-61.363636-49.090909-110.454545-110.454545-110.454545zm-6.136364 81.818182-305.795455 263.863636c-16.363636 14.318182-38.863636 14.318182-55.227272 0l-304.772728-263.863636zm34.772727 503.181818c0 15.340909-13.295454 28.636364-28.636363 28.636364h-679.09091c-15.340909 0-28.636363-13.295455-28.636363-28.636364v-426.477273l287.386363 248.522728c23.522728 20.454545 52.159091 30.681818 80.795455 30.681818s57.272727-10.227273 80.795455-30.681818l287.386363-247.5z"/></svg>