<svg height="1000" viewBox="0 0 1000 1000" width="1000" xmlns="http://www.w3.org/2000/svg"><path d="m538.498549 425.895958h-74.812557v-74.812557h-149.625115v149.625114h149.625115v74.812558h-149.625115v101.260787c48.799414 14.648791 100.8257 14.648791 149.625115 0v77.143368c-140.039538 32.298831-285.182019-27.551905-361.751982-149.171507-76.5699633-121.619601-67.7981034-278.372607 21.862915-390.689964 89.661017-112.317356 240.574865-155.6008528 376.13649-107.879448 135.561625 47.721405 226.082177 175.996423 225.612714 319.711649h-74.747813c-.01977-25.341813-3.738635-50.545031-11.03898-74.812557h-101.260787zm0-214.580284v64.938983h64.938983c-17.662548-25.293814-39.645169-47.276435-64.938983-64.938983zm-299.25023 429.144382v-64.938983h-64.938983c17.652382 25.302331 39.636652 47.286601 64.938983 64.938983zm0-139.751541-.064744-149.625114h-101.196043c-14.662122 48.797456-14.662122 100.827658 0 149.625114zm0-224.453858-.016186-64.938983c-25.293814 17.662548-47.276435 39.645169-64.938983 64.938983zm74.812558 0 149.625115-.048559v-101.196042c-48.789992-14.712819-100.835124-14.712819-149.625115 0zm616.968898 191.903436c11.717294 6.648788 18.961078 19.078182 18.970212 32.550422v261.860137c.010999 13.143864-6.877355 25.329061-18.144716 32.09721l-187.04758 112.218836c-11.858904 7.102583-26.664221 7.102583-38.523125 0l-187.04758-112.218836c-11.267361-6.768149-18.155715-18.953346-18.144716-32.09721v-261.860137c.00971-13.471614 7.262586-25.897401 18.987979-32.530624 11.725393-6.633222 26.111863-6.449122 37.663677.481974l167.802203 100.661898 167.818389-100.678085c11.540889-6.970293 25.94851-7.156038 37.665257-.485585zm-355.124947 98.654811v174.584215l112.218836 67.366912v-174.616588zm299.266415 174.584215v-174.584215l-112.218836 67.334539v174.616588z"/></svg>