<svg height="1000" viewBox="0 0 1000 1000" width="1000" xmlns="http://www.w3.org/2000/svg"><path d="m500 500c-124.264069 0-225-100.735931-225-225s100.735931-225 225-225 225 100.735931 225 225-100.735931 225-225 225zm0-337.5c-62.132034 0-112.5 50.367966-112.5 112.5s50.367966 112.5 112.5 112.5 112.5-50.367966 112.5-112.5-50.367966-112.5-112.5-112.5zm450 787.5h-900v-56.25c0-198.73125 185.0625-337.5 450-337.5s450 138.76875 450 337.5zm-778.55625-112.5h657.28125c-33.75-101.7-159.35625-168.75-328.55625-168.75s-294.975 67.05-328.6125 168.75z"/></svg>