<svg height="1000" viewBox="0 0 1000 1000" width="1000" xmlns="http://www.w3.org/2000/svg"><path d="m500 50c248.447894 0 450 201.552106 450 450s-201.552106 450-450 450-450-201.552106-450-450 201.552106-450 450-450zm0 816.186253c201.552106 0 366.186253-164.634147 366.186253-366.186253s-164.634147-366.186253-366.186253-366.186253-366.186253 163.636364-366.186253 366.186253 164.634147 366.186253 366.186253 366.186253zm9.977827-615.631929c86.807095 3.991131 155.654102 61.862527 160.643016 134.700665 5.986696 67.849224-44.900222 129.711752-121.72949 148.669623-3.991131.997783-5.986697 2.993348-6.984479 3.991131v23.946785c0 22.949002-18.957872 41.906873-41.906874 41.906873s-41.906874-18.957871-41.906874-41.906873v-25.942351c0-37.915742 28.935699-72.838137 70.842572-82.815964 36.917961-8.980044 60.864745-33.924612 58.86918-60.864745-2.993348-29.933481-38.913525-55.875832-81.818182-57.871397-29.933481-1.995565-58.869179 7.982262-76.829268 24.944568-7.982262 7.982261-16.962306 19.955654-16.962306 35.920177 0 22.949002-18.957871 41.906874-41.906874 41.906874-22.949002 0-41.906873-18.957872-41.906873-41.906874 0-35.920177 14.96674-69.844789 42.904656-96.784922 34.922395-32.92683 85.809313-50.886918 138.691796-47.89357zm-8.980044 498.891352c-27.553009 0-49.889136-22.336126-49.889136-49.889135s22.336127-49.889135 49.889136-49.889135c27.553008 0 49.889135 22.336126 49.889135 49.889135s-22.336127 49.889135-49.889135 49.889135z"/></svg>