<svg height="1000" viewBox="0 0 1000 1000" width="1000" xmlns="http://www.w3.org/2000/svg"><path d="m692.36494 614.13068h-41.046067l-14.198325-14.198324c115.891773-136.406334 103.307095-340.005114-28.501178-461.10082-131.808274-121.0957056-335.74198-116.418024-461.859345 10.593791-126.1173652 127.011814-129.3537204 330.973485-7.329543 461.922678 122.024177 130.949192 325.706809 142.094713 461.290724 25.241844l14.198325 14.198325v40.787915l258.151363 257.635061 76.929106-76.929107zm-309.781636 0c-93.971231 0-178.689451-56.606904-214.650684-143.425001-35.961234-86.818098-16.083532-186.750051 50.364163-253.197747 66.447695-66.447695 166.379648-86.325396 253.197746-50.364163 86.818098 35.961234 143.425002 120.679453 143.425002 214.650685 0 128.315755-104.020472 232.336226-232.336227 232.336226z"/></svg>