<svg height="69" viewBox="0 0 69 69" width="69" xmlns="http://www.w3.org/2000/svg"><path d="m0 0h69v69h-69z" fill="#ffed00"/><g fill="none" stroke="#005aa5" stroke-miterlimit="10"><path d="m0 0h69v69h-69z" stroke="none"/><path d="m.5.5h68v68h-68z" fill="none"/></g><path d="m0 40.339 35.927-24.266 6.146 4.095-28.995 20.171 17.176 11.661 9.141-5.514-6.62-4.254 15.125-10.245 12.6 8.352-30.246 20.168zm0 11.819 6.3-4.258 6.3 4.254-12.6 8.353zm18.437-11.819 28.992-20.17-17.175-11.66-9.139 5.516 6.618 4.254-15.127 10.241-12.606-8.352 30.254-20.168 30.253 20.168-35.925 24.268zm29.463-31.987 12.607-8.352v8.352l-6.3 4.254z" fill="#005aa5" transform="translate(4.246 4.246)"/></svg>