<svg height="313.549" viewBox="0 0 327.78 313.549" width="327.78" xmlns="http://www.w3.org/2000/svg" xmlns:xlink="http://www.w3.org/1999/xlink"><linearGradient id="a" gradientUnits="objectBoundingBox" x2="1" y1=".5" y2=".5"><stop offset="0" stop-color="#2c546e"/><stop offset="1" stop-color="#2f8e84"/></linearGradient><linearGradient id="b" gradientUnits="objectBoundingBox" x1="-.508" x2="1.044" y1=".501" y2=".501"><stop offset="0" stop-color="#9a5cff"/><stop offset=".99" stop-color="#4059bf"/></linearGradient><linearGradient id="c" gradientUnits="objectBoundingBox" x2="1" y1=".499" y2=".499"><stop offset="0" stop-color="#ff9f55"/><stop offset="1" stop-color="#ffd255"/></linearGradient><linearGradient id="d" x1="0" x2="1" xlink:href="#c" y1=".5" y2=".5"/><g transform="translate(-348.22 -85.988)"><path d="m603.353 227.044-242.312-139.898a8.547 8.547 0 0 0 -12.821 7.4v279.797a8.547 8.547 0 0 0 12.821 7.4l242.312-139.9a8.548 8.548 0 0 0 0-14.799z" fill="url(#a)"/><path d="m429.2 504.1a27.827 27.827 0 0 0 3.969 6.69l-2.358 4.946 4.761 3.571 4.761 3.571 4.086-3.648a27.861 27.861 0 0 0 7.537 1.934l1.827 5.159 5.891-.842 5.891-.842.31-5.464a27.831 27.831 0 0 0 6.69-3.964l4.946 2.358 3.56-4.752 3.571-4.761-3.646-4.086a27.929 27.929 0 0 0 1.934-7.537l5.159-1.827-.842-5.891-.842-5.891-5.464-.31a27.887 27.887 0 0 0 -3.964-6.69l2.356-4.946-4.759-3.569-4.761-3.571-4.088 3.646a27.9 27.9 0 0 0 -7.537-1.934l-1.827-5.159-5.886.845-5.891.842-.31 5.464a27.887 27.887 0 0 0 -6.69 3.964l-4.946-2.356-3.571 4.759-3.571 4.761 3.648 4.088a27.833 27.833 0 0 0 -1.934 7.537l-5.16 1.805.842 5.889.842 5.891zm22.922-31.437a20.852 20.852 0 1 1 -17.7 23.59 20.852 20.852 0 0 1 17.698-23.592z" fill="#fff" transform="translate(-60.581 -307.134)"/><path d="m440.6 289.855a12.7 12.7 0 0 0 1.818 3.067l-1.077 2.268 2.182 1.637 2.182 1.637 1.873-1.672a12.779 12.779 0 0 0 3.453.888l.838 2.365 2.7-.386 2.692-.386.144-2.512a12.766 12.766 0 0 0 3.067-1.818l2.266 1.077 1.642-2.162 1.637-2.182-1.662-1.882a12.835 12.835 0 0 0 .886-3.454l2.365-.836-.386-2.7-.386-2.7-2.512-.144a12.767 12.767 0 0 0 -1.818-3.067l1.077-2.266-2.182-1.637-2.182-1.638-1.873 1.672a12.843 12.843 0 0 0 -3.451-.877l-.843-2.374-2.692.386-2.7.386-.144 2.512a12.767 12.767 0 0 0 -3.078 1.811l-2.266-1.077-1.637 2.184-1.637 2.182 1.671 1.873a12.827 12.827 0 0 0 -.886 3.453l-2.365.838.386 2.7.386 2.7zm10.51-14.411a9.559 9.559 0 1 1 -8.11 10.814 9.559 9.559 0 0 1 8.114-10.814z" fill="#fff" transform="translate(-73.111 -150.803)"/><path d="m1478.74 750.087s14.575-4.736 15.759-4.206 1.346 1.364 0 1.864-13.975 5-13.975 5 18-2.595 19.079-2.39c.628.12 1.03 1.714.328 2.051s-18.453 3.978-18.453 3.978 16.818-2.392 17.652-1.936a1.263 1.263 0 0 1 -.493 2.243c-1.24.269-16.773 3.409-16.773 3.409s12.31-.935 12.78-.1c.287.51.7 1.868-2.483 2s-10.683 1.288-10.683 1.288z" fill="#eea886" transform="translate(-927.652 -541.443)"/><path d="m1389.24 738.127s4.718-1.873 5.055-4.845c.289-2.53 2.388-5.669 3.035-6.64.861-1.294 2.153-6.234 3.661-5.181s-1.755 8.233-2.153 9.87 6.031-1.85 7.643-1.534 6 11.6 1.339 13.471-10.661.68-11.425 1.177a30.578 30.578 0 0 1 -3.345 1.5z" fill="#eea886" transform="translate(-854.213 -521.32)"/><path d="m579.5 732.162c.106 1.364.219 2.663.325 3.824h-67.489c.023-1.136.056-2.426.081-3.824.228-11.251.56-29.7.414-36.664-.179-9.945-2.283-35.787-2.692-37.282 0 0-14.81-21.516-30.341 20.956-3.207 8.752 26.2 30.685 22.538 31.355s-3.5 7.607-3.5 7.607-27.687-24.112-27.118-31.224c.318-3.948 21.995-61.281 25.3-63.653 2.256-1.615 16.432-7.305 23.78-10.09a52.823 52.823 0 0 1 6.526-2.234c1.681-.1 22.416 1.884 22.416 1.884s2.972 1.016 6.017 2.412c5.188 2.378 13.279 6.1 19.072 8.866 1.875.9 4.221 2.094 6.169 3.124q-.359 10.573-1.256 22.686s-1.077 17.641-1.177 35.462c-.933 4.036-.77 13.414-.77 13.414-.26 8.89.73 18.015.991 23.113.173 3.198.441 6.932.714 10.268z" fill="#dbd8e3" transform="translate(-101.332 -430.741)"/><path d="m954.57 746.6c-.974-6.308-1.9-12.875-2.663-19.16v-.048q-.179-1.534-.359-3.051a1.129 1.129 0 0 0 -.016-.154c-.488-4.255-.885-8.321-1.177-12.048a37.8 37.8 0 0 1 .373-8.378c1.152-19.055 1.73-39.15 1.73-39.15.608-8.233.956-15.913 1.193-23.082 0 0-26.038-12.3-28.4-13.006 0 0 4.937 11.594 8.639 37.517 1.436 9.954 4.068 26.712 5.984 43.817.754 6.747 2 13.575 3.182 20.007 1.121 6.064 2.193 11.779 2.769 16.732.041.3.074.6.106.9.09.852.194 1.834.316 2.921h8.927c-.206-1.253-.409-2.536-.604-3.817z" fill="#0e2a3b" transform="translate(-473.484 -445.176)"/><path d="m465.419 707.133c-1.184 11.5-2.484 20.8-3.531 30.316-.138 1.267-.276 2.543-.406 3.824h-27.382c.359-1.256.707-2.541 1.039-3.824 2.939-11.081 5.285-22.391 5.285-29.25 0 0-5.7-40.984-7.607-47.586 0 0-17.236 12.741-21.263 21.573-3.605 7.9 22.806 32 22.5 32.808-1.794 4.75-8.671 13.428-8.671 13.428s-40.9-43.925-40.352-49.341c.391-3.937 34.676-47.715 37.982-50.085 1.915-1.371 16.075-6.388 23.025-9.134 1.274-.5 5.416-2.062 6.552-2.493 1.47 1.64 11.829 12.787 15.418 55.153.602 7.145-1.308 22.263-2.589 34.611z" fill="#0e2a3b" transform="translate(-30.196 -436.027)"/><path d="m779.057 521.806s-.144-7.119-2.885-21.519c-.734-3.856 22.386 10.142 22.386 10.142s-.072 1.351-.118 3.174c-.025.964-.039 2.056-.034 3.153 0 .386 0 .77.016 1.152.022 1.017.068 1.994.154 2.823a13.7 13.7 0 0 0 .772 2.778c.947 2.191-12.506 3.867-20.291-1.703z" fill="#eea987" transform="translate(-351.143 -339.403)"/><path d="m861.751 664.84 3.831 5.148s-2.245 3.006-6.232.788z" fill="#323657" transform="translate(-419.409 -474.979)"/><path d="m873.887 694.019s14.535 55.948 11.537 99.5l-4.89 8.613-4.576-9.028s-1.256-77.9-5.238-99.234z" fill="#323657" transform="translate(-428.739 -498.799)"/><path d="m837.071 631.393-4.1 4.8s-6.584-1.274-8.518-4.714 12.618-.086 12.618-.086z" fill="#eea987" transform="translate(-390.627 -446.33)"/><path d="m877.772 614.69s-.476 3.659-5.042 9l4.985 6.7 2.692-13.894z" fill="#c4c1cc" transform="translate(-430.388 -433.828)"/><path d="m772.913 595.29s8.15 9.85 14.808 12.481l-3.1 7.659-15.491-16.659z" fill="#c4c1cc" transform="translate(-345.379 -417.909)"/><path d="m1083.444 721.612s-35.119 38.156-43.408 36.117c-3.831-.942-9.634-7.557-14.431-13.774-1.581-2.047-3.131-4.2-4.606-6.324-5.888-8.5-10.5-16.653-10.5-16.653s-17.39-20.382-3.435-29.465c0 0 5.88-.594 9.225 1.873 3.09 2.279 10.6 16.626 11.824 19.285s10.711 21.408 11.6 21.962 10.205-5.039 15.188-8.393c8.05-5.418 18.165-14.862 18.165-14.862z" fill="#0e2a3b" transform="translate(-536.169 -496.814)"/><path d="m801.112 309.817s5.077 9.416 2.561 10.878c-2.08 1.211 2.437 10.449 3.027 11.958s-3.768 2.607-4.693 3.578-3.67 12.92-7.259 13.279-19.761-5.256-24.164-9.834-8.018-25.266-5.078-33.984 26.642-12.321 35.606 4.125z" fill="#eea886" transform="translate(-341.531 -174.228)"/><path d="m782.472 282.192s5.184-10.167-4.231-17.71-26.777 5.694-28.735 6.2-13.051 1.267-7.452 20.76c4.813 16.741 5.486 17.444 5.486 17.444s3.589-9.69 5.629-11.174c3.178-2.309 10.149-1.755 10.149-1.755s-3.322-8.818 1.87-10.067 12.033-5.647 17.284-3.698z" fill="#16202e" transform="translate(-321.879 -144.562)"/><path d="m801.031 402.666c-.458-1.209-1.936-6.408-6.4-3.356s2.778 12.852 3.557 12.978 6.696.556 2.843-9.622z" fill="#eea886" transform="translate(-365.123 -256.32)"/><path d="m827.985 549.575c0 .386 0 .77.016 1.152-13.222-4.438-15.791-11.117-15.791-11.117 4.127 2.916 15.791 6.819 15.791 6.819-.007.956-.021 2.044-.016 3.146z" fill="#a77860" transform="translate(-380.729 -372.221)"/><path d="m603.636 1159.865a4.669 4.669 0 0 0 2.577 1.039c2.29-.02 4.9-2.512 7.287-.248s-2.645 11.87-4.457 13-5.938-.9-10.35-6.23 4.943-7.561 4.943-7.561z" fill="#eea886" transform="translate(-204.555 -881.043)"/><path d="m640.843 1161.41a95.308 95.308 0 0 1 9.564 4c4.328 2.112 9.408 5.339 8.89 6.435-.786 1.663-4.648-1.457-9.082-3.26-4.081-1.66-3.557-.641-3.557-.641s-.133-.3 3.96 2.385c4.4 2.885 9.01 6.169 8.6 7.076-.5 1.123-.662 1.22-2.432.438.919.671.865 1.021.621 1.436-1.256 2.153-8.394-1.077-11.226-2.353 2.169 1 3.654 1.963 2.031 2.778-1.855.931-11.73-4.082-15.441-5.534-4.044-1.586 8.072-12.76 8.072-12.76z" fill="#eea886" transform="translate(-232.813 -882.441)"/><path d="m523.948 1081.144s-1 5.891-8.669 13.426c0 0-17.566-19.38-20.7-23.005l13.744-7.975z" fill="#323657" transform="translate(-120.096 -802.174)"/><path d="m364.307 301.421h241.675v3.824h-241.675z" fill="#fff"/><rect fill="#4ca1f4" height="15.82" rx="7.91" width="15.82" x="478.88" y="147.114"/><g fill="#d9d9d9" opacity=".69"><rect height="4.913" opacity=".72" rx="2.457" width="54.742" x="500.618" y="126.16"/><rect height="4.913" opacity=".72" rx="2.457" width="62.374" x="500.618" y="134.104"/></g><rect fill="#4ca1f4" height="15.82" rx="7.91" width="15.82" x="478.88" y="124.679"/><g fill="#d9d9d9" opacity=".69"><rect height="4.913" opacity=".72" rx="2.457" width="41.145" x="500.618" y="148.596"/><rect height="4.913" opacity=".72" rx="2.457" width="50.607" x="500.618" y="156.54"/></g><g fill="#d9d9d9" opacity=".69"><rect height="4.913" opacity=".72" rx="2.457" width="59.696" x="500.618" y="171.03"/><rect height="4.913" opacity=".72" rx="2.457" width="54.742" x="500.618" y="178.974"/></g><rect fill="#4ca1f4" height="15.82" rx="7.91" width="15.82" x="478.88" y="169.55"/><g fill="#fff"><path d="m1096.024 457.038-4.382-3.813a.863.863 0 1 1 1.132-1.3l3.1 2.692 4.406-4.933a.864.864 0 1 1 1.288 1.15z" transform="translate(-609.774 -298.192)"/><path d="m1096.021 582.038-4.382-3.808a.864.864 0 0 1 1.132-1.3l3.1 2.692 4.405-4.937a.864.864 0 1 1 1.288 1.15z" transform="translate(-609.771 -400.762)"/><path d="m1113.284 326.184-.027-.348a3.083 3.083 0 0 1 .831-2.315 2.96 2.96 0 0 0 .937-1.834c0-.684-.429-1.138-1.272-1.152a2.38 2.38 0 0 0 -1.351.416l-.321-.843a3.509 3.509 0 0 1 1.915-.538 1.979 1.979 0 0 1 2.234 1.974 3.643 3.643 0 0 1 -1.15 2.333 2.643 2.643 0 0 0 -.763 1.974l.012.348zm-.294 1.873a.791.791 0 0 1 .8-.843.838.838 0 1 1 -.8.843z" transform="translate(-626.788 -191.666)"/></g><path d="m1412.951 1236.681c.73 3.167.6 10.526.6 10.526.2 6.98-.58 14.148-.777 18.151 0 .122-.014.246-.02.373-.05.944-.113 1.945-.179 2.961h52.225c-.02-.962-.038-1.952-.054-2.961-.106-5.909-.2-12.382-.206-17 11.931-3.151 24.817-7.264 24.584-10.271-.248-3.1-9.545-48.669-12.143-50.53-1.771-1.272-12.9-5.731-18.662-7.921a41.187 41.187 0 0 0 -5.12-1.751c-1.321-.083-17.6 1.477-17.6 1.477s-2.333.8-4.721 1.895c-4.072 1.868-10.419 4.789-14.973 6.959-1.471.7-3.311 1.646-4.845 2.457q.278 8.3.983 17.8s.827 13.848.908 27.835zm51.734 5.272c.642-8.676 3.259-23.581 3.55-24.636 0 0 1.227 1.161 1.234 1.161s.4.057.409.052a3.075 3.075 0 0 1 .37.14s7.9 11.036 7.987 16.969c.044 2.83-6.129 4.861-13.549 6.315z" fill="#dbd8e3" transform="translate(-872.117 -896.261)"/><path d="m1408.7 1280.015h6.84q.235-1.445.5-2.961c1.159-6.532 2.692-13.913 3.5-21.159 1.5-13.426 3.575-26.581 4.691-34.4 2.907-20.346 6.783-29.449 6.783-29.449-1.852.553-22.289 10.212-22.289 10.212.179 5.624.456 11.664.933 18.124 0 0 .452 15.775 1.358 30.736a29.87 29.87 0 0 1 .292 6.575c-.228 2.927-.538 6.121-.926 9.453a.407.407 0 0 1 -.012.125c-.092.791-.179 1.586-.282 2.392v.034c-.292 2.419-.617 4.89-.962 7.357q-.209 1.48-.426 2.961z" fill="#323657" transform="translate(-870.181 -907.583)"/><path d="m1517.686 1250.056c1.554 3.666 6.91 12.721 6.91 12.721s3.876-.949 9.579-2.426c.375 3.23.754 6.281 1.116 9.252.12.992.242 1.974.359 2.961h20.342q-.359-1.493-.691-2.961a84.091 84.091 0 0 1 -2.241-14.374c13.638-3.9 27.01-8.255 26.8-10.35-.31-3.09-10.553-50.868-13.153-52.729-1.5-1.077-12.617-5.025-18.072-7.167-1-.395-4.4-1.672-5.294-2.013-1.157 1.288-9.134 10.092-11.953 43.349-.348 4.127.377 11.686 1.182 19.251-8.255 2.204-15.15 3.86-14.884 4.486zm37.2-11.869c.822-6.627 1.753-13.292 2.426-15.624a26.411 26.411 0 0 1 2.121 11.449c-.038 1.374-1.79 2.788-4.551 4.176z" fill="#323657" transform="translate(-959.603 -900.132)"/><path d="m1566.785 1109.9s-2.071-3.91-1.5-15.016c.158-3.078-16.161 7.3-16.161 7.3s.056 1.061.092 2.491c.018.6.029 1.256.029 1.92v.554c0 .305 0 .6-.011.9 0 .373-.021.738-.041 1.089-.018.4-.045.779-.083 1.125a10.147 10.147 0 0 1 -.6 2.18c-.753 1.73 12.165 1.825 18.275-2.543z" fill="#eea987" transform="translate(-984.874 -827.382)"/><path d="m1560.507 1220.54-3.007 4.041s1.762 2.36 4.892.617z" fill="#569254" transform="translate(-992.279 -930.96)"/><path d="m1520.855 1243.508s-11.02 26.917-8.669 61.1l3.476 6.308 3.919-5.373s.632-45.4 3.76-62.142z" fill="#569254" transform="translate(-954.826 -949.718)"/><path d="m1556.32 1194.275 3.219 3.768s5.17-1 6.686-3.7-9.905-.068-9.905-.068z" fill="#eea987" transform="translate(-991.311 -908.464)"/><path d="m1542.731 1181.17s.375 2.871 3.959 7.065l-3.912 5.256-2.117-10.9z" fill="#c4c1cc" transform="translate(-978.461 -898.655)"/><path d="m1586.929 1161.92s-7.472 8.452-12.7 10.519l2.431 6.011 11.926-13.157z" fill="#c4c1cc" transform="translate(-1006.007 -882.859)"/><path d="m1189.881 1303.9s9.92-9.62 16.425-11.221c3.008-.739 6.97-4.892 10.733-9.773 1.242-1.606 2.458-3.293 3.616-4.963 4.619-6.667 8.238-13.058 8.238-13.058s13.65-16 2.692-23.131c0 0-4.694-.1-7.269 1.3-2.647 1.436-8.3 13.225-9.254 15.314s-11.33 21.473-12.023 21.907a28.694 28.694 0 0 1 -6 4.266c-5.082 2.737-13.064 10.745-13.064 10.745z" fill="#323657" transform="translate(-685.778 -948.365)"/><path d="m1453.956 1573.564a6.23 6.23 0 0 0 1.974-.377s1.037-.664 1.794-1.093a6.121 6.121 0 0 1 .6-.305 11.513 11.513 0 0 0 3.332-1.588c1.3-1 5.563-4.972 5.563-4.972l-2.749-4.224-1.269-4.185s-9.914.987-11.237 1.773a3.9 3.9 0 0 0 -.359.244 14.8 14.8 0 0 0 -2.022 2.261c-.179.179-1.913 2.022-1.816 2.772a2.47 2.47 0 0 0 1.294 2.024 6 6 0 0 0 1.4 2.932 3.673 3.673 0 0 0 1.886 2.634s.487 1.878 1.609 2.104z" fill="#efaa88" transform="translate(-902.238 -1206.896)"/><path d="m1503.154 936.308s-17.92-4.319-14.144 18.368 8.075 24.529 18.987 20 10.158-19.034 10.808-26.135-9.917-11.903-15.651-12.233z" fill="#eea886" transform="translate(-935.651 -697.463)"/><path d="m1621.7 1017.557c.266-1.994 4.222-2.667 4.486.33s-1.913 8.219-3.409 7.68-1.449-5.267-1.077-8.01z" fill="#eea886" transform="translate(-1044.777 -763)"/><path d="m1513.179 936.057s-.359-7.137-2.959-7.4-3.051 2.6-3.051 2.6l-2.638.458s.922-6.236-1.662-7.366-16.9 3.194-18.957 1.328-.9-14.524 2.909-16.2 14.28-5.412 21.844-.131c0 0 5.963-.59 6.776 4.226s-.591 18.935-2.262 22.485z" fill="#16202e" transform="translate(-931.071 -673.376)"/><path d="m1515 1529.069 7.4 12.721s19.6-5.05 24.173-6.34l-10.456-12.45s-15.417 3.528-21.117 6.069z" fill="#323657" transform="translate(-957.405 -1179.145)"/><path d="m1552.47 1138.628a17.136 17.136 0 0 0 13.336-8.378 19.86 19.86 0 0 1 -13.279 5.828v.554c0 .305 0 .6-.011.9-.016.389-.026.748-.046 1.096z" fill="#a77860" transform="translate(-988.152 -856.872)"/><path d="m1159.761 1401.62 5.227 48.6h-68.8l-5.227-48.6z" fill="#ffc955" transform="translate(-609.458 -1079.546)"/><path d="m549.516 366.3h11.492v4.373h-11.492z" fill="#ffc955"/><path d="m0 0h186.998v2.961h-186.998z" fill="url(#b)" transform="translate(422.121 370.571)"/><ellipse cx="3.899" cy="5.001" fill="#cfa345" rx="3.899" ry="5.001" transform="matrix(.97975035 -.200223 .200223 .97975035 513.694 342.256)"/><rect fill="#e0e0e0" height="70.28" rx="30.02" width="72.688" x="371.105" y="256.736"/><path d="m510.994 1221.582-.5-.533 13.031-12.3 13.189 2.857 12.6-14.366 10.987.621 8.558-11.8.594.431-8.793 12.129-11.036-.621-12.646 14.422-13.234-2.868z" fill="#377b93" transform="translate(-133.151 -902.668)"/><path d="m650.294 1321.324a1.96 1.96 0 1 1 -.855-1.234 1.958 1.958 0 0 1 .855 1.234z" fill="#e6e6e6" transform="translate(-244.691 -1012.391)"/><path d="m647.114 1322.278a2.333 2.333 0 1 1 1.778-2.756 2.333 2.333 0 0 1 -1.778 2.756zm-.827-3.833a1.592 1.592 0 1 0 1.891 1.219 1.592 1.592 0 0 0 -1.891-1.219z" fill="#377b93" transform="translate(-242.93 -1010.659)"/><path d="m720.626 1241.8a1.956 1.956 0 1 1 -.855-1.234 1.958 1.958 0 0 1 .855 1.234z" fill="#e6e6e6" transform="translate(-302.402 -947.137)"/><path d="m717.449 1242.745a2.333 2.333 0 1 1 1.78-2.763 2.333 2.333 0 0 1 -1.78 2.763zm-.829-3.826a1.59 1.59 0 1 0 1.893 1.217 1.59 1.59 0 0 0 -1.893-1.217z" fill="#377b93" transform="translate(-300.646 -945.397)"/><path d="m781.406 1244.231a1.958 1.958 0 1 1 -.855-1.233 1.958 1.958 0 0 1 .855 1.233z" fill="#e6e6e6" transform="translate(-352.275 -949.133)"/><path d="m778.231 1245.184a2.333 2.333 0 1 1 1.78-2.765 2.333 2.333 0 0 1 -1.78 2.765zm-.829-3.828a1.592 1.592 0 1 0 1.891 1.218 1.592 1.592 0 0 0 -1.891-1.218z" fill="#377b93" transform="translate(-350.521 -947.399)"/><path d="m576.636 1306.382a1.958 1.958 0 1 1 -2.333-1.5 1.958 1.958 0 0 1 2.333 1.5z" fill="#e6e6e6" transform="translate(-184.251 -1000.132)"/><path d="m573.457 1307.323a2.333 2.333 0 1 1 1.782-2.763 2.333 2.333 0 0 1 -1.782 2.763zm-.827-3.826a1.592 1.592 0 1 0 1.891 1.218 1.592 1.592 0 0 0 -1.892-1.215z" fill="#377b93" transform="translate(-182.494 -998.386)"/><g fill="#fff"><path d="m388.513 313.943h8.014v1.543h-8.014z"/><path d="m394.087 298.103h8.014v1.543h-8.014z"/><path d="m410.712 309.141h8.014v1.543h-8.014z"/><path d="m417.903 287.466h8.014v1.543h-8.014z"/><path d="m429.543 300.382h8.014v1.543h-8.014z"/></g><path d="m376.452 262.108h28.545v2.801h-28.545z" fill="#4e8c63"/><path d="m376.452 269.645h28.545v2.801h-28.545z" fill="#fff"/><path d="m376.452 277.182h28.545v2.801h-28.545z" fill="#fff"/><path d="m410.822 262.108h4.764v2.801h-4.764z" fill="#4e8c63"/><path d="m410.822 269.645h4.764v2.801h-4.764z" fill="#fff"/><path d="m410.822 277.182h4.764v2.801h-4.764z" fill="#fff"/><path d="m0 0h16.588v.985h-16.588z" fill="url(#c)" transform="translate(376.763 349.709)"/><path d="m0 0h1.454v44.781h-1.454z" fill="#706865" transform="matrix(-1 0 0 -1 380.44 398.037)"/><path d="m390.756 349.429h11.529v1.407h-11.529z" fill="#ccbdb7"/><path d="m394.338 337.431h4.366v13.261h-4.366z" fill="#ffab55"/><path d="m370.812 350.71h63.885v2.546h-63.885z" fill="#b59074"/><path d="m382.1 1455.725s-.7 9.8 1.215 10.971c1.2.736 5.981 3.214 5.839 3.677s-2.692 4.127-2.692 4.127-9.186-6.047-9.482-7.955c-.289-1.861.452-14.356 1.714-14.921.946-.431 1.446-.075 2.638.809a2.8 2.8 0 0 1 .768 3.292z" fill="#4e94f7" transform="translate(-23.552 -1120.428)"/><path d="m490.942 1478.956.809-.3s-1.01-2.37-1.45-2.313a11.043 11.043 0 0 0 -1.141.233z" fill="#ead8cf" transform="translate(-115.649 -1140.861)"/><path d="m476.447 1478.64c-.1-.077-1.721-3.18-1.721-3.18l-3.456.47 1.868 3.675z" fill="#da9b5b" transform="translate(-100.969 -1140.136)"/><path d="m451.612 1789.679s-.285 1.983-.321 2.281-3.176-.179-3.176-.179l-.255-2.361a18.622 18.622 0 0 1 3.752.259z" fill="#424773" transform="translate(-81.76 -1397.755)"/><path d="m449.1 1801.514a8.486 8.486 0 0 0 1.958 1.715c.962.521 2.476.718 3.051 1.256.411.389 1.5 2.065-2.5 2.031s-5.922.237-6.354-.406.619-4.741.619-4.741a8.256 8.256 0 0 0 3.226.145z" fill="#292c47" transform="translate(-79.535 -1407.562)"/><path d="m563.768 1789.808s-.285 1.974-.321 2.281-3.178-.179-3.178-.179l-.269-2.362a18.424 18.424 0 0 1 3.768.26z" fill="#424773" transform="translate(-173.777 -1397.861)"/><g fill="#292c47"><path d="m561.246 1801.663a8.488 8.488 0 0 0 1.958 1.715c.962.52 4.506.949 5.077 1.488.411.389 1.095 1.956-4.533 1.809-4-.1-5.922.237-6.354-.406s.619-4.739.619-4.739a7.705 7.705 0 0 0 3.233.133z" transform="translate(-171.552 -1407.694)"/><path d="m399.253 1600s11.424 1.933 14 2.333 16.568 3.885 18.318 4.946c1.393.845-.73 21.121-1.226 28.857h-5.505l-.4-23.206c-6.613.165-11.33-1.547-16.15-.815s-8.829 1.771-11.888-2.333c.003.009-.11-8.882 2.851-9.782z" transform="translate(-39.534 -1242.328)"/><path d="m400.223 1647.471-5.369-.332-.522-22.894a32.684 32.684 0 0 1 -6.126-.388l-4.335-10.078c3.8.761 15.971 3.831 17.6 4.814 1.395.847-.744 21.14-1.248 28.878z" transform="translate(-29.253 -1253.635)"/></g><path d="m428.457 1360.5s4.186-1.157 5.784 2.094.874 9.412-1.236 9.991-5.145-.088-6.02-2.11a15.528 15.528 0 0 1 -1.366-6.76 4.082 4.082 0 0 1 2.838-3.215z" fill="#eea886" transform="translate(-63.479 -1045.644)"/><path d="m435.224 1412.08a12.776 12.776 0 0 0 .226 3c.273.528-5.83.395-5.83.395a12.39 12.39 0 0 0 .416-5.5c-.545-2.53 5.188 2.105 5.188 2.105z" fill="#eea886" transform="translate(-66.793 -1085.782)"/><path d="m425.325 1367.013s.327.664 1.906.556 3.663-2.013 4.334-2.184.718-.551.718-.551l.359.63.687.1s-.467-1.909.551-2.582-.459-6.089-5.609-4.782c0 0-3.932.718-3.986 2.914s.277 4.736 1.04 5.899z" fill="#3a3f47" transform="translate(-62.41 -1043.755)"/><path d="m436.141 1434.085s-.016-1.007-.474-1.1-4.8-.695-5.357-.474l-.24 1.33s1.078.659 6.071.244z" fill="#e2d2ca" transform="translate(-67.162 -1104.851)"/><path d="m462.869 1388.458c-.117-.825-1.055-1.773-1.592-.488s.359 3.156.965 3.051.787-1.443.627-2.563z" fill="#eea886" transform="translate(-92.635 -1067.829)"/><path d="m565.189 1507.81h-.009c.032.014.036.014.009 0z" fill="#323657" transform="translate(-178.027 -1166.681)"/><path d="m423.093 1364.706s-5.105-.24-.9 7.729z" fill="#3a3f47" transform="translate(-59.337 -1049.256)"/><path d="m371.41 1788.917.38 1.068 16.046-4.972-.768-2.162z" fill="#918783" transform="translate(-19.029 -1392.366)"/><path d="m367.534 374.44h1.823v17.446h-1.823z" fill="#918783"/><path d="m363.067 373.514h10.758v1.028h-10.758z" fill="#5e5854"/><path d="m476.137 1788.293-.38 1.068-16.046-4.972.705-2.3z" fill="#918783" transform="translate(-91.484 -1391.742)"/><path d="m464.83 1789.248v1.242l-5.12-6.1.705-2.3z" fill="#918783" transform="translate(-91.484 -1391.742)"/><g fill="#bfb2ac"><path d="m545.88 1818.08a1.5 1.5 0 1 1 -.438-1.061 1.5 1.5 0 0 1 .438 1.061z" transform="translate(-159.729 -1420.043)"/><path d="m475.28 1818.08a1.5 1.5 0 1 1 -1.5-1.5 1.5 1.5 0 0 1 1.5 1.5z" transform="translate(-101.798 -1420.043)"/><path d="m366.05 1818.08a1.5 1.5 0 1 1 -1.5-1.5 1.5 1.5 0 0 1 1.5 1.5z" transform="translate(-12.169 -1420.043)"/></g><rect fill="#e2d2ca" height="3.894" rx="1.947" width="25.485" x="355.775" y="369.62"/><path d="m425.07 353.256h1.454v44.781h-1.454z" fill="#706865"/><rect fill="url(#d)" height="26.598" rx="10.69" transform="translate(377.669 317.222)" width="37.702"/><path d="m379.146 318.661h34.75v20.992h-34.75z" fill="#f5f7ff"/><g fill="#cecfd6"><path d="m379.146 318.661h34.75v1.671h-34.75z"/><rect height="1.554" rx=".777" width="7.643" x="380.129" y="321.588"/><rect height="14.605" rx="3.821" width="7.643" x="380.129" y="324.182"/></g><path d="m615.224 1545.758v-.474s-.666-2.945-5.373-2.945-4.612 3.418-4.612 3.418z" fill="#2e436e" transform="translate(-210.898 -1195.014)"/><path d="m600.184 1536.44a4.634 4.634 0 0 0 1.4-.305c.375-.226 2.616-1.734 3.142-1.493s4.03 1.315 3.908 1.827-.445.463-.693.373a18.519 18.519 0 0 0 -3.015-.538s2.5.911 2.512 1.577-.524.827-.761 1.077-.522.876-1.165.924-3.786-1.046-4.434-1.1a15.781 15.781 0 0 1 -1.925-.065 17.6 17.6 0 0 1 1.031-2.277z" fill="#eea886" transform="translate(-205.898 -1188.676)"/><path d="m403.741 1441.782c-3.261-.573-6.692-1.394-6.692-1.394l-6.071-.248a59.727 59.727 0 0 0 -7.768 2.218c-.208.093-.208 4.971-.781 6.25l1.82 3.838s1.052 7.6 1.27 10.986c.1 1.552-.284 15-.284 15a23.05 23.05 0 0 0 4.689.718c4.151.449 14.5-.165 14.562-.655s-2-18.224-2.1-19.143c-.142-1.409.407-7.923.407-7.923.781 1.05 2.771 5.785 4.845 8.039 1.22 1.324 7.264 2.137 8.4 2.175 2.48.084 7 .578 7.135.336.106-.144.395-4.014.111-4.109-.248-.083-8.647-.565-10.8-1.708-.788-.416-3.14-5.548-3.14-5.548s-3.805-8.023-5.603-8.832z" fill="#4e94f7" transform="translate(-28.071 -1111.154)"/><rect fill="#e2d2ca" height="24.342" rx="8.787" width="17.575" x="349.821" y="342.551"/><path d="m395.831 1616.779a8.053 8.053 0 0 1 -6.248-2.588c-3.512-3.878-2.882-10.7-2.853-10.986a.978.978 0 1 1 1.947.192c0 .079-.567 6.259 2.36 9.485a6.1 6.1 0 0 0 4.795 1.94.978.978 0 0 1 0 1.956z" fill="#e2d2ca" transform="translate(-31.548 -1244.234)"/><path d="m581.137 1414.386a6.469 6.469 0 0 0 1.524 4.181 6.675 6.675 0 0 0 .718.736 2.526 2.526 0 0 0 .228.179c.077.052.179.136.269.2a6.46 6.46 0 0 0 2.955 1.143 5.685 5.685 0 0 0 .583.045h.214a4.486 4.486 0 0 0 .623-.029 6.46 6.46 0 0 0 3.332-1.313 6.3 6.3 0 0 0 .657-.576l.118-.124a5.907 5.907 0 0 0 .413-.483 6.5 6.5 0 1 0 -11.641-3.973z" fill="#eef0f7" transform="translate(-191.115 -1084.68)"/><path d="m593.79 1457.2.481 1.721a6.461 6.461 0 0 0 2.955 1.143 5.685 5.685 0 0 0 .583.045h.214a4.486 4.486 0 0 0 .623-.029 6.46 6.46 0 0 0 3.332-1.314c.093-.567.192-1.2.278-1.795-.477-.179-2-.694-2.957-1.019l-.039-.013-.063-.021-.162-.056-.151-.05-.384-.129h-.03l-1.29.1-.217.016h-.1c-.077.02-.3.079-.6.17a6.66 6.66 0 0 0 -2.473 1.231z" fill="#d9c7c1" transform="translate(-201.503 -1123.905)"/><g fill="#eea987"><path d="m609.488 1426.091s-1.547.262-1.285 2.683 1.628 2.209 1.719 2.205 1.373.029 1.436-2.932c.014-.001.025-2.19-1.87-1.956z" transform="translate(-213.306 -1099.611)"/><path d="m611.509 1448.213a5.516 5.516 0 0 1 -.041 1.213c-.1.217 1.242.9 2.073.122a8.6 8.6 0 0 1 -.115-1.475c.052-.385-1.917.14-1.917.14z" transform="translate(-216.005 -1117.547)"/><path d="m607.068 1436.945s-.17-.179-.231 0 .275 1 .253 1.037c0 0 .032.07.072.031a8.955 8.955 0 0 0 -.094-1.068z" transform="translate(-212.202 -1108.467)"/><path d="m625.473 1436.635s.165-.179.232 0a3.157 3.157 0 0 1 -.21 1.046s-.054.084-.1.047a9.143 9.143 0 0 1 .078-1.093z" transform="translate(-227.433 -1108.213)"/></g><path d="m607.558 1426.057c.054.332.1.578.1.578l.224.294a5.993 5.993 0 0 1 .021-.752c.013-.039.029-.108.045-.179a3.024 3.024 0 0 1 .07-.307 3.307 3.307 0 0 1 2.482.079 1.959 1.959 0 0 0 0 .212c0 .129.014.275.074.3.111.041.065.761.065.761l.179-.206s.052-.377.1-.809c.011-.1.023-.2.034-.307a2.019 2.019 0 0 0 -.583-1.69 2.832 2.832 0 0 0 -2.01 0 .719.719 0 0 0 -.3.079 2.856 2.856 0 0 0 -.501 1.947z" fill="#e8734d" transform="translate(-212.791 -1097.786)"/><path d="m614.294 1451.61a.989.989 0 0 1 -.822.33 1.123 1.123 0 0 1 -.822-.312.877.877 0 0 0 1.644-.018z" fill="#c78d71" transform="translate(-216.979 -1120.566)"/><path d="m613.245 1455.726a1.7 1.7 0 0 1 -1.2.79c-.5.043-.931-.59-1.134-.9a3.024 3.024 0 0 1 2.334.11z" fill="#eea987" transform="translate(-215.551 -1123.704)"/><path d="m611.037 1455.17a4.273 4.273 0 0 0 .991.858l-.42.646-.718-1.276z" fill="#eddad3" transform="translate(-215.535 -1123.487)"/><path d="m618.242 1455.71a2.892 2.892 0 0 1 -1.012.761l.459.666.8-1.165z" fill="#eddad3" transform="translate(-220.737 -1123.93)"/><path d="m615.589 1460-.359.538a.75.75 0 0 0 .718-.014z" fill="#5073ab" transform="translate(-219.096 -1127.45)"/><path d="m591.48 1457.678.011.036c.039.14.19.678.388 1.4a2.589 2.589 0 0 0 .228.179c.077.052.179.136.269.2a6.461 6.461 0 0 0 2.956 1.143c-.1-2.249-.359-4.244-.359-4.244-.21.056-.411.111-.6.165a14.39 14.39 0 0 0 -2.769 1.046z" fill="#323657" transform="translate(-199.608 -1124.488)"/><path d="m624.513 1461.26a6.46 6.46 0 0 0 2.656-1.213 6.278 6.278 0 0 0 .657-.576l.118-.124c.113-.483.179-.8.194-.818a14.168 14.168 0 0 0 -3.648-1.288c0 .065-.002 1.89.023 4.019z" fill="#323657" transform="translate(-226.694 -1125.185)"/><path d="m616.047 1462.4c.027.592.029 1.743.02 3.051h.214a4.468 4.468 0 0 0 .623-.029 19.957 19.957 0 0 0 -.431-3.029c-.032-.131-.05-.2-.05-.2l-.382.063c.002.053.004.098.006.144z" fill="#5073ab" transform="translate(-219.761 -1129.255)"/><path d="m589.66 1463.913a6.675 6.675 0 0 0 .718.736 2.568 2.568 0 0 0 .228.18l-.51-1.689a.433.433 0 0 0 -.1.1 3.115 3.115 0 0 0 -.336.673z" fill="#323657" transform="translate(-198.114 -1130.026)"/><path d="m643.08 1465.362.118-.124a5.879 5.879 0 0 0 .413-.483.745.745 0 0 0 -.219-.335z" fill="#323657" transform="translate(-241.948 -1131.077)"/><path d="m982.612 1376.881a3.262 3.262 0 0 0 -.423 1.122 5.4 5.4 0 0 1 -.519 1.326 12.591 12.591 0 0 0 -.63 2.209 9.328 9.328 0 0 1 .3 1.48c-.05.321-.233.953.054 1s.612-.477.612-.477a.42.42 0 0 0 .217.406.7.7 0 0 0 .718.027s.179.325.393.359a.892.892 0 0 0 .718-.1.864.864 0 0 0 .538.179.718.718 0 0 0 .607-.377s.538.109.7-.142a2.365 2.365 0 0 0 .194-.75 8.688 8.688 0 0 0 -.684-3.768 3.356 3.356 0 0 1 .179-2.934z" fill="#eea886" transform="translate(-519.263 -1058.885)"/><path d="m985.994 1402.438s-.048-1.852.44-2.245.538.275.538.275-.066-.66.467-.75.555.694.555.694a.513.513 0 0 1 .646-.4c.56.1.427.754.427.754s.538-.637.879-.025a2.865 2.865 0 0 1 .081 2.261.6.6 0 0 1 -.718.2.758.758 0 0 1 -1.172.219s-.842.44-1.139-.28a.709.709 0 0 1 -1.004-.703z" fill="#db9c7c" transform="translate(-523.326 -1077.979)"/><path d="m953.7 1210.548s3.167 10.561 4.239 14.456c.336 1.222 1.148 12.888 1.292 13.358s4.161 1.113 4.161 1.113-.486-14.594-.538-15.391-4.434-17.094-5.712-17.675c-.956-.434-1.461-.075-2.665.82a2.823 2.823 0 0 0 -.777 3.319z" fill="#ffc955" transform="translate(-496.631 -919.214)"/><path d="m735.94 1126.525a1.927 1.927 0 0 0 .179.574s.239.284.395.5a1.618 1.618 0 0 1 .113.167 3.462 3.462 0 0 0 .6.931c.346.359 1.69 1.464 1.69 1.464l1.154-.978 1.2-.538a22.518 22.518 0 0 0 -.953-3.275c-.029-.036-.057-.07-.086-.1a4.492 4.492 0 0 0 -.75-.515c-.059-.048-.675-.492-.9-.434a.741.741 0 0 0 -.554.461 1.76 1.76 0 0 0 -.818.526 1.105 1.105 0 0 0 -.718.662s-.527.211-.552.555z" fill="#efaa88" transform="translate(-318.145 -851.999)"/><path d="m969.14 1630.928s.289 2 .325 2.306 3.214-.179 3.214-.179l.257-2.387a18.8 18.8 0 0 0 -3.796.26z" fill="#424773" transform="translate(-509.498 -1267.492)"/><path d="m945.591 1642.926a8.629 8.629 0 0 1 -1.974 1.734c-.967.526-2.512.736-3.079 1.279-.415.395-1.513 2.089 2.53 2.055s5.994.239 6.426-.411-.626-4.793-.626-4.793a8.627 8.627 0 0 1 -3.277.136z" fill="#292c47" transform="translate(-485.656 -1277.439)"/><path d="m842.3 1630.928s.289 2 .325 2.306 3.214-.179 3.214-.179l.257-2.387a18.792 18.792 0 0 0 -3.796.26z" fill="#424773" transform="translate(-405.419 -1267.492)"/><g fill="#292c47"><path d="m810.2 1642.926a8.629 8.629 0 0 1 -1.974 1.734c-.967.526-4.556.96-5.132 1.5-.414.393-1.105 1.974 4.583 1.83 4.041-.106 5.992.239 6.426-.411s-.628-4.793-.628-4.793a7.813 7.813 0 0 1 -3.275.14z" transform="translate(-373.028 -1277.439)"/><path d="m921.155 1345.06s2.986 4.743 2.763 9.03 1.077 8.972 1.531 13.446c.5 4.992 2.545 16.811 2.62 19.481s-.318 11.2-.318 11.2l-4.095.1s-3.44-20.663-4.33-22.772-5.308-17.137-5.457-18.824 7.286-11.661 7.286-11.661z" transform="translate(-464.144 -1033.136)"/><path d="m844.191 1341.967s-2.25 11.75-2.546 14.374-.5 12.7-.644 14.338-1.385 21.408-1.78 23.9h5.234s4.02-14.408 4.02-21.225 3.1-14.82 5.109-19.317 6.591-4.6 7.824-12.949c-.001-.006-15.549-1.768-17.217.879z" transform="translate(-402.892 -1029.4)"/></g><path d="m894.1 1121.191s-4.007-1.5-5.854 1.554-1.671 9.152.35 9.905 5.053.359 6.087-1.55a15.184 15.184 0 0 0 1.922-6.51 4.029 4.029 0 0 0 -2.505-3.399z" fill="#eea886" transform="translate(-442.07 -849.138)"/><path d="m897.933 1170.106a3.459 3.459 0 0 1 -.109 1.615c-.276.538 5.191.538 5.191.538a35.909 35.909 0 0 1 1.285-5.346c.841-2.442-6.367 3.193-6.367 3.193z" fill="#eea886" transform="translate(-450.971 -886.453)"/><path d="m896.222 1127.51s-.377.621-1.917.38-3.409-2.29-4.063-2.512-.65-.6-.65-.6l-.4.589-.682.043s.623-1.832-.318-2.58.976-5.932 5.922-4.206c0 0 3.794 1.046 3.655 3.2s-.705 4.611-1.547 5.686z" fill="#16202e" transform="translate(-442.886 -847.043)"/><path d="m896.07 1189.31s.016-1.017.477-1.116a33.231 33.231 0 0 1 5.662-.319v1.186s-1.091.67-6.139.249z" fill="#e2d2ca" transform="translate(-449.54 -904.107)"/><path d="m897.043 1146.536c.086-.359 1.007-1.4 1.36-.289s-.538 2.6-1.026 2.469-.553-1.263-.334-2.18z" fill="#eea886" transform="translate(-450.24 -869.591)"/><path d="m766.211 1156.314c3.176-.418 7.662-1.542 7.662-1.542l6.139-.249a59.776 59.776 0 0 1 7.853 2.241c.21.1.212 5.024.79 6.32l-1.839 3.881s-1.064 7.687-1.283 11.108c-.1 1.57 2.191 14.715 2.191 14.715a43.255 43.255 0 0 1 -6.64 1.186c-4.183.468-14.659-.167-14.725-.662s2.028-18.427 2.121-19.355c.142-1.427-.492-9-.492-9-.967-.752-9.462-4.694-11.779-6.749-.619-.549-3.23-3.1-3.982-3.978a71.318 71.318 0 0 1 -5.057-6.363c-.3-.328 2.862-2.047 3.149-2.143.251-.084 3.813 4.531 5.184 6.015a38.341 38.341 0 0 0 3.151 2.512s5.57 2.178 7.557 2.063z" fill="#ffc955" transform="translate(-327.343 -869.57)"/><path d="m933.09 1124.88s5.107.4.156 8.054z" fill="#16202e" transform="translate(-479.917 -852.466)"/><path d="m738.338 1121.519-.418-.639.772.1z" fill="#dfe1e8" transform="translate(-319.77 -849.184)"/><rect fill="#4ca1f4" height="15.82" rx="7.91" width="15.82" x="591.889" y="258.954"/><g fill="#d9d9d9" opacity=".69"><rect height="4.913" opacity=".72" rx="2.457" width="54.742" x="613.627" y="238.001"/><rect height="4.913" opacity=".72" rx="2.457" width="62.374" x="613.627" y="245.945"/></g><rect fill="#4ca1f4" height="15.82" rx="7.91" width="15.82" x="591.889" y="236.519"/><g fill="#d9d9d9" opacity=".69"><rect height="4.913" opacity=".72" rx="2.457" width="41.145" x="613.627" y="260.436"/><rect height="4.913" opacity=".72" rx="2.457" width="50.607" x="613.627" y="268.38"/></g><path d="m1725.75 1080.377-4.391-3.815a.864.864 0 1 1 1.132-1.3l3.1 2.692 4.413-4.938a.865.865 0 0 1 1.288 1.152z" fill="#fff" transform="translate(-1126.49 -809.689)"/><path d="m1743.044 949.434-.027-.348a3.082 3.082 0 0 1 .831-2.315 2.966 2.966 0 0 0 .937-1.834c0-.682-.429-1.138-1.272-1.15a2.372 2.372 0 0 0 -1.351.415l-.321-.843a3.509 3.509 0 0 1 1.915-.538 1.978 1.978 0 0 1 2.234 1.974 3.638 3.638 0 0 1 -1.15 2.333 2.654 2.654 0 0 0 -.764 1.974l.014.348zm-.294 1.873a.791.791 0 0 1 .8-.843.838.838 0 1 1 -.8.843z" fill="#fff" transform="translate(-1143.54 -703.076)"/></g></svg>