<svg height="295.537" viewBox="0 0 444.212 295.537" width="444.212" xmlns="http://www.w3.org/2000/svg" xmlns:xlink="http://www.w3.org/1999/xlink"><clipPath id="a"><path d="m482.748 633.865a28.386 28.386 0 1 1 40.142.375 28.382 28.382 0 0 1 -40.142-.375zm67 8.215a54.213 54.213 0 0 0 5.914-13.927l10.465-2.006.109-11.573.109-11.581-10.43-2.2a54.2 54.2 0 0 0 -5.651-14.036l5.978-8.811-8.112-8.263-8.108-8.263-8.921 5.814a54.252 54.252 0 0 0 -13.926-5.913l-2.006-10.465-23.154-.217-2.2 10.43a54.114 54.114 0 0 0 -14.035 5.65l-8.812-5.978-8.263 8.109-8.263 8.113 5.814 8.92a54.225 54.225 0 0 0 -5.913 13.926l-10.468 2.007-.106 11.577-.109 11.577 10.426 2.2a54.324 54.324 0 0 0 5.654 14.036l-5.977 8.811 16.218 16.526 8.923-5.814a54.26 54.26 0 0 0 13.927 5.914l2 10.467 11.581.106 11.577.109 2.2-10.43a54.181 54.181 0 0 0 14.032-5.65l8.811 5.977 8.267-8.109 8.263-8.113zm0 0" transform="translate(-439.664 -550.641)"/></clipPath><clipPath id="b"><path d="m169.836 532.932a21.2 21.2 0 1 1 29.85-2.788 21.2 21.2 0 0 1 -29.85 2.788zm50.4.984a40.442 40.442 0 0 0 3.326-10.795l7.622-2.289-.8-8.606-.8-8.61-7.913-.836a40.44 40.44 0 0 0 -5.269-9.994l3.769-7-6.657-5.52-6.654-5.516-6.183 5a40.408 40.408 0 0 0 -10.795-3.327l-2.292-7.623-8.61.8-8.609.8-.836 7.913a40.441 40.441 0 0 0 -9.994 5.269l-7-3.769-5.523 6.657-5.516 6.654 5 6.183a40.5 40.5 0 0 0 -3.327 10.8l-7.622 2.288.8 8.609.8 8.606 7.913.84a40.436 40.436 0 0 0 5.269 9.993l-3.77 7 6.658 5.519 6.654 5.52 6.183-5a40.438 40.438 0 0 0 10.8 3.331l2.292 7.622 8.606-.8 8.609-.8.837-7.914a40.41 40.41 0 0 0 9.993-5.273l7 3.769 11.038-13.317-5-6.186" transform="translate(-135.551 -468.797)"/></clipPath><clipPath id="c"><path d="m83.418 653.785h4.582v4h-4.58zm0 0" transform="translate(-83.418 -653.785)"/></clipPath><clipPath id="d"><path d="m88 653.785h4.1v4h-4.1zm0 0" transform="translate(-88 -653.785)"/></clipPath><clipPath id="e"><path d="m92 653.785h4.923v4h-4.923zm0 0" transform="translate(-92 -653.785)"/></clipPath><clipPath id="f"><path d="m97 653.785h4.923v4h-4.923zm0 0" transform="translate(-97 -653.785)"/></clipPath><clipPath id="g"><path d="m102 653.785h4.923v4h-4.923zm0 0" transform="translate(-102 -653.785)"/></clipPath><clipPath id="h"><path d="m107 653.785h4.1v4h-4.1zm0 0" transform="translate(-107 -653.785)"/></clipPath><clipPath id="i"><path d="m111 653.785h4.923v4h-4.923zm0 0" transform="translate(-111 -653.785)"/></clipPath><clipPath id="j"><path d="m116 653.785h4.923v4h-4.923zm0 0" transform="translate(-116 -653.785)"/></clipPath><clipPath id="k"><path d="m121 653.785h4.923v4h-4.923zm0 0" transform="translate(-121 -653.785)"/></clipPath><clipPath id="l"><path d="m126 653.785h4.1v4h-4.1zm0 0" transform="translate(-126 -653.785)"/></clipPath><clipPath id="m"><path d="m130 653.785h4.923v4h-4.923zm0 0" transform="translate(-130 -653.785)"/></clipPath><clipPath id="n"><path d="m135 653.785h4.923v4h-4.923zm0 0" transform="translate(-135 -653.785)"/></clipPath><clipPath id="o"><path d="m140 653.785h4.923v4h-4.923zm0 0" transform="translate(-140 -653.785)"/></clipPath><clipPath id="p"><path d="m145 653.785h4.1v4h-4.1zm0 0" transform="translate(-145 -653.785)"/></clipPath><clipPath id="q"><path d="m149 653.785h4.923v4h-4.923zm0 0" transform="translate(-149 -653.785)"/></clipPath><clipPath id="r"><path d="m154 653.785h4.923v4h-4.923zm0 0" transform="translate(-154 -653.785)"/></clipPath><clipPath id="s"><path d="m159 653.785h4.923v4h-4.923zm0 0" transform="translate(-159 -653.785)"/></clipPath><clipPath id="t"><path d="m164 653.785h4.1v4h-4.1zm0 0" transform="translate(-164 -653.785)"/></clipPath><clipPath id="u"><path d="m168 653.785h4.923v4h-4.923zm0 0" transform="translate(-168 -653.785)"/></clipPath><clipPath id="v"><path d="m173 653.785h4.923v4h-4.923zm0 0" transform="translate(-173 -653.785)"/></clipPath><clipPath id="w"><path d="m178 653.785h4.1v4h-4.1zm0 0" transform="translate(-178 -653.785)"/></clipPath><clipPath id="x"><path d="m182 653.785h4.923v4h-4.923zm0 0" transform="translate(-182 -653.785)"/></clipPath><clipPath id="y"><path d="m187 653.785h4.923v4h-4.923zm0 0" transform="translate(-187 -653.785)"/></clipPath><clipPath id="z"><path d="m192 653.785h4.923v4h-4.923zm0 0" transform="translate(-192 -653.785)"/></clipPath><clipPath id="A"><path d="m197 653.785h4.1v4h-4.1zm0 0" transform="translate(-197 -653.785)"/></clipPath><clipPath id="B"><path d="m201 653.785h4.923v4h-4.923zm0 0" transform="translate(-201 -653.785)"/></clipPath><clipPath id="C"><path d="m206 653.785h4.923v4h-4.923zm0 0" transform="translate(-206 -653.785)"/></clipPath><clipPath id="D"><path d="m211 653.785h4.923v4h-4.923zm0 0" transform="translate(-211 -653.785)"/></clipPath><clipPath id="E"><path d="m216 653.785h4.1v4h-4.1zm0 0" transform="translate(-216 -653.785)"/></clipPath><clipPath id="F"><path d="m220 653.785h4.923v4h-4.923zm0 0" transform="translate(-220 -653.785)"/></clipPath><clipPath id="G"><path d="m225 653.785h4.923v4h-4.923zm0 0" transform="translate(-225 -653.785)"/></clipPath><clipPath id="H"><path d="m230 653.785h4.923v4h-4.923zm0 0" transform="translate(-230 -653.785)"/></clipPath><clipPath id="I"><path d="m235 653.785h4.1v4h-4.1zm0 0" transform="translate(-235 -653.785)"/></clipPath><clipPath id="J"><path d="m239 653.785h4.923v4h-4.923zm0 0" transform="translate(-239 -653.785)"/></clipPath><clipPath id="K"><path d="m244 653.785h4.923v4h-4.923zm0 0" transform="translate(-244 -653.785)"/></clipPath><clipPath id="L"><path d="m249 653.785h4.923v4h-4.923zm0 0" transform="translate(-249 -653.785)"/></clipPath><clipPath id="M"><path d="m254 653.785h4.1v4h-4.1zm0 0" transform="translate(-254 -653.785)"/></clipPath><clipPath id="N"><path d="m258 653.785h4.923v4h-4.923zm0 0" transform="translate(-258 -653.785)"/></clipPath><clipPath id="O"><path d="m263 653.785h4.923v4h-4.923zm0 0" transform="translate(-263 -653.785)"/></clipPath><clipPath id="P"><path d="m268 653.785h4.923v4h-4.923zm0 0" transform="translate(-268 -653.785)"/></clipPath><clipPath id="Q"><path d="m273 653.785h4.1v4h-4.1zm0 0" transform="translate(-273 -653.785)"/></clipPath><clipPath id="R"><path d="m277 653.785h4.923v4h-4.923zm0 0" transform="translate(-277 -653.785)"/></clipPath><clipPath id="S"><path d="m282 653.785h4.923v4h-4.923zm0 0" transform="translate(-282 -653.785)"/></clipPath><clipPath id="T"><path d="m287 653.785h4.1v4h-4.1zm0 0" transform="translate(-287 -653.785)"/></clipPath><clipPath id="U"><path d="m291 653.785h4.923v4h-4.923zm0 0" transform="translate(-291 -653.785)"/></clipPath><clipPath id="V"><path d="m296 653.785h4.923v4h-4.923zm0 0" transform="translate(-296 -653.785)"/></clipPath><clipPath id="W"><path d="m301 653.785h4.923v4h-4.923zm0 0" transform="translate(-301 -653.785)"/></clipPath><clipPath id="X"><path d="m306 653.785h4.1v4h-4.1zm0 0" transform="translate(-306 -653.785)"/></clipPath><clipPath id="Y"><path d="m310 653.785h4.923v4h-4.923zm0 0" transform="translate(-310 -653.785)"/></clipPath><clipPath id="Z"><path d="m315 653.785h4.923v4h-4.923zm0 0" transform="translate(-315 -653.785)"/></clipPath><clipPath id="aa"><path d="m320 653.785h4.923v4h-4.923zm0 0" transform="translate(-320 -653.785)"/></clipPath><clipPath id="ab"><path d="m325 653.785h4.1v4h-4.1zm0 0" transform="translate(-325 -653.785)"/></clipPath><clipPath id="ac"><path d="m329 653.785h4.923v4h-4.923zm0 0" transform="translate(-329 -653.785)"/></clipPath><clipPath id="ad"><path d="m334 653.785h4.923v4h-4.923zm0 0" transform="translate(-334 -653.785)"/></clipPath><clipPath id="ae"><path d="m339 653.785h4.923v4h-4.923zm0 0" transform="translate(-339 -653.785)"/></clipPath><clipPath id="af"><path d="m344 653.785h4.1v4h-4.1zm0 0" transform="translate(-344 -653.785)"/></clipPath><clipPath id="ag"><path d="m348 653.785h4.923v4h-4.923zm0 0" transform="translate(-348 -653.785)"/></clipPath><clipPath id="ah"><path d="m353 653.785h4.923v4h-4.923zm0 0" transform="translate(-353 -653.785)"/></clipPath><clipPath id="ai"><path d="m358 653.785h4.923v4h-4.923zm0 0" transform="translate(-358 -653.785)"/></clipPath><clipPath id="aj"><path d="m363 653.785h4.1v4h-4.1zm0 0" transform="translate(-363 -653.785)"/></clipPath><clipPath id="ak"><path d="m367 653.785h4.923v4h-4.923zm0 0" transform="translate(-367 -653.785)"/></clipPath><clipPath id="al"><path d="m372 653.785h4.923v4h-4.923zm0 0" transform="translate(-372 -653.785)"/></clipPath><clipPath id="am"><path d="m377 653.785h4.923v4h-4.923zm0 0" transform="translate(-377 -653.785)"/></clipPath><clipPath id="an"><path d="m382 653.785h4.1v4h-4.1zm0 0" transform="translate(-382 -653.785)"/></clipPath><clipPath id="ao"><path d="m386 653.785h4.545v4h-4.545zm0 0" transform="translate(-386 -653.785)"/></clipPath><clipPath id="ap"><path d="m346 681h.82v4.923h-.82zm0 0" transform="translate(-346 -681)"/></clipPath><clipPath id="aq"><path d="m349.082 685.521.439-.208-1.987-4.211-1.112.525 1.678 3.573a.683.683 0 0 0 .982.321zm0 0" transform="translate(-346.422 -681.102)"/></clipPath><clipPath id="ar"><path d="m346 681h1.641v4.923h-1.641zm0 0" transform="translate(-346 -681)"/></clipPath><clipPath id="as"><path d="m347 681h.821v4.923h-.821zm0 0" transform="translate(-347 -681)"/></clipPath><clipPath id="at"><path d="m347 681h1.641v4.923h-1.641zm0 0" transform="translate(-347 -681)"/></clipPath><clipPath id="au"><path d="m348 681h.82v4.923h-.82zm0 0" transform="translate(-348 -681)"/></clipPath><clipPath id="av"><path d="m348 681h1.641v4.923h-1.641zm0 0" transform="translate(-348 -681)"/></clipPath><clipPath id="aw"><path d="m349 681h.82v4.923h-.82zm0 0" transform="translate(-349 -681)"/></clipPath><clipPath id="ax"><path d="m349 681h1.641v4.923h-1.641zm0 0" transform="translate(-349 -681)"/></clipPath><clipPath id="ay"><path d="m350 681h.821v4.923h-.821zm0 0" transform="translate(-350 -681)"/></clipPath><clipPath id="az"><path d="m343 676h.82v5.744h-.82zm0 0" transform="translate(-343 -676)"/></clipPath><clipPath id="aA"><path d="m344.488 681.258 4.378-.817-.712-3.593-4.346.99zm0 0" transform="translate(-343.809 -676.848)"/></clipPath><clipPath id="aB"><path d="m343 676h1.641v5.744h-1.641zm0 0" transform="translate(-343 -676)"/></clipPath><clipPath id="aC"><path d="m344 676h.82v5.744h-.82zm0 0" transform="translate(-344 -676)"/></clipPath><clipPath id="aD"><path d="m344 676h1.641v5.744h-1.641zm0 0" transform="translate(-344 -676)"/></clipPath><clipPath id="aE"><path d="m345 676h.821v5.744h-.821zm0 0" transform="translate(-345 -676)"/></clipPath><clipPath id="aF"><path d="m345 676h1.641v5.744h-1.641zm0 0" transform="translate(-345 -676)"/></clipPath><clipPath id="aG"><path d="m346 676h.82v5.744h-.82zm0 0" transform="translate(-346 -676)"/></clipPath><clipPath id="aH"><path d="m346 676h1.641v5.744h-1.641zm0 0" transform="translate(-346 -676)"/></clipPath><clipPath id="aI"><path d="m347 676h.821v5.744h-.821zm0 0" transform="translate(-347 -676)"/></clipPath><clipPath id="aJ"><path d="m347 676h1.641v5.744h-1.641zm0 0" transform="translate(-347 -676)"/></clipPath><clipPath id="aK"><path d="m348 676h.82v5.744h-.82zm0 0" transform="translate(-348 -676)"/></clipPath><clipPath id="aL"><path d="m348 676h1.641v5.744h-1.641zm0 0" transform="translate(-348 -676)"/></clipPath><clipPath id="aM"><path d="m349 676h.82v5.744h-.82zm0 0" transform="translate(-349 -676)"/></clipPath><g clip-path="url(#a)" transform="translate(317.528 121.472)"><path d="m439.664 550.641v126.683h126.684v-126.683zm0 0" fill="#2f8e84" transform="translate(-439.664 -550.641)"/></g><g clip-path="url(#b)" transform="translate(67.997 54.318)"><path d="m123.7 467.667 10.722 104.36 104.363-10.721-10.721-104.36zm0 0" fill="#2f8e84" transform="translate(-133.424 -466.67)"/></g><path d="m494.884 713.99h-.724v-51.58a20.839 20.839 0 0 0 -20.818-20.818h-53.07a21.562 21.562 0 0 1 -21.539-21.539v-96.42a20.839 20.839 0 0 0 -20.814-20.814h-135.325v-.725h135.325a21.565 21.565 0 0 1 21.539 21.539v96.42a20.837 20.837 0 0 0 20.814 20.815h53.07a21.564 21.564 0 0 1 21.542 21.542z" fill="#64a4ff" transform="translate(-86.766 -420.455)"/><path d="m278.56 462.273s8.193 32.616-11.471 41.533-15.9-7.411-15.9-7.411-8.067-2.24 13.885-14.686c10.343-5.865 13.484-19.437 13.484-19.437" fill="#bbd070" transform="translate(-88.049 -413.308)"/><path d="m331.07 465.742s4.032 28.43-33.183 40.718-42.517 27.879-42.517 27.879-1.115-63.01 75.7-68.6" fill="#97a43c" transform="translate(-89.059 -413.931)"/><path d="m254.6 529.5c-11.035-4.211 15.2-26.795 35.353-26.186s33.821 8.071 47.321 4.917c0 0-28.333 42.01-82.674 21.269" fill="#2f8e84" transform="translate(-88.451 -420.672)"/><path d="m188.029 585.41c.119-8.023 10.8-22.943 10.8-22.943a4.2 4.2 0 0 1 .5-.19c.006.007.551-.076.551-.071s1.661-1.57 1.671-1.57c.391 1.427 3.929 21.577 4.8 33.312-10.033-1.97-18.379-4.711-18.322-8.538zm89.524-36.228q.956-12.86 1.33-24.07c-2.071-1.1-4.555-2.379-6.545-3.321-6.16-2.933-14.741-6.882-20.247-9.411-3.224-1.481-6.381-2.561-6.381-2.561s-22.006-2.109-23.8-2a55.131 55.131 0 0 0 -6.924 2.365c-7.8 2.961-22.849 8.991-25.243 10.712-3.513 2.516-16.084 64.138-16.42 68.321-.323 4.064 17.1 9.629 33.234 13.888-.013 6.247-.138 15-.282 22.988-.019 1.365-.044 2.705-.071 4.007h70.6c-.1-1.372-.176-2.728-.246-4.007-.007-.17-.02-.336-.026-.5-.269-5.41-1.32-15.1-1.051-24.542 0 0-.173-9.949.814-14.23.112-18.914 1.254-37.639 1.254-37.639" fill="#dbd8e3" transform="translate(-74.333 -421.483)"/><path d="m295.47 626.828c-.464-3.343-.9-6.683-1.3-9.952 0-.02-.006-.029-.006-.048-.129-1.09-.257-2.163-.382-3.234-.007-.052-.01-.109-.016-.17-.516-4.5-.945-8.824-1.253-12.779a40.618 40.618 0 0 1 .394-8.891c1.228-20.232 1.84-41.559 1.84-41.559.644-8.73 1.016-16.891 1.263-24.493 0 0-27.635-13.061-30.142-13.808 0 0 5.244 12.308 9.173 39.817 1.51 10.568 4.311 28.353 6.343 46.507 1.1 9.8 3.161 19.776 4.728 28.607q.361 2.048.679 4.007h9.25c-.2-1.333-.385-2.67-.571-4.007" fill="#323657" transform="translate(-90.943 -422.215)"/><path d="m198.64 578.375c-.243-9.206-.2-15.629-.2-15.629.914 3.154 2.174 12.167 3.282 21.125-3.735-1.881-3.034-3.637-3.082-5.496zm33.244 15.477c1.09-10.228 2.071-20.436 1.6-26.029-3.811-44.965-14.6-56.869-16.16-58.613-1.209.461-5.811 2.189-7.161 2.724-7.375 2.907-22.407 8.234-24.436 9.693-3.513 2.512-17.365 67.116-17.782 71.292-.279 2.824 17.8 8.725 36.241 13.994-.17 5.055.308 12.19-1.372 19.638a17.3 17.3 0 0 0 -.8 3.9l25.712-.1c.153-1.331.317-2.664.481-4.007.49-4.016 1-8.131 1.509-12.506 7.712 1.993 12.953 3.282 12.953 3.282s7.244-12.244 9.342-17.2c.359-.847-8.962-3.087-20.128-6.068" fill="#323657" transform="translate(-73.367 -421.733)"/><path d="m231.137 504.073s2.8-5.292 2.025-20.308c-.214-4.161 21.853 9.868 21.853 9.868s-.076 1.433-.125 3.366c-.025.807-.039 1.689-.039 2.6v.753c0 .41.007.814.013 1.221.012.506.032 1 .054 1.474.025.542.061 1.051.116 1.519a13.746 13.746 0 0 0 .814 2.949c1.013 2.334-16.455 2.468-24.715-3.439" fill="#ab6a4a" transform="translate(-84.709 -417.028)"/><path d="m253.127 520.32 4.067 5.465s-2.385 3.189-6.616.834l2.549-6.3" fill="#e8734d" transform="translate(-88.199 -423.727)"/><path d="m256.577 527.218s14.9 36.392 11.721 82.613l-4.7 8.529-5.3-7.262s-.852-61.389-5.083-84.024z" fill="#e8734d" transform="translate(-88.672 -424.939)"/><path d="m256.017 513.773-4.352 5.093s-6.991-1.352-9.042-5 13.394-.09 13.394-.09" fill="#ab6a4a" transform="translate(-86.737 -422.272)"/><path d="m259.036 508.68s-.506 3.884-5.352 9.551l5.292 7.109 2.862-14.746-2.8-1.914" fill="#c4c1cc" transform="translate(-88.756 -421.638)"/><path d="m232.267 502.988s10.1 11.43 17.17 14.221l-3.285 8.129-16.129-17.789z" fill="#c4c1cc" transform="translate(-84.509 -420.616)"/><path d="m345.759 610.622s-13.413-13.007-22.212-15.17c-4.064-1-9.42-6.616-14.509-13.215-1.68-2.173-3.324-4.452-4.891-6.712a.008.008 0 0 1 0-.006c-6.244-9.02-11.138-17.661-11.138-17.661s-18.459-21.628-3.648-31.272c0 0 6.349-.138 9.831 1.753 3.58 1.945 11.218 17.882 12.513 20.705s15.321 29.032 16.259 29.622a38.923 38.923 0 0 0 8.119 5.766c6.869 3.7 17.663 14.526 17.663 14.526l-7.984 11.664" fill="#323657" transform="translate(-94.126 -424.851)"/><g fill="#ab6a4a"><path d="m276.965 642.4a8.427 8.427 0 0 1 -2.677-.51s-1.4-.9-2.436-1.474a7.325 7.325 0 0 0 -.817-.414 15.708 15.708 0 0 1 -4.506-2.147c-1.763-1.343-7.513-6.725-7.513-6.725l3.718-5.712 1.715-5.657s13.4 1.333 15.192 2.4a5.067 5.067 0 0 1 .494.327c1.426 1.048 2.048 2.426 2.734 3.061.25.234 2.583 2.734 2.455 3.746a3.337 3.337 0 0 1 -1.75 2.737s-.471 2.74-1.887 3.965a4.958 4.958 0 0 1 -2.552 3.561s-.647 2.538-2.169 2.843" transform="translate(-89.713 -441.575)"/><path d="m250.241 436.622s24.228-5.84 19.125 24.833-10.917 33.167-25.676 27.052-13.735-25.737-14.613-35.34 13.414-16.1 21.164-16.545" transform="translate(-84.333 -408.625)"/><path d="m238.026 462.1c-.359-2.7-5.708-3.605-6.08.446s2.59 11.116 4.6 10.389 1.974-7.119 1.477-10.834" transform="translate(-84.849 -412.863)"/></g><path d="m230.071 467.291s.483-9.648 4-10 4.115 3.519 4.115 3.519l3.568.621s-1.254-8.431 2.246-9.96 22.847 4.318 25.631 1.794 1.205-19.638-3.933-21.91-19.308-7.317-29.532-.176c0 0-8.064-.8-9.164 5.715s.811 25.6 3.071 30.4" fill="#16202e" transform="translate(-83.91 -407.067)"/><path d="m261.869 617.969-10 17.2s-26.5-6.828-32.686-8.574l14.134-16.823s20.844 4.762 28.555 8.2" fill="#323657" transform="translate(-82.563 -439.781)"/><path d="m256.18 504.952a23.17 23.17 0 0 1 -18.032-11.331 26.865 26.865 0 0 0 17.964 7.882v.753c0 .41.006.814.013 1.221.012.506.032 1 .054 1.475" fill="#8f563a" transform="translate(-85.967 -418.935)"/><path d="m475.137 698.053a2.885 2.885 0 0 1 -.853.173c-.065 0-.132.006-.2.006a3.061 3.061 0 0 1 -.807-.125 2.95 2.95 0 0 1 -.968-.5 2.812 2.812 0 0 1 -.295-.262 2.952 2.952 0 0 1 -.853-2.119 2.853 2.853 0 0 1 .074-.625 2.9 2.9 0 0 1 .08-.288 2.965 2.965 0 1 1 3.821 3.737zm2.147-5.163a3.954 3.954 0 1 0 -3.522 6.315c.1.009.208.016.311.016h.2.071a3.954 3.954 0 0 0 2.946-6.327" fill="#4da8f2" transform="translate(-127.611 -454.417)"/><path d="m294.129 599.422c15.061 15.5 34.962 35.029 34.962 35.029l7.779-14.769s-17.676-20.721-29.661-34.545c-3.669 1.8-10.413 6.1-13.08 14.285" fill="#eea886" transform="translate(-96.015 -435.36)"/><path d="m282.384 627.953a44.25 44.25 0 0 1 5.113 2.83c1.061.876 5.349 4.087 6.391 4.844s-1.57 2.9-9.241-.417-2.263-7.257-2.263-7.257" fill="#eea886" transform="translate(-93.575 -443.045)"/><g fill="#ffc955"><path d="m281.676 573.867-7.071 65.712h93.026l7.071-65.712z" transform="translate(-92.511 -433.337)"/><path d="m281 635h92.3l6.991-64.984h-92.3zm92.946.728h-93.755l7.144-66.44h93.758l-7.148 66.44" transform="translate(-93.514 -432.515)"/><path d="m265.586 646.746h15.536v5.914h-15.536z" transform="translate(-90.892 -446.418)"/></g><g clip-path="url(#c)" transform="translate(25.221 206.104)"><path d="m87.306 653.785v4h-3.888v-4z" fill="#96cbff" transform="translate(-83.418 -653.785)"/></g><g clip-path="url(#d)" transform="translate(28.981 206.104)"><path d="m92.047 653.785v4h-3.891v-4z" fill="#95caff" transform="translate(-88.028 -653.785)"/></g><g clip-path="url(#e)" transform="translate(32.263 206.104)"><path d="m96.789 653.785v4h-3.889v-4h3.891" fill="#94c9ff" transform="translate(-92.161 -653.785)"/></g><g clip-path="url(#f)" transform="translate(36.366 206.104)"><path d="m101.529 653.785v4h-3.888v-4z" fill="#93c9ff" transform="translate(-97.115 -653.785)"/></g><g clip-path="url(#g)" transform="translate(40.468 206.104)"><path d="m106.267 653.785v4h-3.888v-4z" fill="#92c8ff" transform="translate(-102.068 -653.785)"/></g><g clip-path="url(#h)" transform="translate(44.571 206.104)"><path d="m111.008 653.785v4h-3.891v-4z" fill="#91c7ff" transform="translate(-107.021 -653.785)"/></g><g clip-path="url(#i)" transform="translate(47.853 206.104)"><path d="m115.751 653.785v4h-3.892v-4z" fill="#90c6ff" transform="translate(-111.154 -653.785)"/></g><g clip-path="url(#j)" transform="translate(51.956 206.104)"><path d="m120.49 653.785v4h-3.89v-4h3.888" fill="#8fc6ff" transform="translate(-116.108 -653.785)"/></g><g clip-path="url(#k)" transform="translate(56.058 206.104)"><path d="m125.231 653.785v4h-3.891v-4z" fill="#8ec5ff" transform="translate(-121.061 -653.785)"/></g><g clip-path="url(#l)" transform="translate(60.161 206.104)"><path d="m129.97 653.785v4h-3.888v-4z" fill="#8dc4ff" transform="translate(-126.015 -653.785)"/></g><g clip-path="url(#m)" transform="translate(63.443 206.104)"><path d="m134.712 653.785v4h-3.892v-4z" fill="#8cc3ff" transform="translate(-130.147 -653.785)"/></g><g clip-path="url(#n)" transform="translate(67.545 206.104)"><path d="m139.451 653.785v4h-3.888v-4z" fill="#8bc2ff" transform="translate(-135.101 -653.785)"/></g><g clip-path="url(#o)" transform="translate(71.648 206.104)"><path d="m144.192 653.785v4h-3.892v-4h3.891" fill="#8ac2ff" transform="translate(-140.054 -653.785)"/></g><g clip-path="url(#p)" transform="translate(75.751 206.104)"><path d="m148.931 653.785v4h-3.888v-4z" fill="#89c1ff" transform="translate(-145.008 -653.785)"/></g><g clip-path="url(#q)" transform="translate(79.033 206.104)"><path d="m153.672 653.785v4h-3.891v-4z" fill="#88c0ff" transform="translate(-149.14 -653.785)"/></g><g clip-path="url(#r)" transform="translate(83.135 206.104)"><path d="m158.411 653.785v4h-3.888v-4z" fill="#87bfff" transform="translate(-154.094 -653.785)"/></g><g clip-path="url(#s)" transform="translate(87.238 206.104)"><path d="m163.153 653.785v4h-3.891v-4z" fill="#86bfff" transform="translate(-159.047 -653.785)"/></g><g clip-path="url(#t)" transform="translate(91.34 206.104)"><path d="m167.892 653.785v4h-3.892v-4h3.888" fill="#85beff" transform="translate(-164.001 -653.785)"/></g><g clip-path="url(#u)" transform="translate(94.623 206.104)"><path d="m172.633 653.785v4h-3.891v-4z" fill="#84bdff" transform="translate(-168.133 -653.785)"/></g><g clip-path="url(#v)" transform="translate(98.725 206.104)"><path d="m177.376 653.785v4h-3.892v-4z" fill="#83bcff" transform="translate(-173.087 -653.785)"/></g><g clip-path="url(#w)" transform="translate(102.828 206.104)"><path d="m182.115 653.785v4h-3.888v-4z" fill="#82bbff" transform="translate(-178.041 -653.785)"/></g><g clip-path="url(#x)" transform="translate(106.11 206.104)"><path d="m186.853 653.785v4h-3.888v-4z" fill="#81bbff" transform="translate(-182.173 -653.785)"/></g><g clip-path="url(#y)" transform="translate(110.212 206.104)"><path d="m191.594 653.785v4h-3.894v-4h3.891" fill="#80baff" transform="translate(-187.126 -653.785)"/></g><g clip-path="url(#z)" transform="translate(114.315 206.104)"><path d="m196.337 653.785v4h-3.892v-4z" fill="#7fb9ff" transform="translate(-192.08 -653.785)"/></g><g clip-path="url(#A)" transform="translate(118.418 206.104)"><path d="m201.076 653.785v4h-3.888v-4z" fill="#7eb8ff" transform="translate(-197.034 -653.785)"/></g><g clip-path="url(#B)" transform="translate(121.7 206.104)"><path d="m205.814 653.785v4h-3.888v-4z" fill="#7db7ff" transform="translate(-201.166 -653.785)"/></g><g clip-path="url(#C)" transform="translate(125.802 206.104)"><path d="m210.555 653.785v4h-3.891v-4z" fill="#7cb7ff" transform="translate(-206.119 -653.785)"/></g><g clip-path="url(#D)" transform="translate(129.905 206.104)"><path d="m215.294 653.785v4h-3.888v-4z" fill="#7bb6ff" transform="translate(-211.073 -653.785)"/></g><g clip-path="url(#E)" transform="translate(134.007 206.104)"><path d="m220.036 653.785v4h-3.891v-4z" fill="#7ab5ff" transform="translate(-216.026 -653.785)"/></g><g clip-path="url(#F)" transform="translate(137.29 206.104)"><path d="m224.778 653.785v4h-3.891v-4z" fill="#79b4ff" transform="translate(-220.159 -653.785)"/></g><g clip-path="url(#G)" transform="translate(141.392 206.104)"><path d="m229.517 653.785v4h-3.888v-4z" fill="#78b4ff" transform="translate(-225.113 -653.785)"/></g><g clip-path="url(#H)" transform="translate(145.495 206.104)"><path d="m234.258 653.785v4h-3.891v-4z" fill="#77b3ff" transform="translate(-230.066 -653.785)"/></g><g clip-path="url(#I)" transform="translate(149.597 206.104)"><path d="m239 653.785v4h-3.888v-4z" fill="#76b2ff" transform="translate(-235.02 -653.785)"/></g><g clip-path="url(#J)" transform="translate(152.879 206.104)"><path d="m243.739 653.785v4h-3.891v-4z" fill="#74b1ff" transform="translate(-239.152 -653.785)"/></g><g clip-path="url(#K)" transform="translate(156.982 206.104)"><path d="m248.478 653.785v4h-3.888v-4z" fill="#73b0ff" transform="translate(-244.106 -653.785)"/></g><g clip-path="url(#L)" transform="translate(161.085 206.104)"><path d="m253.219 653.785v4h-3.891v-4z" fill="#72b0ff" transform="translate(-249.059 -653.785)"/></g><g clip-path="url(#M)" transform="translate(165.187 206.104)"><path d="m257.958 653.785v4h-3.888v-4z" fill="#71afff" transform="translate(-254.013 -653.785)"/></g><g clip-path="url(#N)" transform="translate(168.469 206.104)"><path d="m262.7 653.785v4h-3.891v-4z" fill="#70aeff" transform="translate(-258.145 -653.785)"/></g><g clip-path="url(#O)" transform="translate(172.572 206.104)"><path d="m267.439 653.785v4h-3.888v-4z" fill="#6fadff" transform="translate(-263.099 -653.785)"/></g><g clip-path="url(#P)" transform="translate(176.674 206.104)"><path d="m272.18 653.785v4h-3.891v-4z" fill="#6eadff" transform="translate(-268.052 -653.785)"/></g><g clip-path="url(#Q)" transform="translate(180.777 206.104)"><path d="m276.919 653.785v4h-3.888v-4z" fill="#6dacff" transform="translate(-273.006 -653.785)"/></g><g clip-path="url(#R)" transform="translate(184.059 206.104)"><path d="m281.661 653.785v4h-3.891v-4z" fill="#6cabff" transform="translate(-277.138 -653.785)"/></g><g clip-path="url(#S)" transform="translate(188.162 206.104)"><path d="m286.4 653.785v4h-3.891v-4z" fill="#6baaff" transform="translate(-282.092 -653.785)"/></g><g clip-path="url(#T)" transform="translate(192.264 206.104)"><path d="m291.142 653.785v4h-3.888v-4z" fill="#6aa9ff" transform="translate(-287.046 -653.785)"/></g><g clip-path="url(#U)" transform="translate(195.546 206.104)"><path d="m295.88 653.785v4h-3.888v-4z" fill="#69a9ff" transform="translate(-291.178 -653.785)"/></g><g clip-path="url(#V)" transform="translate(199.649 206.104)"><path d="m300.622 653.785v4h-3.892v-4z" fill="#68a8ff" transform="translate(-296.131 -653.785)"/></g><g clip-path="url(#W)" transform="translate(203.752 206.104)"><path d="m305.364 653.785v4h-3.891v-4z" fill="#67a7ff" transform="translate(-301.085 -653.785)"/></g><g clip-path="url(#X)" transform="translate(207.854 206.104)"><path d="m310.1 653.785v4h-3.888v-4z" fill="#66a6ff" transform="translate(-306.039 -653.785)"/></g><g clip-path="url(#Y)" transform="translate(211.136 206.104)"><path d="m314.841 653.785v4h-3.888v-4z" fill="#65a6ff" transform="translate(-310.171 -653.785)"/></g><g clip-path="url(#Z)" transform="translate(215.239 206.104)"><path d="m319.583 653.785v4h-3.892v-4z" fill="#64a5ff" transform="translate(-315.124 -653.785)"/></g><g clip-path="url(#aa)" transform="translate(219.341 206.104)"><path d="m324.325 653.785v4h-3.891v-4z" fill="#63a4ff" transform="translate(-320.078 -653.785)"/></g><g clip-path="url(#ab)" transform="translate(223.444 206.104)"><path d="m329.064 653.785v4h-3.888v-4z" fill="#62a3ff" transform="translate(-325.032 -653.785)"/></g><g clip-path="url(#ac)" transform="translate(226.726 206.104)"><path d="m333.8 653.785v4h-3.891v-4z" fill="#61a2ff" transform="translate(-329.164 -653.785)"/></g><g clip-path="url(#ad)" transform="translate(230.829 206.104)"><path d="m338.544 653.785v4h-3.888v-4z" fill="#60a2ff" transform="translate(-334.118 -653.785)"/></g><g clip-path="url(#ae)" transform="translate(234.931 206.104)"><path d="m343.286 653.785v4h-3.891v-4z" fill="#5fa1ff" transform="translate(-339.071 -653.785)"/></g><g clip-path="url(#af)" transform="translate(239.034 206.104)"><path d="m348.025 653.785v4h-3.888v-4z" fill="#5ea0ff" transform="translate(-344.025 -653.785)"/></g><g clip-path="url(#ag)" transform="translate(242.316 206.104)"><path d="m352.766 653.785v4h-3.891v-4z" fill="#5d9fff" transform="translate(-348.157 -653.785)"/></g><g clip-path="url(#ah)" transform="translate(246.419 206.104)"><path d="m357.5 653.785v4h-3.888v-4z" fill="#5c9eff" transform="translate(-353.111 -653.785)"/></g><g clip-path="url(#ai)" transform="translate(250.521 206.104)"><path d="m362.247 653.785v4h-3.892v-4z" fill="#5b9eff" transform="translate(-358.064 -653.785)"/></g><g clip-path="url(#aj)" transform="translate(254.624 206.104)"><path d="m366.986 653.785v4h-3.886v-4h3.888" fill="#5a9dff" transform="translate(-363.018 -653.785)"/></g><g clip-path="url(#ak)" transform="translate(257.906 206.104)"><path d="m371.727 653.785v4h-3.891v-4z" fill="#599cff" transform="translate(-367.15 -653.785)"/></g><g clip-path="url(#al)" transform="translate(262.008 206.104)"><path d="m376.466 653.785v4h-3.888v-4z" fill="#589bff" transform="translate(-372.104 -653.785)"/></g><g clip-path="url(#am)" transform="translate(266.111 206.104)"><path d="m381.208 653.785v4h-3.892v-4z" fill="#579bff" transform="translate(-377.057 -653.785)"/></g><g clip-path="url(#an)" transform="translate(270.214 206.104)"><path d="m385.95 653.785v4h-3.891v-4z" fill="#569aff" transform="translate(-382.011 -653.785)"/></g><g clip-path="url(#ao)" transform="translate(273.496 206.104)"><path d="m390.689 653.785v4h-3.889v-4h3.888" fill="#59f" transform="translate(-386.144 -653.785)"/></g><path d="m531.914 761.905h-219.047v-4h219.047z" fill="#ffc955" transform="translate(-99.378 -466.368)"/><path d="m329.267 611.388c-.747 3.657.962 7.1 3.814 7.679s5.769-1.91 6.519-5.57-.958-7.1-3.81-7.679-5.772 1.91-6.522 5.57" fill="#cfa345" transform="translate(-102.29 -439.057)"/><path d="m544.757 580.491s2.144 3.637 3.052 4.231c1.231.807.459 1.622-.125 1.622s-3.568.214-4.225-.533-.984-2.981-1.593-3.564-1.244-2.91.294-3.474c1.362-.5 2.6 1.718 2.6 1.718" fill="#6069a8" transform="translate(-140.36 -434.205)"/><path d="m544.015 578.9s2.456 4.259 2.882 4.891-.8.628-1.554.326-2.661-3.353-2.937-3.911a2.063 2.063 0 0 1 -.057-1.423l1.667.116" fill="#202338" transform="translate(-140.547 -434.221)"/><path d="m541.367 581.727.568 4.365.3.013-.093-3.142-.776-1.237" fill="#6069a8" transform="translate(-140.39 -434.748)"/><path d="m518.822 580.494s2.144 3.637 3.051 4.231c1.227.807.459 1.622-.125 1.622s-3.568.214-4.224-.532-.985-2.981-1.6-3.564-1.263-2.971.3-3.474c1.368-.442 2.6 1.718 2.6 1.718" fill="#6069a8" transform="translate(-135.703 -434.208)"/><path d="m518.21 578.914s2.33 4.25 2.753 4.882-.8.628-1.554.326-2.66-3.353-2.932-3.911a2.047 2.047 0 0 1 -.061-1.423l1.794.125" fill="#202338" transform="translate(-135.893 -434.221)"/><path d="m515.434 581.727.567 4.365.3.013-.093-3.142-.775-1.237" fill="#6069a8" transform="translate(-135.735 -434.748)"/><path d="m508 539.872 19.42 8.846a3.736 3.736 0 0 1 2.411 3.112c.756 7.513 6.375 19.43 6.375 19.43 1.8.881 1.667.116 1.667.116-1.137-3.648-2.519-18.677-3.013-24.721-.105-1.279-.17-2.157-.182-2.436-.01-.192-.222-.442-.58-.734-2.663-2.16-13.629-6.632-13.629-6.632-8.231-.208-12.468 3.02-12.468 3.02" fill="#202338" transform="translate(-134.4 -426.692)"/><path d="m503.518 543.378c.6 5.25 8.093 4.647 8.093 4.647h9.084a56.83 56.83 0 0 0 -3.307 9.786c-.978 4.75-3.282 13.157-3.282 13.157s.15.285 1.794.125c0 0 7.129-14.2 9.856-17.779a24.137 24.137 0 0 0 2.561-7.426c.1-.84.035-1.488-.276-1.747a22.854 22.854 0 0 0 -2.006-1.372c-2.843-1.792-7.783-4.555-10.535-5.173-3.686-.827-9.516-2.381-9.516-2.381a10.046 10.046 0 0 0 -2.465 8.163" fill="#202338" transform="translate(-133.582 -426.4)"/><path d="m510.874 493.735a8.468 8.468 0 0 1 -.7-5.331c.663-2.746 3.212-5.483 6.946-4.227s6.75 4.158 4.513 7.509 2.025 4.869.939 6.465-.673 3.263-.215 3.632 1.946 1.7 1.782 3.263-7.243-4.568-7.243-4.568-3.856-7.747-6.026-6.743" fill="#464240" transform="translate(-134.759 -417.184)"/><path d="m521.642 535.81s-.565 2.731-15.068-.715c0 0 4.862-1.616 15.068.715" fill="#eb4747" transform="translate(-134.145 -426.281)"/><path d="m505.73 530.432c-.224.43-.449.856-.673 1.286q7.952.23 15.9.465c-.84-2.808-.568-6.612-.42-9.5.18-3.526 2.125-5.977 1.92-9.542 1.048.167 1.228.2 2.279.363-1.606-4.578-2.157-6.846-7.148-8.606a9.322 9.322 0 0 0 -4.449-.545c-5.782.478-7.522.545-10.362 5.782 4.442.708 3.712 2.3 5.061 6.724.657 2.154 1.343 4.561.99 6.834-.346 2.24-3.1 4.7-3.1 6.737" fill="#5f8cc9" transform="translate(-133.464 -420.851)"/><g fill="#eea886"><path d="m517.2 505.009c-2.366-.449-1.858-1.763-1.858-1.763s.108-.743.15-1.679c.013-.24.02-.494.016-.753a10.072 10.072 0 0 0 -.064-1.163c-.2-1.587 4.291-.642 4.291-.642s-.256 3.215.363 4.176-.532 2.27-2.9 1.824" transform="translate(-135.71 -419.852)"/><path d="m512.117 504.129s4.77 5.51 6.532 6.785c0 0 2.029-1.83.779-6.667 0 0-2.3-1.15-7.311-.118" transform="translate(-135.14 -420.744)"/><path d="m512.031 487.871s-2.477 4.773-.019 9.3 7.285-1.972 7.6-2.731 1.964-5.07-1.327-6.378-5.552-1.484-6.254-.186" transform="translate(-134.926 -417.743)"/></g><path d="m512.834 489.348a10.737 10.737 0 0 0 -1.907 3.9 8.878 8.878 0 0 1 1.241-6.138c1.92-3.006 6.8-.144 7.455 1.059s2.571 2.259-.647 7.422c0 0-5.792-4.022-6.142-6.24" fill="#464240" transform="translate(-134.905 -417.527)"/><path d="m517.643 499.977a4.654 4.654 0 0 1 -2.112 1.814c.013-.24.02-.494.016-.753a4.03 4.03 0 0 0 2.1-1.061" fill="#a77860" transform="translate(-135.753 -420.076)"/><path d="m486.51 530.873s-1.18.526-1.737.289a5.222 5.222 0 0 0 -1.7-.286c-.362 0-1.5-.407-1.483.039s1.853.757 2.228.894-1.122.965-1.263 1.33 1.551 2.766 2.5 2.083 1.468-2.051 1.664-2.138a6.651 6.651 0 0 0 .715-.471l-.93-1.74" fill="#eea886" transform="translate(-129.661 -425.591)"/><path d="m482.376 533.41a24.988 24.988 0 0 0 -2.808 2.6c-.041.311.1.455.372.254s2.737-2.135 2.737-2.135-2.766 3.27-2.859 3.51c-.054.14.212.439.365.342s3.1-3.173 3.1-3.173-2.581 3.058-2.593 3.285a.3.3 0 0 0 .506.2c.208-.212 2.772-2.91 2.772-2.91a15.342 15.342 0 0 0 -1.619 2.555c.064.128.286.391.708-.228s1.593-1.974 1.593-1.974l-2.276-2.327" fill="#eea886" transform="translate(-129.297 -426.076)"/><path d="m519.746 548.026h-8.135s-7.49.6-8.093-4.647a10.046 10.046 0 0 1 2.465-8.163s3.958 1.054 7.414 1.891a26.569 26.569 0 0 1 6.25-.546s14.651 4.84 14.209 7.388c0 0-6.128-3.275-14.109 4.077" fill="#ffc955" transform="translate(-133.582 -426.4)"/><path d="m516.859 539.7 15.507-.227-7.827 3.974zm0 0" fill="#5e5853" transform="translate(-135.991 -427.165)"/><path d="m520.988 537.019a13.268 13.268 0 0 1 -7.762.128l-.2-1.6 8.8.49-.84.978" fill="#5f8cc9" transform="translate(-135.302 -426.46)"/><path d="m524.539 543.5-7.68-2.974v-.772l8.286 2.987-.605.759" fill="#91887f" transform="translate(-135.991 -427.215)"/><path d="m522.37 532.159a.766.766 0 0 0 1.068.76l.9-.385a.633.633 0 0 0 .381-.689c-.375-2.346-1.179-11.477 0-13.041a5.736 5.736 0 0 0 .859-1.532c.776 2 1.74 4.58 2.125 5.964l7.327 9.747 2.455.622a82.778 82.778 0 0 0 -5.529-11.3c-.478-1.288-1.853-5.186-3.07-8.653-.77-2.192-1.475-4.215-1.856-5.3a2.5 2.5 0 0 0 -1.071-1.314c-1.135-.676-3.025-1.747-4.74-2.577l-.023-.009c-.054-.029-.1-.055-.163-.08 3.26 4.936 1.987 18.865 1.347 27.773v.019" fill="#eddad3" transform="translate(-136.739 -420.864)"/><path d="m503.969 504.689c-1.041.16-3.632 2.673-5.006 5.211-1.571 2.9-3.167 6.192-4.366 7.279-2.2 1.994-8.362 9.045-8.657 8.876a19.329 19.329 0 0 0 1.92 2.2c.116.052 10.128-8.628 11.09-9.949.913-1.253 3.353-6.512 4.081-6.4a39.017 39.017 0 0 1 1.785 4.856c.013.045.025.094.042.141a15.63 15.63 0 0 1 .212 6.481 22.106 22.106 0 0 1 -2.4 6.195.965.965 0 0 0 .032.751.544.544 0 0 0 .266.311l2.942 1.09.689.254a1.5 1.5 0 0 0 2.016-1.214 89.386 89.386 0 0 1 2.141-12.1 18.323 18.323 0 0 0 -1.126-14.871 54.589 54.589 0 0 0 -5.661.885" fill="#eddad3" transform="translate(-130.441 -420.763)"/><path d="m526.219 541.565 4.612-12.592 14.869.244-4.4 11.6-15.084.747" fill="#6e6760" transform="translate(-137.671 -425.28)"/><path d="m537.579 535.5c-.452.907-.318 1.894.308 2.2s1.493-.17 1.949-1.077.314-1.895-.308-2.209-1.5.173-1.949 1.081" fill="#807066" transform="translate(-139.662 -426.241)"/><path d="m518.332 493.837a2.671 2.671 0 0 1 .071 2.76c-.878 1.278.225 2.535.414 3.888s-3.674 4.949.625 6.76 5.663-1.182 4.567-2.827a9.3 9.3 0 0 1 -1.965-5.33c-.1-2.349-.865-6.006-3.712-5.25" fill="#464240" transform="translate(-136.088 -418.955)"/><path d="m492.938 486.359h8.962v7.869l-1.369-1.369h-7.6v-6.5" fill="#ffcb55" transform="translate(-131.698 -417.631)"/><path d="m428.839 607.891s-19.539 18.593-10.039 33.07 13.952 1.8 13.952 1.8 6.43 1.942-3.112-15.911c-4.5-8.414-.8-18.955-.8-18.955" fill="#bbd070" transform="translate(-117.924 -439.444)"/><path d="m386.4 583.32s-14.923 17.542 5.032 41.834 16.862 37.132 16.862 37.132 27.779-42.235-21.895-78.966" fill="#97a43c" transform="translate(-111.614 -435.034)"/><path d="m409.6 659.614c9.286 1.875 1.772-25.125-12.154-33.359s-26.385-9.036-34.186-16.962c0 0 .609 41.071 46.34 50.321" fill="#48753a" transform="translate(-108.423 -439.696)"/><path d="m345.77 684.566s.426-1.054.5-1.215a2.783 2.783 0 0 1 .975-.673 3.173 3.173 0 0 1 1.368-.336.487.487 0 0 1 .3.279.916.916 0 0 1 .077.468.574.574 0 0 1 .205.516.491.491 0 0 1 .112.538.419.419 0 0 1 .116.445 3.741 3.741 0 0 0 -.535.4 7.919 7.919 0 0 1 -1.94.958s-.981.02-1.173-1.381" fill="#eea886" transform="translate(-105.284 -452.805)"/><path d="m347.594 684.352a2.836 2.836 0 0 1 -.067.733c-.076.16 1.158.523 1.158.523s-.395-1.25-1.09-1.256" fill="#cf8c6c" transform="translate(-105.598 -453.167)"/><path d="m319.492 752.03.542-1.682 2.283.368-.34 1.519z" fill="#3b3f66" transform="translate(-100.567 -465.012)"/><path d="m342.313 751.965.128.923 2.5-.417-.132-1.378-2.5.871" fill="#555c94" transform="translate(-104.663 -465.146)"/><path d="m332.806 718.938s-.365 2.006-.8 4.234c-.074.388-.15.782-.227 1.177-.417 2.147-.84 4.211-.994 4.638-.356.971-8.013 15-8.013 15s-3.131-.237-3.25-.637c0 0 6.421-15.237 6.385-15.792s.785-16.173.785-16.173 5.942 6.654 6.109 7.555" fill="#354c70" transform="translate(-100.574 -458.019)"/><path d="m337.862 709.941s3 15.34 3.25 16.516 1.394 16.891 1.394 16.891-.676 1.387-3.164.865c0 0-3.391-16.888-3.676-17.452-1.109-2.2-6.552-12.834-7.08-14.353a9.148 9.148 0 0 1 -.372-3.289s4.044-2.276 9.648.82" fill="#354c70" transform="translate(-102.129 -457.468)"/><path d="m338.111 685.782s1.315 3.276 1.644 3.18 4.106-4.532 4.106-4.532 1.728 2.157 1.5 2.4c-.32.343-4.782 7.76-5.4 7.625s-3.356-4.666-3.356-4.666-.153-3.417 1.506-4.01" fill="#deb135" transform="translate(-103.638 -453.181)"/><path d="m330.814 678.453a54.929 54.929 0 0 1 4.346 3.638c.939 1.035 3.535 5.317 3.349 6.606a93.72 93.72 0 0 0 -1.081 12.522c-.019 2.936.917 3.686.334 3.731-.67.052-9.244 3.157-10.513 3.536 0 0 .834-10.34 1.253-11.536s-1.346-13.7 2.311-18.5" fill="#f2c344" transform="translate(-101.96 -452.109)"/><path d="m356.483 672.434.763 3.852.766 3.852a20.956 20.956 0 0 0 -9.34-.385l-.336-1.7-.34-1.708a21.086 21.086 0 0 0 8.487-3.913" fill="#d9d0c4" transform="translate(-105.683 -451.028)"/><path d="m342.4 753.038s1.888-.365 1.955-.419.471-.8.759-.677.3 1.039.583 1.192 2.535 1.676 2.814 1.952 1.984.116 2.179.6.212 1.619-2.334 1.352-5.452.145-6-.153-.135-3.109.042-3.843" fill="#84bdff" transform="translate(-104.622 -465.296)"/><path d="m319.281 752.2s1.923-.058 2-.106.592-.715.859-.542.128 1.07.381 1.268 2.241 2.061 2.468 2.379 1.939.429 2.055.936-.048 1.634-2.519.961-5.4-.727-5.9-1.112.366-3.09.657-3.785" fill="#84bdff" transform="translate(-100.385 -465.224)"/><path d="m337.219 711.16s.23.936.6 1.138-1.721 2.2-1.721 2.2a17.786 17.786 0 0 1 -.824-2.038 13.1 13.1 0 0 1 1.946-1.3" fill="#eea987" transform="translate(-103.4 -457.979)"/><path d="m329.167 683.112s-2.445 11.632-2.645 12.824c-.192 1.128 7.171 11.888 7.171 11.888l2.445-1.449s-5.936-10.8-5.929-11.291 2.849-9.872 2.849-9.872a2.211 2.211 0 1 0 -3.891-2.1" fill="#ffd255" transform="translate(-101.828 -452.726)"/><path d="m338.608 712.141a40.039 40.039 0 0 1 .747 5.167c-.052 1.211-4.568-1.908-4.336-3.112l3.59-2.055" fill="#3c5780" transform="translate(-103.352 -458.155)"/><path d="m331.594 677.6s6.2 6.782 5.823 6.029c-1.365-2.68-2.314-3.132-2.294-3.632.012-.385.163-1.5.189-1.872.048-.709.1-1.289.1-1.289s-3.08-4.327-2.946-2.852a8.952 8.952 0 0 1 -.871 3.615" fill="#eea886" transform="translate(-102.739 -451.251)"/><path d="m337.44 668.461a15.821 15.821 0 0 1 .866 2.471 9.88 9.88 0 0 0 -.035 1.369 19.411 19.411 0 0 1 .487 2.058c-.071.395-.894.19-1.009.837s-.715 1.858-1.013 1.884c-.77.065-3.712-1.134-3.9-1.749s-1.257-4.052-1.587-4.7 5.182-4.23 5.686-3.2l.5 1.032" fill="#eea886" transform="translate(-102.675 -450.097)"/><path d="m329.645 669.833c-.391-1.7 1.565-1.907 1.565-1.907s1.272-1.484 4.313-1.308 2.581 4.151 2.581 4.151a11.216 11.216 0 0 0 -3.023-.084 14 14 0 0 0 -.009 2.115l-1.151-.1s.128-1.506-.423-1.577-.738 3.189-1.763 3.907a1.122 1.122 0 0 0 -.138-.456 12.982 12.982 0 0 1 -.8-1.663 18.456 18.456 0 0 1 -1.154-3.077" fill="#16202e" transform="translate(-102.38 -449.982)"/><path d="m334.905 672.411a.87.87 0 0 0 -1.436-.4c-.734.542.02 2.484.734 2.471s1.006-1.064.7-2.067" fill="#eea886" transform="translate(-103.022 -450.907)"/><path d="m332.983 676.441a2.236 2.236 0 0 0 .314.75 6.505 6.505 0 0 0 2.279 1.193l-.119 1.2s-2.609-1.006-2.475-3.148" fill="#c48a6f" transform="translate(-102.988 -451.747)"/><g clip-path="url(#ap)" transform="translate(240.675 228.434)"><g clip-path="url(#aq)" transform="translate(.346 .084)"><path d="m346.47 681.1v4.609h-.048v-4.609z" fill="#96cbff" transform="translate(-346.422 -681.102)"/><path d="m346.528 681.1v4.609h-.048v-4.609z" fill="#95caff" transform="translate(-346.432 -681.102)"/><path d="m346.587 681.1v4.609h-.048v-4.609z" fill="#94c9ff" transform="translate(-346.443 -681.102)"/><path d="m346.642 681.1v4.609h-.042v-4.609h.044" fill="#93c9ff" transform="translate(-346.453 -681.102)"/><path d="m346.7 681.1v4.609h-.048v-4.609z" fill="#92c8ff" transform="translate(-346.463 -681.102)"/><path d="m346.759 681.1v4.609h-.048v-4.609z" fill="#91c7ff" transform="translate(-346.474 -681.102)"/><path d="m346.818 681.1v4.609h-.048v-4.609z" fill="#90c6ff" transform="translate(-346.484 -681.102)"/><path d="m346.876 681.1v4.609h-.048v-4.609z" fill="#8fc6ff" transform="translate(-346.495 -681.102)"/><path d="m346.935 681.1v4.609h-.048v-4.609z" fill="#8ec5ff" transform="translate(-346.505 -681.102)"/></g></g><g clip-path="url(#ar)" transform="translate(240.675 228.434)"><g clip-path="url(#aq)" transform="translate(.346 .084)"><path d="m346.993 681.1v4.609h-.048v-4.609z" fill="#8dc4ff" transform="translate(-346.516 -681.102)"/></g></g><g clip-path="url(#as)" transform="translate(241.495 228.434)"><g clip-path="url(#aq)" transform="translate(-.474 .084)"><path d="m347.052 681.1v4.609h-.052v-4.609h.048" fill="#8cc3ff" transform="translate(-346.526 -681.102)"/><path d="m347.107 681.1v4.609h-.044v-4.609z" fill="#8bc2ff" transform="translate(-346.537 -681.102)"/><path d="m347.165 681.1v4.609h-.048v-4.609z" fill="#8ac2ff" transform="translate(-346.547 -681.102)"/><path d="m347.224 681.1v4.609h-.048v-4.609z" fill="#89c1ff" transform="translate(-346.557 -681.102)"/><path d="m347.282 681.1v4.609h-.048v-4.609z" fill="#88c0ff" transform="translate(-346.568 -681.102)"/><path d="m347.341 681.1v4.609h-.048v-4.609z" fill="#87bfff" transform="translate(-346.578 -681.102)"/><path d="m347.4 681.1v4.609h-.048v-4.609z" fill="#86bfff" transform="translate(-346.589 -681.102)"/><path d="m347.458 681.1v4.609h-.048v-4.609z" fill="#85beff" transform="translate(-346.599 -681.102)"/><path d="m347.513 681.1v4.609h-.044v-4.609z" fill="#84bdff" transform="translate(-346.61 -681.102)"/><path d="m347.575 681.1v4.609h-.052v-4.609z" fill="#83bcff" transform="translate(-346.62 -681.102)"/><path d="m347.631 681.1v4.609h-.045v-4.609z" fill="#82bbff" transform="translate(-346.631 -681.102)"/><path d="m347.689 681.1v4.609h-.048v-4.609z" fill="#81bbff" transform="translate(-346.641 -681.102)"/><path d="m347.747 681.1v4.609h-.047v-4.609h.048" fill="#80baff" transform="translate(-346.651 -681.102)"/><path d="m347.806 681.1v4.609h-.048v-4.609z" fill="#7fb9ff" transform="translate(-346.662 -681.102)"/><path d="m347.864 681.1v4.609h-.048v-4.609z" fill="#7eb8ff" transform="translate(-346.672 -681.102)"/><path d="m347.923 681.1v4.609h-.048v-4.609z" fill="#7db7ff" transform="translate(-346.683 -681.102)"/><path d="m347.978 681.1v4.609h-.044v-4.609z" fill="#7cb7ff" transform="translate(-346.693 -681.102)"/></g></g><g clip-path="url(#at)" transform="translate(241.495 228.434)"><g clip-path="url(#aq)" transform="translate(-.474 .084)"><path d="m348.04 681.1v4.609h-.052v-4.609z" fill="#7bb6ff" transform="translate(-346.703 -681.102)"/></g></g><g clip-path="url(#au)" transform="translate(242.316 228.434)"><g clip-path="url(#aq)" transform="translate(-1.295 .084)"><path d="m348.1 681.1v4.609h-.044v-4.609z" fill="#7ab5ff" transform="translate(-346.714 -681.102)"/><path d="m348.153 681.1v4.609h-.053v-4.609h.048" fill="#79b4ff" transform="translate(-346.724 -681.102)"/><path d="m348.212 681.1v4.609h-.048v-4.609z" fill="#78b4ff" transform="translate(-346.735 -681.102)"/><path d="m348.271 681.1v4.609h-.048v-4.609z" fill="#77b3ff" transform="translate(-346.745 -681.102)"/><path d="m348.329 681.1v4.609h-.048v-4.609z" fill="#76b2ff" transform="translate(-346.756 -681.102)"/><path d="m348.385 681.1v4.609h-.045v-4.609z" fill="#74b1ff" transform="translate(-346.766 -681.102)"/><path d="m348.443 681.1v4.609h-.048v-4.609z" fill="#73b0ff" transform="translate(-346.776 -681.102)"/><path d="m348.5 681.1v4.609h-.048v-4.609z" fill="#72b0ff" transform="translate(-346.786 -681.102)"/><path d="m348.56 681.1v4.609h-.048v-4.609z" fill="#71afff" transform="translate(-346.797 -681.102)"/><path d="m348.618 681.1v4.609h-.048v-4.609z" fill="#70aeff" transform="translate(-346.807 -681.102)"/><path d="m348.677 681.1v4.609h-.048v-4.609z" fill="#6fadff" transform="translate(-346.818 -681.102)"/><path d="m348.736 681.1v4.609h-.048v-4.609z" fill="#6eadff" transform="translate(-346.829 -681.102)"/><path d="m348.794 681.1v4.609h-.048v-4.609z" fill="#6dacff" transform="translate(-346.839 -681.102)"/><path d="m348.849 681.1v4.609h-.044v-4.609z" fill="#6cabff" transform="translate(-346.85 -681.102)"/><path d="m348.911 681.1v4.609h-.052v-4.609z" fill="#6baaff" transform="translate(-346.859 -681.102)"/><path d="m348.967 681.1v4.609h-.045v-4.609z" fill="#6aa9ff" transform="translate(-346.871 -681.102)"/></g></g><g clip-path="url(#av)" transform="translate(242.316 228.434)"><g clip-path="url(#aq)" transform="translate(-1.295 .084)"><path d="m349.025 681.1v4.609h-.048v-4.609z" fill="#69a9ff" transform="translate(-346.881 -681.102)"/></g></g><g clip-path="url(#aw)" transform="translate(243.137 228.434)"><g clip-path="url(#aq)" transform="translate(-2.115 .084)"><path d="m349.083 681.1v4.609h-.048v-4.609z" fill="#68a8ff" transform="translate(-346.891 -681.102)"/><path d="m349.142 681.1v4.609h-.048v-4.609z" fill="#67a7ff" transform="translate(-346.902 -681.102)"/><path d="m349.2 681.1v4.609h-.048v-4.609z" fill="#66a6ff" transform="translate(-346.912 -681.102)"/><path d="m349.259 681.1v4.609h-.048v-4.609z" fill="#65a6ff" transform="translate(-346.923 -681.102)"/><path d="m349.314 681.1v4.609h-.044v-4.609z" fill="#64a5ff" transform="translate(-346.933 -681.102)"/><path d="m349.376 681.1v4.609h-.052v-4.609z" fill="#63a4ff" transform="translate(-346.943 -681.102)"/><path d="m349.431 681.1v4.609h-.044v-4.609z" fill="#62a3ff" transform="translate(-346.954 -681.102)"/><path d="m349.489 681.1v4.609h-.048v-4.609z" fill="#61a2ff" transform="translate(-346.964 -681.102)"/><path d="m349.548 681.1v4.609h-.048v-4.609z" fill="#60a2ff" transform="translate(-346.974 -681.102)"/><path d="m349.607 681.1v4.609h-.048v-4.609z" fill="#5fa1ff" transform="translate(-346.985 -681.102)"/><path d="m349.665 681.1v4.609h-.048v-4.609z" fill="#5ea0ff" transform="translate(-346.995 -681.102)"/><path d="m349.724 681.1v4.609h-.048v-4.609z" fill="#5d9fff" transform="translate(-347.006 -681.102)"/><path d="m349.779 681.1v4.609h-.045v-4.609z" fill="#5c9eff" transform="translate(-347.016 -681.102)"/><path d="m349.841 681.1v4.609h-.052v-4.609z" fill="#5b9eff" transform="translate(-347.026 -681.102)"/><path d="m349.9 681.1v4.609h-.044v-4.609z" fill="#5a9dff" transform="translate(-347.038 -681.102)"/><path d="m349.954 681.1v4.609h-.048v-4.609z" fill="#599cff" transform="translate(-347.047 -681.102)"/></g></g><g clip-path="url(#ax)" transform="translate(243.137 228.434)"><g clip-path="url(#aq)" transform="translate(-2.115 .084)"><path d="m350.013 681.1v4.609h-.048v-4.609z" fill="#589bff" transform="translate(-347.058 -681.102)"/></g></g><g clip-path="url(#ay)" transform="translate(243.957 228.434)"><g clip-path="url(#aq)" transform="translate(-2.936 .084)"><path d="m350.071 681.1v4.609h-.048v-4.609z" fill="#579bff" transform="translate(-347.068 -681.102)"/><path d="m350.13 681.1v4.609h-.048v-4.609z" fill="#569aff" transform="translate(-347.079 -681.102)"/><path d="m350.189 681.1v4.609h-.048v-4.609z" fill="#59f" transform="translate(-347.089 -681.102)"/></g></g><path d="m348.782 682.408s-1.24.679-1.157.894a.362.362 0 0 0 .247.24l-.385.513s-.064.484.481.41c0 0-.106.446.414.311 0 0 .061.323.311.308a4.9 4.9 0 0 0 1.032-.494s.118-.173-.116-.446a.486.486 0 0 0 -.112-.538.547.547 0 0 0 -.205-.516s.115-.606-.376-.747c0 0-.08.035-.135.064" fill="#db9c7c" transform="translate(-105.592 -452.807)"/><g clip-path="url(#az)" transform="translate(238.213 224.332)"><g clip-path="url(#aA)" transform="translate(.664 .696)"><path d="m343.885 676.848v4.41h-.076v-4.41z" fill="#96cbff" transform="translate(-343.809 -676.848)"/><path d="m343.979 676.848v4.41h-.079v-4.41h.077" fill="#95caff" transform="translate(-343.826 -676.848)"/></g></g><g clip-path="url(#aB)" transform="translate(238.213 224.332)"><g clip-path="url(#aA)" transform="translate(.664 .696)"><path d="m344.076 676.848v4.41h-.076v-4.41h.08" fill="#94c9ff" transform="translate(-343.843 -676.848)"/></g></g><g clip-path="url(#aC)" transform="translate(239.034 224.332)"><g clip-path="url(#aA)" transform="translate(-.157 .696)"><path d="m344.171 676.848v4.41h-.077v-4.41z" fill="#93c9ff" transform="translate(-343.86 -676.848)"/><path d="m344.264 676.848v4.41h-.076v-4.41z" fill="#92c8ff" transform="translate(-343.877 -676.848)"/><path d="m344.361 676.848v4.41h-.08v-4.41z" fill="#91c7ff" transform="translate(-343.894 -676.848)"/><path d="m344.456 676.848v4.41h-.077v-4.41z" fill="#90c6ff" transform="translate(-343.911 -676.848)"/><path d="m344.549 676.848v4.41h-.076v-4.41z" fill="#8fc6ff" transform="translate(-343.928 -676.848)"/><path d="m344.643 676.848v4.41h-.077v-4.41z" fill="#8ec5ff" transform="translate(-343.945 -676.848)"/><path d="m344.74 676.848v4.41h-.08v-4.41z" fill="#8dc4ff" transform="translate(-343.962 -676.848)"/><path d="m344.835 676.848v4.41h-.077v-4.41z" fill="#8cc3ff" transform="translate(-343.979 -676.848)"/><path d="m344.928 676.848v4.41h-.076v-4.41z" fill="#8bc2ff" transform="translate(-343.996 -676.848)"/></g></g><g clip-path="url(#aD)" transform="translate(239.034 224.332)"><g clip-path="url(#aA)" transform="translate(-.157 .696)"><path d="m345.025 676.848v4.41h-.08v-4.41z" fill="#8ac2ff" transform="translate(-344.013 -676.848)"/></g></g><g clip-path="url(#aE)" transform="translate(239.854 224.332)"><g clip-path="url(#aA)" transform="translate(-.977 .696)"><path d="m345.12 676.848v4.41h-.077v-4.41z" fill="#89c1ff" transform="translate(-344.03 -676.848)"/><path d="m345.213 676.848v4.41h-.076v-4.41z" fill="#88c0ff" transform="translate(-344.047 -676.848)"/><path d="m345.307 676.848v4.41h-.077v-4.41z" fill="#87bfff" transform="translate(-344.064 -676.848)"/><path d="m345.4 676.848v4.41h-.08v-4.41z" fill="#86bfff" transform="translate(-344.081 -676.848)"/><path d="m345.5 676.848v4.41h-.077v-4.41z" fill="#85beff" transform="translate(-344.098 -676.848)"/><path d="m345.592 676.848v4.41h-.076v-4.41z" fill="#84bdff" transform="translate(-344.115 -676.848)"/><path d="m345.689 676.848v4.41h-.08v-4.41z" fill="#83bcff" transform="translate(-344.132 -676.848)"/><path d="m345.784 676.848v4.41h-.077v-4.41z" fill="#82bbff" transform="translate(-344.15 -676.848)"/><path d="m345.878 676.848v4.41h-.078v-4.41h.077" fill="#81bbff" transform="translate(-344.167 -676.848)"/><path d="m345.971 676.848v4.41h-.076v-4.41z" fill="#80baff" transform="translate(-344.183 -676.848)"/></g></g><g clip-path="url(#aF)" transform="translate(239.854 224.332)"><g clip-path="url(#aA)" transform="translate(-.977 .696)"><path d="m346.068 676.848v4.41h-.08v-4.41z" fill="#7fb9ff" transform="translate(-344.2 -676.848)"/></g></g><g clip-path="url(#aG)" transform="translate(240.675 224.332)"><g clip-path="url(#aA)" transform="translate(-1.798 .696)"><path d="m346.163 676.848v4.41h-.077v-4.41z" fill="#7eb8ff" transform="translate(-344.218 -676.848)"/><path d="m346.256 676.848v4.41h-.076v-4.41z" fill="#7db7ff" transform="translate(-344.234 -676.848)"/><path d="m346.35 676.848v4.41h-.077v-4.41z" fill="#7cb7ff" transform="translate(-344.251 -676.848)"/><path d="m346.447 676.848v4.41h-.08v-4.41z" fill="#7bb6ff" transform="translate(-344.268 -676.848)"/><path d="m346.542 676.848v4.41h-.077v-4.41z" fill="#7ab5ff" transform="translate(-344.286 -676.848)"/><path d="m346.635 676.848v4.41h-.076v-4.41z" fill="#79b4ff" transform="translate(-344.303 -676.848)"/><path d="m346.732 676.848v4.41h-.08v-4.41z" fill="#78b4ff" transform="translate(-344.319 -676.848)"/><path d="m346.827 676.848v4.41h-.077v-4.41z" fill="#77b3ff" transform="translate(-344.337 -676.848)"/><path d="m346.921 676.848v4.41h-.077v-4.41z" fill="#76b2ff" transform="translate(-344.354 -676.848)"/></g></g><g clip-path="url(#aH)" transform="translate(240.675 224.332)"><g clip-path="url(#aA)" transform="translate(-1.798 .696)"><path d="m347.014 676.848v4.41h-.076v-4.41z" fill="#74b1ff" transform="translate(-344.371 -676.848)"/></g></g><g clip-path="url(#aI)" transform="translate(241.495 224.332)"><g clip-path="url(#aA)" transform="translate(-2.618 .696)"><path d="m347.111 676.848v4.41h-.08v-4.41z" fill="#73b0ff" transform="translate(-344.387 -676.848)"/><path d="m347.206 676.848v4.41h-.077v-4.41z" fill="#72b0ff" transform="translate(-344.405 -676.848)"/><path d="m347.3 676.848v4.41h-.076v-4.41z" fill="#71afff" transform="translate(-344.422 -676.848)"/><path d="m347.4 676.848v4.41h-.08v-4.41z" fill="#70aeff" transform="translate(-344.438 -676.848)"/><path d="m347.491 676.848v4.41h-.077v-4.41z" fill="#6fadff" transform="translate(-344.456 -676.848)"/><path d="m347.585 676.848v4.41h-.077v-4.41z" fill="#6eadff" transform="translate(-344.473 -676.848)"/><path d="m347.678 676.848v4.41h-.078v-4.41h.076" fill="#6dacff" transform="translate(-344.49 -676.848)"/><path d="m347.775 676.848v4.41h-.08v-4.41z" fill="#6cabff" transform="translate(-344.506 -676.848)"/><path d="m347.87 676.848v4.41h-.077v-4.41z" fill="#6baaff" transform="translate(-344.524 -676.848)"/><path d="m347.963 676.848v4.41h-.076v-4.41z" fill="#6aa9ff" transform="translate(-344.541 -676.848)"/></g></g><g clip-path="url(#aJ)" transform="translate(241.495 224.332)"><g clip-path="url(#aA)" transform="translate(-2.618 .696)"><path d="m348.057 676.848v4.41h-.077v-4.41z" fill="#69a9ff" transform="translate(-344.558 -676.848)"/></g></g><g clip-path="url(#aK)" transform="translate(242.316 224.332)"><g clip-path="url(#aA)" transform="translate(-3.439 .696)"><path d="m348.154 676.848v4.41h-.08v-4.41z" fill="#68a8ff" transform="translate(-344.574 -676.848)"/><path d="m348.249 676.848v4.41h-.077v-4.41z" fill="#67a7ff" transform="translate(-344.592 -676.848)"/><path d="m348.342 676.848v4.41h-.076v-4.41z" fill="#66a6ff" transform="translate(-344.609 -676.848)"/><path d="m348.439 676.848v4.41h-.08v-4.41z" fill="#65a6ff" transform="translate(-344.626 -676.848)"/><path d="m348.534 676.848v4.41h-.077v-4.41z" fill="#64a5ff" transform="translate(-344.643 -676.848)"/><path d="m348.628 676.848v4.41h-.077v-4.41z" fill="#63a4ff" transform="translate(-344.66 -676.848)"/><path d="m348.721 676.848v4.41h-.076v-4.41z" fill="#62a3ff" transform="translate(-344.677 -676.848)"/><path d="m348.818 676.848v4.41h-.08v-4.41z" fill="#61a2ff" transform="translate(-344.694 -676.848)"/><path d="m348.913 676.848v4.41h-.077v-4.41z" fill="#60a2ff" transform="translate(-344.711 -676.848)"/></g></g><g clip-path="url(#aL)" transform="translate(242.316 224.332)"><g clip-path="url(#aA)" transform="translate(-3.439 .696)"><path d="m349.006 676.848v4.41h-.076v-4.41z" fill="#5fa1ff" transform="translate(-344.728 -676.848)"/></g></g><g clip-path="url(#aM)" transform="translate(243.137 224.332)"><g clip-path="url(#aA)" transform="translate(-4.259 .696)"><path d="m349.1 676.848v4.41h-.08v-4.41z" fill="#5ea0ff" transform="translate(-344.745 -676.848)"/><path d="m349.2 676.848v4.41h-.077v-4.41z" fill="#5d9fff" transform="translate(-344.762 -676.848)"/><path d="m349.292 676.848v4.41h-.077v-4.41z" fill="#5c9eff" transform="translate(-344.779 -676.848)"/><path d="m349.385 676.848v4.41h-.076v-4.41z" fill="#5b9eff" transform="translate(-344.796 -676.848)"/><path d="m349.482 676.848v4.41h-.08v-4.41z" fill="#5a9dff" transform="translate(-344.813 -676.848)"/><path d="m349.577 676.848v4.41h-.077v-4.41z" fill="#599cff" transform="translate(-344.83 -676.848)"/><path d="m349.671 676.848v4.41h-.077v-4.41z" fill="#589bff" transform="translate(-344.847 -676.848)"/><path d="m349.764 676.848v4.41h-.076v-4.41z" fill="#579bff" transform="translate(-344.864 -676.848)"/><path d="m349.861 676.848v4.41h-.08v-4.41z" fill="#569aff" transform="translate(-344.881 -676.848)"/><path d="m349.956 676.848v4.41h-.077v-4.41z" fill="#59f" transform="translate(-344.898 -676.848)"/></g></g><path d="m346.4 683.543a4.915 4.915 0 0 1 1.51.189c.121.052.231.122.231.253s-.189.3-.609.33a3.578 3.578 0 0 0 -.949.27s-.442-.093-.183-1.042" fill="#eea886" transform="translate(-105.382 -453.022)"/><path d="m334.148 724.567c-.074.388-.15.782-.227 1.177l-2.487-6.584c.33.664 2.714 5.407 2.714 5.407" fill="#293b57" transform="translate(-102.711 -459.415)"/><path d="m158.218 614.309h-39.238a5.248 5.248 0 0 1 -5.251-5.246v-61.988a5.25 5.25 0 0 1 5.251-5.251h39.237a5.25 5.25 0 0 1 5.251 5.251v61.988a5.248 5.248 0 0 1 -5.251 5.246" fill="#ffc955" transform="translate(-63.637 -427.586)"/><g fill="#e3f2ff"><path d="m167.346 598.875h-2.576v19.612h2.576z" transform="translate(-72.798 -437.826)"/><path d="m161.139 601.555h-2.576v17.413h2.576z" transform="translate(-71.684 -438.307)"/><path d="m154.4 605.039h-2.58v14.554h2.58z" transform="translate(-70.473 -438.932)"/><path d="m147.471 609.434h-2.576v10.948h2.576z" transform="translate(-69.231 -439.721)"/><path d="m126.034 596.362-.557-.2 4.858-13.631 10.539-2.788 3.785-14.966 8.135-3.586 1.82-11.638.587.093-1.871 11.954-8.163 3.606-3.8 15.02-10.577 2.8-4.753 13.34" transform="translate(-65.745 -428.973)"/></g><path d="m145.417 585.291a1.582 1.582 0 1 1 -2.224-.222 1.583 1.583 0 0 1 2.224.222" fill="#ffc955" transform="translate(-68.821 -435.284)"/><path d="m143.318 585.233a1.285 1.285 0 1 0 1.808.182 1.283 1.283 0 0 0 -1.808-.182zm2 2.448a1.878 1.878 0 1 1 .267-2.641 1.874 1.874 0 0 1 -.267 2.641" fill="#e3f2ff" transform="translate(-68.756 -435.219)"/><path d="m150.1 567.131a1.581 1.581 0 1 1 -2.228-.225 1.581 1.581 0 0 1 2.228.225" fill="#ffc955" transform="translate(-69.66 -432.024)"/><path d="m147.994 567.073a1.284 1.284 0 1 0 1.808.179 1.286 1.286 0 0 0 -1.808-.179zm2 2.448a1.878 1.878 0 1 1 .266-2.645 1.881 1.881 0 0 1 -.266 2.645" fill="#e3f2ff" transform="translate(-69.595 -431.959)"/><path d="m159.855 562.631a1.582 1.582 0 1 1 -2.224-.225 1.581 1.581 0 0 1 2.224.225" fill="#ffc955" transform="translate(-71.412 -431.217)"/><path d="m157.751 562.573a1.286 1.286 0 1 0 1.808.182 1.286 1.286 0 0 0 -1.808-.182zm2 2.448a1.878 1.878 0 1 1 .263-2.645 1.882 1.882 0 0 1 -.263 2.645" fill="#e3f2ff" transform="translate(-71.347 -431.152)"/><path d="m132.624 588.857a1.582 1.582 0 1 1 -2.228-.221 1.586 1.586 0 0 1 2.228.221" fill="#ffc955" transform="translate(-66.524 -435.924)"/><path d="m130.521 588.8a1.285 1.285 0 1 0 1.808.183 1.286 1.286 0 0 0 -1.808-.183zm2 2.452a1.879 1.879 0 1 1 .267-2.644 1.88 1.88 0 0 1 -.267 2.644" fill="#e3f2ff" transform="translate(-66.46 -435.86)"/><path d="m134.868 570.18h-13.561a1.135 1.135 0 0 1 -1.135-1.137v-1.01a1.135 1.135 0 0 1 1.135-1.135h13.561a1.138 1.138 0 0 1 1.138 1.135v1.01a1.138 1.138 0 0 1 -1.138 1.137" fill="#ebebeb" transform="translate(-64.793 -432.087)"/><path d="m134.868 563.189h-13.561a1.132 1.132 0 0 1 -1.135-1.135v-1.009a1.135 1.135 0 0 1 1.135-1.135h13.561a1.137 1.137 0 0 1 1.138 1.135v1.009a1.135 1.135 0 0 1 -1.138 1.135" fill="#ebebeb" transform="translate(-64.793 -430.832)"/><path d="m105.792 574.113s-.458 4.529.375 5.664c0 0-2.215-.484-2.727-1.247s2.352-4.417 2.352-4.417" fill="#16202e" transform="translate(-61.779 -433.382)"/><path d="m123.109 591.587s.8-.542.93-.619a2.332 2.332 0 0 1 1.009-.009 2.641 2.641 0 0 1 1.122.417.415.415 0 0 1 .08.34.788.788 0 0 1 -.17.368.488.488 0 0 1 -.1.458.425.425 0 0 1 -.18.437.351.351 0 0 1 -.131.368 3.261 3.261 0 0 0 -.567.025 6.679 6.679 0 0 1 -1.824-.253s-.9-.193-.167-1.533" fill="#eea886" transform="translate(-65.268 -436.397)"/><path d="m124.756 592.191a2.434 2.434 0 0 1 -.368.507c-.129.083.619.888.619.888s.253-1.087-.25-1.4" fill="#cf8c6c" transform="translate(-65.547 -436.626)"/><path d="m122.456 591.783a3.22 3.22 0 0 0 .817-.2c.311-.144-.057 1.574-.057 1.574a3.229 3.229 0 0 0 -1.254-.538c-.493-.016.494-.837.494-.837" fill="#eea886" transform="translate(-65.09 -436.516)"/><g fill="#162d40"><path d="m96.614 647.587a28.535 28.535 0 0 0 2.131 2.8s1.1.574 1.138 1.029c.064.865.109 1.375-1.34 1.413s-2.359 0-2.625-.881a6.566 6.566 0 0 0 -.721-1.567l-.112 2.285h-.327s-.144-2.292-.167-2.618-.234-1.584.455-2.138a1.906 1.906 0 0 1 1.567-.32" transform="translate(-60.194 -446.56)"/><path d="m99.034 650.372a3.67 3.67 0 0 1 -1.718-.012c-.933-.234-1.827-2.468-2.1-2.655l-.244-.9h1.82a3.263 3.263 0 0 0 .308 1.237 21.752 21.752 0 0 0 1.933 2.329" transform="translate(-60.27 -446.428)"/><path d="m109.033 646.442a5.823 5.823 0 0 0 .686 1.145c.331.429 1.35 2.186 1.8 2.307s1.84.368 1.961 1.145.183 1.327-1.186 1.391-2.266.141-2.92-.817a7.115 7.115 0 0 0 -1.7-1.658v2.507h-.532a22.405 22.405 0 0 0 -.388-2.791 3.149 3.149 0 0 1 .757-3.228c1.266-1.042 1.519 0 1.519 0" transform="translate(-62.357 -446.28)"/><path d="m111.655 649.935s-1.224.308-1.7 0-2.067-3-2.6-3.166c0 0 .513-1.042 1.808-.286 0 0 2.138 3 2.485 3.452" transform="translate(-62.494 -446.321)"/></g><path d="m95.586 600.669a12.815 12.815 0 0 0 -2.2 4.913c-.471 2.664.276 11.61.256 12.927s-1.163 5.42-.92 7.9 1.529 12.84 1.529 12.84l3-.055s-.6-11.176-.449-12.218.641-5.474.7-5.9 3.414-11.772 3.414-13.692-1.167-9.846-5.334-6.712" fill="#1d3b54" transform="translate(-59.861 -438.018)"/><path d="m105.5 601.775s2.84 10.837 3.176 12.337 1.009 3.461.977 3.737-.355 4.9-.355 4.9l-.808 15.747h-2.99s-.962-10.019-1.116-12.042 1.1-5.147.8-6.006-4.933-10.75-4.933-10.75-3.5-11.071 5.25-7.927" fill="#1d3b54" transform="translate(-61.093 -438.246)"/><path d="m105.511 582.133a3.419 3.419 0 0 1 1.991 1.026 13.259 13.259 0 0 1 1.891 2.875c.221.49 3.372 5.035 3.536 5.135s1.538-.26 2.644-.349a24.231 24.231 0 0 0 4.491-1.068l.4 2.032s-6.622 2.138-8.15 1.759c-1.869-.459-6.17-5.977-6.17-5.977s-3.2-3.756-.632-5.433" fill="#eddad3" transform="translate(-61.982 -434.821)"/><path d="m101.589 581.143a15.311 15.311 0 0 0 1.983.8c.51.1 2.491 2.676 2.837 3.615s0 2.349-.715 4-.038 2.2-.365 3.859a46.424 46.424 0 0 0 -.266 7.087c.061.916-9.455 2.65-11.356.977 0 0 1.285-4.241 2.811-5.833a6.262 6.262 0 0 0 .067-3.208c-.224-.574-2.756-4.844-2.756-4.844s-.186-4.33.917-5.189c.961-.744 3.58-1.009 4.048-1.173a8.062 8.062 0 0 1 2.8-.093" fill="#eddad3" transform="translate(-60.043 -434.63)"/><path d="m103.878 584.324.894-1.044-.772-2.757a18.333 18.333 0 0 0 -.118 3.8" fill="#d1c0ba" transform="translate(-61.861 -434.532)"/><g fill="#eea886"><path d="m95.717 582.119a2.555 2.555 0 0 0 -2.913 1.513c-1.064 2.042-.8 3.144-1.045 4.064s-1.224 7.064-1.285 7.33a20.578 20.578 0 0 0 -.878 4.353c.122.958 1 8.231.961 8.474s1.7-.234 1.7-.234-.074-7.423-.01-8.039.119-3.827.58-4.657 1.593-5.881 1.84-6.4 2.619-5.741 1.055-6.4" transform="translate(-59.303 -434.807)"/><path d="m103.406 578.654a35.143 35.143 0 0 0 -.234 3.577s-1.529 1.529-3.266-1.789a4.563 4.563 0 0 0 .183-3.23c-.551-1.865 3.317 1.442 3.317 1.442" transform="translate(-61.156 -433.835)"/><path d="m103.528 583.44v1.4l-1.641-1.455zm0 0" transform="translate(-61.511 -435.045)"/></g><path d="m102.987 584.422-.731-.9-2.456-2.456-.923.41 4.112 2.946" fill="#d1c0ba" transform="translate(-60.971 -434.629)"/><path d="m104.807 583.28 1.125.311-1.9-3.068zm0 0" fill="#fae6de" transform="translate(-61.896 -434.532)"/><path d="m102.249 583.481-1.029 1.65-2.388-3.75 1.022-.523 2.394 2.622" fill="#fae6de" transform="translate(-60.963 -434.592)"/><path d="m109.215 591.3a12.469 12.469 0 0 0 -.023-3.933s-.217 1.2-.743 3.067z" fill="#d1c0ba" transform="translate(-62.689 -435.76)"/><path d="m95.461 590.99s1.016-3.366 1.077-3.549a28.726 28.726 0 0 1 -.458 4.622s-.375-.654-.619-1.073" fill="#d1c0ba" transform="translate(-60.358 -435.774)"/><path d="m138.12 571.219-16 20.16.561.432zm0 0" fill="#54281a" transform="translate(-65.142 -432.862)"/><path d="m126.363 591.446s-1.2-.112-1.244.08a.3.3 0 0 0 .062.285l-.516.176a.314.314 0 0 0 .14.519s-.285.263.141.42c0 0-.108.256.074.362a4.069 4.069 0 0 0 .962.148s.17-.064.131-.369a.418.418 0 0 0 .18-.436.453.453 0 0 0 .1-.458s.372-.375.089-.708a.925.925 0 0 0 -.121-.02" fill="#db9c7c" transform="translate(-65.583 -436.487)"/><path d="m124.258 590.98a4.07 4.07 0 0 1 .971.856c.064.094.106.193.045.286s-.279.119-.59-.057a3.082 3.082 0 0 0 -.8-.263s-.266-.275.373-.82" fill="#eea886" transform="translate(-65.45 -436.409)"/><path d="m101.973 567.9a3.307 3.307 0 0 1 3.2 3.135 9.71 9.71 0 0 1 -1.105 6.474c-.452.449-3.157.109-3.795-1.557s-1.574-2.878-1.433-4.308-.2-3.8 3.128-3.744" fill="#eea886" transform="translate(-60.963 -432.267)"/><path d="m104.912 572.144s.725-4-2.869-4.715-4.856 1.744-5.2 3.2a27.893 27.893 0 0 0 .064 5.587 18.673 18.673 0 0 0 3.827 2.645 22.952 22.952 0 0 1 -.747-7.532 15.359 15.359 0 0 0 4.859-.02s.057.657.064.83" fill="#16202e" transform="translate(-60.582 -432.159)"/><path d="m103.609 579.644a4.56 4.56 0 0 1 -2.218-.839 5.274 5.274 0 0 0 2.154 1.545s.073-.561.064-.706" fill="#a77860" transform="translate(-61.422 -434.224)"/><path d="m96.558 612.718-10.458 1.708-1.26-7.734 10.46-1.708 1.263 7.734" fill="#366e9c" transform="translate(-58.452 -438.922)"/><path d="m90.253 615.482a1.436 1.436 0 0 1 -.179-.42s-.006-.276-.022-.474a.787.787 0 0 0 -.019-.15 2.785 2.785 0 0 1 -.122-.824 17.665 17.665 0 0 1 .526-1.939l.926.032.872-.094a17.8 17.8 0 0 1 1.071 2.352.548.548 0 0 1 0 .1 3.441 3.441 0 0 1 -.167.66c-.01.058-.141.612-.292.693a.561.561 0 0 1 -.542.01 1.345 1.345 0 0 1 -.724.108.831.831 0 0 1 -.731-.022s-.413.148-.6-.035" fill="#eea886" transform="translate(-59.361 -440.112)"/><path d="m95.719 582.119a2.555 2.555 0 0 0 -2.913 1.513 9.336 9.336 0 0 0 -1.2 3.91c-.131.943-1.426 6.535-1.49 6.8s-.484 3.763-.516 5.035c-.022.968.205 7.311.163 7.558s2.933-.43 2.933-.43-.33-5.852-.266-6.464a34.266 34.266 0 0 1 .49-4.568c.353-1.051 1.74-6.365 1.987-6.887s2.378-5.805.814-6.468" fill="#eddad3" transform="translate(-59.305 -434.807)"/><path d="m213.239 648.763.193-1.794a13.771 13.771 0 0 0 -2.83.2s.214 1.506.243 1.734 2.394-.135 2.394-.135" fill="#5c544d" transform="translate(-81.024 -446.458)"/><path d="m208.084 652.874c3.013-.026 4.465.183 4.789-.308s-.468-3.605-.468-3.605a6.312 6.312 0 0 1 -2.436.1 6.388 6.388 0 0 1 -1.474 1.3c-.727.4-1.865.555-2.3.965-.31.295-1.128 1.571 1.885 1.541" fill="#3c4145" transform="translate(-80.173 -446.815)"/><path d="m192.568 648.763.192-1.794a13.758 13.758 0 0 0 -2.83.2s.214 1.506.244 1.734 2.394-.135 2.394-.135" fill="#5c544d" transform="translate(-77.313 -446.458)"/><path d="m187.107 652.874c3.01-.076 4.465.183 4.789-.308s-.468-3.605-.468-3.605a5.693 5.693 0 0 1 -2.436.1 6.364 6.364 0 0 1 -1.477 1.3c-.725.4-3.395.721-3.824 1.132-.308.295-.824 1.487 3.417 1.374" fill="#3c4145" transform="translate(-76.158 -446.815)"/><path d="m208.145 599.754a22.275 22.275 0 0 1 1.093 6.964c-.163 3.228.651 6.757.987 10.125.372 3.756 1.9 12.648 1.952 14.657s-.237 8.423-.237 8.423l-3.051.074s-2.564-15.548-3.227-17.132-3.956-12.9-4.064-14.167 6.548-8.945 6.548-8.945" fill="#dbd8e3" transform="translate(-79.407 -437.984)"/><path d="m193.131 600.323s-1.676 8.839-1.9 10.814-.368 9.555-.478 10.786-.74 16.147-1.327 17.981h3.9s2.993-10.843 2.993-15.971 2.314-11.148 3.808-14.532 4.913-3.465 5.83-9.74c0 0-11.587-1.327-12.83.664" fill="#dbd8e3" transform="translate(-77.224 -437.889)"/><path d="m202.407 563.684s-3.077-1.15-4.493 1.192-1.282 7.026.269 7.6 3.879.276 4.673-1.189a11.751 11.751 0 0 0 1.474-5 3.08 3.08 0 0 0 -1.923-2.609" fill="#eea886" transform="translate(-78.57 -431.459)"/><path d="m199.067 573.669a2.59 2.59 0 0 1 -.08 1.205c-.205.394 3.869.407 3.869.407a26.871 26.871 0 0 1 .955-3.984c.629-1.827-4.743 2.372-4.743 2.372" fill="#eea886" transform="translate(-78.938 -432.794)"/><path d="m203.521 569.891s-.279.462-1.426.282-2.549-1.708-3.029-1.875-.481-.449-.481-.449l-.3.439-.51.032s.465-1.365-.237-1.923.728-4.42 4.407-3.135c0 0 2.638.52 2.8 2.125a7.267 7.267 0 0 1 -1.221 4.5" fill="#fccca2" transform="translate(-78.648 -431.388)"/><path d="m198.691 575.455s.016-.76.359-.833a24.605 24.605 0 0 1 4.218-.237v.884s-.815.5-4.578.185" fill="#e2d2ca" transform="translate(-78.886 -433.422)"/><path d="m198.921 568.071c.065-.272.75-1.041 1.013-.214s-.4 1.932-.766 1.84-.41-.943-.247-1.625" fill="#eea886" transform="translate(-78.911 -432.192)"/><path d="m195.891 575.658s-1.89.68-4.083 1.612a4.6 4.6 0 0 0 -2.795 3.73c-.144 1.478-1.718 9.323-2.014 9.987s-3.785 11.327-3.907 11.548 2.846 1.456 3.045 1.356 3.378-9.725 3.7-10.44c0 0 1.83-5.772 1.881-6.631 0 0 .052 2.452.148 3.141s-1.628 14.055-1.577 14.423 7.85.837 10.971.494a38.174 38.174 0 0 0 5.641-1.061s-2.455-10.552-2.378-11.721c.163-2.549 1.013-7.347 1.013-7.347l2.549 4.8-3.26 8.385.747 2.548s6.055-9.15 6.25-9.987a4.473 4.473 0 0 0 -.615-2.59c-.317-.689-2.42-5.926-2.91-6.663s-1.324-3.692-3.33-4.513a31.072 31.072 0 0 0 -4.5-1.25l-4.578.185" fill="#63a4ff" transform="translate(-76.086 -433.626)"/><path d="m190.5 611.363-14.266-3.657 2.555-9.952 14.266 3.657-2.554 9.952" fill="#f25f54" transform="translate(-74.855 -437.625)"/><path d="m181.45 611.1s-.407.656-.558.846.369.308.587.115-.029-.961-.029-.961" fill="#c98462" transform="translate(-75.687 -440.02)"/><path d="m184.542 612.827a1.586 1.586 0 0 0 .292-.41s.074-.3.138-.513a1.341 1.341 0 0 1 .054-.161 2.957 2.957 0 0 0 .327-.865c.064-.407.24-2.234.24-2.234l-1.105-.279-.888-.185a18.21 18.21 0 0 0 -2.019 2.285.567.567 0 0 0 -.022.109 3.484 3.484 0 0 0 .025.759c0 .065.007.7.153.818a.625.625 0 0 0 .587.14 1.479 1.479 0 0 0 .763.286.923.923 0 0 0 .8.151s.414.253.657.1" fill="#de9d7d" transform="translate(-75.808 -439.496)"/><path d="m189.135 599.52s-2.532 7.67-3 8.475a8.288 8.288 0 0 1 -3.045-1.356l2.778-8.276 3.263 1.157" fill="#63a4ff" transform="translate(-76.087 -437.734)"/><path d="m455.913 605.813s9.4-27.565-8.538-36.109-33.164 3.807-36.042 10.494-2.115 18.837.34 27.311 2.1 21.375-3.234 25.693-11.939 11.481-11.612 26.067c.2 9.048 35.612-23.151 35.612-23.151l23.475-30.3" fill="#913b1a" transform="translate(-114.445 -432.068)"/><path d="m429.5 654.146s-14.744 3.266-20.6 6.686-18.842 19.151-18.842 25.914 56.827 13.08 56.827 13.08l10.769 39.324s28.725-7.01 32.142-12.821-10.907-47.474-13.359-55.907c-2.5-8.6-12.8-14.6-24.767-16.276a82.176 82.176 0 0 0 -22.173 0" fill="#ffd255" transform="translate(-113.233 -447.612)"/><path d="m458.2 653.916s-.33 17.916-14.541 18.449-11.25-17.186-11.25-17.186 10.394-4.212 25.791-1.263" fill="#eea886" transform="translate(-120.789 -447.517)"/><path d="m468.144 588.246s5.026 28.818-9.288 49.635c-14.823 21.562 9.288-49.635 9.288-49.635" fill="#641f05" transform="translate(-124.716 -435.918)"/><path d="m455.582 637.416s-.991 8.57.66 13.9-21.727 5.477-21.715 1.1c.016-4.981 2.391-9.137.154-17.673s20.9 2.677 20.9 2.677" fill="#eea886" transform="translate(-121.214 -443.688)"/><path d="m438.086 640.035s7.381 7.689 16.821.8c0 0-.779 4.917-7.571 5.551s-9.25-6.353-9.25-6.353" fill="#a77860" transform="translate(-121.853 -445.213)"/><path d="m444.815 575.988s18.654 5.52 15.99 31.408-14.85 24.554-15.99 24.747-15.609 1.141-20.177-30.266 20.177-25.888 20.177-25.888" fill="#eea886" transform="translate(-119.338 -433.651)"/><path d="m439.7 587.182s10.138 16.125 20.808 19.866c0 0 5.824-27.055-18.238-32.725s-20.288 27.327-18.494 36.125a71.588 71.588 0 0 1 15.924-23.266" fill="#be5d38" transform="translate(-119.042 -433.302)"/><path d="m426.914 584.5s5.333-10.334 14.344-10.8 14.368 7.353 14.368 7.353a15.315 15.315 0 0 0 -14.356-8.8c-10.84 0-14.356 12.24-14.356 12.24" fill="#88c0ff" transform="translate(-119.847 -433.049)"/><path d="m453.4 686.223 6.324 58.814h-83.26l-6.327-58.814z" fill="#5fa0ff" transform="translate(-109.658 -453.503)"/><path d="m373.77 741.694h82.53l-6.247-58.09h-82.531zm83.34.724h-83.991l-6.4-59.539h83.991z" fill="#5fa0ff" transform="translate(-109.043 -452.903)"/><path d="m428.729 719.666c.75 3.66-.958 7.1-3.81 7.683s-5.772-1.91-6.519-5.57.958-7.1 3.811-7.68 5.772 1.91 6.519 5.567" fill="#5189db" transform="translate(-118.288 -458.491)"/><path d="m469.734 750.695h15.536v5.913h-15.536z" fill="#5fa0ff" transform="translate(-127.533 -465.075)"/><path d="m408.053 512.189a12.083 12.083 0 1 0 12.084 12.083 12.1 12.1 0 0 0 -12.084-12.083zm0 24.891a12.81 12.81 0 1 1 12.812-12.808 12.82 12.82 0 0 1 -12.812 12.808" fill="#64a4ff" transform="translate(-114.164 -422.137)"/><path d="m56.587 622.4-1.048-.3a57.436 57.436 0 0 1 2.141-6.253l1 .429a57.791 57.791 0 0 0 -2.093 6.124zm-2.5 12.718-1.08-.118c.218-2.131.548-4.32.981-6.509l1.067.212c-.427 2.157-.755 4.314-.965 6.413zm-.968 13.058a52.22 52.22 0 0 1 -.442-6.586l1.09-.007a50.642 50.642 0 0 0 .433 6.448zm3.737 12.641a38.439 38.439 0 0 1 -2.385-6.17l1.048-.3a37.271 37.271 0 0 0 2.314 6zm7.869 10.571a36.4 36.4 0 0 1 -4.423-4.92l.872-.651a35.519 35.519 0 0 0 4.295 4.775zm132.815.382-.137-1.08a63.29 63.29 0 0 1 6.561-.507l.022 1.09a60.886 60.886 0 0 0 -6.443.494zm19.276.8a50.878 50.878 0 0 0 -6.372-1.054l.109-1.086a52.824 52.824 0 0 1 6.507 1.081zm-32.007 1.757-.269-1.054c2.343-.6 4.432-1.086 6.381-1.49l.222 1.063c-1.93.402-4.004.886-6.331 1.482zm44.191 2.559c-2.006-.949-4.016-1.785-5.977-2.487l.366-1.026c1.993.715 4.038 1.564 6.08 2.529zm-56.766.911-.3-1.049c.914-.253 1.814-.51 2.705-.762q1.818-.514 3.584-1.01l.291 1.051c-1.177.327-2.369.667-3.577 1.007q-1.337.38-2.705.766zm-96.552.9a47.052 47.052 0 0 1 -5.75-3.237l.6-.908a46.279 46.279 0 0 0 5.619 3.164zm83.9 2.443-.257-1.061c2-.478 4.064-1 6.317-1.6l.282 1.051c-2.26.603-4.333 1.128-6.339 1.613zm-71.491 1.875c-2.2-.532-4.317-1.147-6.314-1.836l.356-1.029c1.962.673 4.055 1.282 6.215 1.808zm58.657.756-.18-1.077c2.1-.349 4.254-.753 6.4-1.2l.222 1.067c-2.16.453-4.327.857-6.439 1.213zm-45.712 1.381c-2.231-.217-4.42-.5-6.506-.843l.176-1.074c2.061.334 4.228.615 6.439.834zm32.718.273-.1-1.083c2.151-.189 4.327-.42 6.471-.7l.138 1.081c-2.15.277-4.342.519-6.506.704zm-19.638.551c-2.151-.061-4.356-.16-6.545-.3l.067-1.086c2.179.138 4.368.24 6.51.3zm6.551.067-.01-1.09c2.174-.019 4.363-.077 6.507-.18l.051 1.091c-2.156.1-4.362.16-6.548.179" fill="#c2bebc" transform="translate(-52.68 -440.871)"/><path d="m222.495 404.046-.116-1.083a63.328 63.328 0 0 1 6.574-.365v1.086a62.291 62.291 0 0 0 -6.458.362zm19.294 1.01a58.891 58.891 0 0 0 -6.378-1.039l.115-1.083a60.507 60.507 0 0 1 6.5 1.058zm-32 1.532-.3-1.048c2.147-.619 4.295-1.148 6.384-1.57l.215 1.067c-2.059.416-4.177.939-6.296 1.551zm44.311 2.452c-2.09-.881-4.074-1.628-6.07-2.279l.34-1.036c2.025.661 4.038 1.417 6.154 2.311zm-56.513 1.984-.432-1c2.051-.89 4.1-1.711 6.089-2.439l.376 1.022c-1.969.722-3.997 1.532-6.03 2.417zm68.17 3.779c-2.132-1.17-4.019-2.16-5.762-3.033l.487-.974c1.757.878 3.654 1.875 5.8 3.052zm-79.824 1.997-.529-.955c1.952-1.077 3.907-2.1 5.808-3.045l.483.975c-1.887.931-3.826 1.951-5.762 3.025zm91.231 4.372c-1.846-1-3.679-2.032-5.712-3.18l.536-.948c2.028 1.145 3.856 2.174 5.7 3.173zm69.571 2.2-.048-1.086c2.167-.1 4.368-.125 6.567-.067l-.025 1.09c-2.176-.064-4.352-.041-6.494.058zm-171.963.144-.592-.913c1.865-1.212 3.733-2.382 5.551-3.478l.565.933c-1.808 1.085-3.668 2.248-5.524 3.453zm191.377 1.035c-2.148-.353-4.311-.638-6.443-.844l.106-1.086c2.154.212 4.346.5 6.512.856zm-32.286.4-.215-1.067c2.135-.429 4.321-.782 6.488-1.048l.135 1.08c-2.145.262-4.299.608-6.407 1.031zm-44.863 1.874c-1.917-.747-3.884-1.612-6.013-2.645l.474-.977c2.1 1.016 4.045 1.868 5.936 2.609zm89.812.638c-2.09-.615-4.205-1.169-6.288-1.653l.247-1.061c2.1.487 4.24 1.048 6.349 1.673zm-57.491.943-.308-1.049c.7-.205 1.413-.429 2.119-.666 1.362-.455 2.75-.885 4.125-1.273l.3 1.049c-1.362.384-2.731.807-4.076 1.256-.72.244-1.448.471-2.159.683zm-19.593 1.756a48.938 48.938 0 0 1 -6.478-1.272l.282-1.052a47.64 47.64 0 0 0 6.33 1.244zm6.59.34-.025-1.09a45.851 45.851 0 0 0 6.426-.6l.176 1.074a47.09 47.09 0 0 1 -6.577.614zm82.748 1.333c-2.013-.843-4.055-1.634-6.071-2.352l.369-1.026c2.032.725 4.089 1.526 6.122 2.372zm11.74 5.616c-1.913-1.032-3.865-2.026-5.8-2.951l.468-.985c1.955.936 3.924 1.94 5.849 2.978zm11.161 6.718c-1.792-1.2-3.641-2.372-5.5-3.491l.56-.933c1.876 1.128 3.741 2.311 5.545 3.516zm10.423 7.8c-.016-.016-1.836-1.632-5.093-4.052l.647-.875c3.3 2.455 5.15 4.1 5.17 4.115l-.724.811" fill="#c2bebc" transform="translate(-74.487 -402.598)"/><path d="m307.767 702.523-27.372-7.959 8.205-2.474zm0 0" fill="#d6d6d6" transform="translate(-93.55 -454.556)"/><path d="m310.138 702.556-10.231-10.28-6.3 1.283zm0 0" fill="#e8e8e8" transform="translate(-95.922 -454.59)"/><path d="m288.066 697.332.222 3.167 20.856 2.965zm0 0" fill="#c2c2c2" transform="translate(-94.927 -455.497)"/><path d="m145.852 447.077 24.128-13.494-8.3-.545zm0 0" fill="#d6d6d6" transform="translate(-69.402 -408.062)"/><path d="m145.852 447.5 7.422-11.939 6.231-.167zm0 0" fill="#e8e8e8" transform="translate(-69.402 -408.484)"/><path d="m164.429 437.488.484 3.038-19.061 7.349zm0 0" fill="#c2c2c2" transform="translate(-69.402 -408.86)"/></svg>