<svg height="1000" viewBox="0 0 1000 1000" width="1000" xmlns="http://www.w3.org/2000/svg"><path d="m842.356153 135.788562c47.318867-.000079 85.702527 38.313793 85.788561 85.632582v642.790294c0 47.379715-38.408847 85.788562-85.788561 85.788562h-685.567591c-47.379715 0-85.788562-38.408847-85.788562-85.788562v-642.790294c.0860343-47.318789 38.469694-85.632661 85.788562-85.632582h42.738301v-42.8942812c0-23.6898572 19.204424-42.8942808 42.894281-42.8942808h257.073223c23.689858 0 42.894281 19.2044236 42.894281 42.8942808v42.8942812zm-557.079723 0v367.857452l55.411612-55.411612c8.018707-8.067886 18.923967-12.604534 30.29896-12.604534 11.374992 0 22.280252 4.536648 30.29896 12.604534l55.411612 55.411612v-367.857452zm556.962738 728.422876.116985-642.790294h-299.831023v385.678076c-.041354 17.312237-10.485732 32.902515-26.480393 39.52717-15.994662 6.624655-34.40373 2.984871-46.673853-9.22821l-98.266898-98.266898-98.266898 98.266898c-12.270123 12.213081-30.67919 15.852865-46.673852 9.22821s-26.43904-22.214933-26.480394-39.52717v-385.678076h-42.89428v642.790294zm-256.995234-557.09922h171.421144v85.788562h-171.421144zm0 128.565858h171.421144v85.788562h-171.421144zm0 128.565858h171.421144v85.788562h-171.421144zm-342.82279 128.565858h514.243934v85.788562h-514.243934z"/></svg>