<svg height="1000" viewBox="0 0 1000 1000" width="1000" xmlns="http://www.w3.org/2000/svg"><path d="m891.608696 441.304348v352.173913h-117.391305v156.521739h-547.826087v-156.521739h-117.391304v-352.173913c0-64.833427 52.557877-117.391305 117.391304-117.391305h78.26087v78.26087h391.304348v-78.26087h78.260869c64.833427 0 117.391305 52.557878 117.391305 117.391305zm-195.652174 430.434782v-156.521739h-391.304348v156.521739zm117.391304-156.521739v-273.913043c0-21.611143-17.519292-39.130435-39.130435-39.130435v78.26087h-547.826087v-78.26087c-21.611142 0-39.130434 17.519292-39.130434 39.130435v273.913043h39.130434v-78.260869h547.826087v78.260869zm-508.695652-586.956521v156.521739h-78.26087v-234.782609h547.826087v234.782609h-78.260869v-156.521739zm391.304348 469.565217c-21.611143 0-39.130435-17.519292-39.130435-39.130435 0-21.611142 17.519292-39.130435 39.130435-39.130435 21.611142 0 39.130435 17.519293 39.130435 39.130435 0 21.611143-17.519293 39.130435-39.130435 39.130435z"/></svg>