<svg height="1000" viewBox="0 0 1000 1000" width="1000" xmlns="http://www.w3.org/2000/svg"><path d="m910.092491 920.13914c-107.036443-40.293555-198.41219-113.709241-260.816964-209.55294-62.956216-91.925118-96.800217-200.664641-97.131835-312.080988-.932217-56.474363 9.783253-112.534982 31.477909-164.684428 17.998083-44.64168 47.473012-83.734744 85.44004-113.320473 33.97834-26.3024822 75.747592-40.5420001 118.716687-40.4715983 40.980922-.73329 80.97571 12.598306 113.320474 37.7734913 33.541843 27.711875 51.631003 69.919915 48.565918 113.320474 1.019981 38.787531-11.015377 76.793926-34.176016 107.924261-22.283295 29.677707-55.131043 49.643985-91.735622 55.760868h-91.735622c-23.983169 0-35.974753 35.375174-35.974753 106.125523 1.651794 71.997008 18.508932 142.831045 49.465286 207.854132 35.586759 76.743294 92.783646 141.441412 164.584498 186.16935zm-501.847813 0c-107.036443-40.293555-198.41219-113.709241-260.816964-209.55294-62.9562161-91.925118-96.8002174-200.664641-97.131835-312.080988-3.2815683-81.678605 20.810216-162.113511 68.451962-228.539615 38.630484-56.338674 102.569337-89.9907018 170.880079-89.9368843 41.062461-.3103734 81.014696 13.3241196 113.320474 38.6728603 34.151824 27.02695 52.924111 69.050001 50.264726 112.521035.998659 38.927992-11.381664 77.021293-35.075385 107.924261-22.248554 29.283182-54.654222 49.17577-90.836253 55.760868-11.932756 1.483097-23.982796 1.784348-35.974754.899369-19.186535-.59958-37.773491-.899369-55.760868-.899369-25.182327 0-37.773491 35.375174-37.773491 106.125523 2.290818 71.015689 19.126299 140.806412 49.465286 205.056096 34.333508 77.158599 90.239912 142.747118 160.987023 188.867456z"/></svg>