<svg height="1000" viewBox="0 0 1000 1000" width="1000" xmlns="http://www.w3.org/2000/svg"><path d="m89.9075095 920.13914v-25.182328c71.8008515-44.727938 128.9977385-109.426056 164.5844975-186.16935 30.956354-65.023087 47.813492-135.857124 49.465286-207.854132 0-70.750349-11.991584-106.125523-35.974753-106.125523h-91.735622c-36.604579-6.116883-69.452327-26.083161-91.7356216-55.760868-23.1606389-31.130335-35.1959973-69.13673-34.1760159-107.924261-3.0650851-43.400559 15.0240749-85.608599 48.5659174-113.320474 32.3447641-25.1751853 72.3395521-38.5067813 113.3204741-37.7734913 42.969095-.0704018 84.738347 14.1691161 118.716687 40.4715983 37.967028 29.585729 67.441957 68.678793 85.44004 113.320473 21.694656 52.149446 32.410126 108.210065 31.477909 164.684428-.331618 111.416347-34.175619 220.15587-97.131835 312.080988-62.404774 95.843699-153.780521 169.259385-260.8169635 209.55294zm501.8478125 0v-25.182328c70.747111-46.120338 126.653515-111.708857 160.987023-188.867456 30.338987-64.249684 47.174468-134.040407 49.465286-205.056096 0-70.750349-12.591164-106.125523-37.773491-106.125523-17.987377 0-36.574333.299789-55.760868.899369-11.991958.884979-24.041998.583728-35.974754-.899369-36.182031-6.585098-68.587699-26.477686-90.836253-55.760868-23.693721-30.902968-36.074044-68.996269-35.075385-107.924261-2.659385-43.471034 16.112902-85.494085 50.264726-112.521035 32.305778-25.3487407 72.258013-38.9832337 113.320474-38.6728603 68.310742-.0538175 132.249595 33.5982103 170.880079 89.9368843 47.641746 66.426104 71.73353 146.86101 68.451962 228.539615-.331618 111.416347-34.175619 220.15587-97.131835 312.080988-62.404774 95.843699-153.780521 169.259385-260.816964 209.55294z"/></svg>