<svg height="1000" viewBox="0 0 1000 1000" width="1000" xmlns="http://www.w3.org/2000/svg"><path d="m810.952381 303.380952-109.52381 78.095238c3.809524 8.571429 5.714286 18.095239 5.714286 28.571429 0 46.666667-39.047619 85.714286-85.714286 85.714286-46.666666 0-85.714285-38.095238-85.714285-85.714286 0-9.523809 2.857143-20 5.714285-28.571429l-109.523809-78.095238c-14.285714 11.428572-33.333333 19.047619-53.333333 19.047619s-38.095239-6.666666-53.333334-19.047619l-109.523809 78.095238c3.809524 8.571429 5.714285 18.095239 5.714285 28.571429 0 46.666667-39.047619 85.714286-85.714285 85.714286-46.666667 0-85.714286-39.047619-85.714286-85.714286s38.0952381-85.714286 85.714286-85.714286c20 0 38.095238 6.666667 53.333333 19.047619l109.52381-78.095238c-3.809524-8.571428-5.714286-18.095238-5.714286-28.571428 0-46.666667 39.047619-85.714286 85.714286-85.714286 46.666666 0 85.714285 38.095238 85.714285 85.714286 0 9.523809-2.857143 20-5.714285 28.571428l109.523809 78.095238c14.285714-11.428571 33.333333-19.047619 53.333333-19.047619s38.095239 6.666667 53.333334 19.047619l109.523809-78.095238c-3.809524-8.571428-5.714285-18.095238-5.714285-28.571428 0-46.666667 38.095238-85.714286 85.714285-85.714286 46.666667 0 85.714286 39.047619 85.714286 85.714286 0 46.666666-38.095238 85.714285-85.714286 85.714285-20 0-38.095238-6.666666-53.333333-19.047619zm-622.857143 280.952381c13.333333 0 23.809524 10.476191 23.809524 22.857143v218.095238c0 12.380953-9.52381 22.857143-22.857143 22.857143h-112.3809523c-12.3809524 0-22.8571429-9.523809-22.8571429-22.857143v-218.095238c0-12.380952 9.5238095-22.857143 22.8571429-22.857143zm488.571429 0c13.333333 0 23.809523 10.476191 22.857143 22.857143v218.095238c0 12.380953-9.52381 22.857143-22.857143 22.857143h-112.380953c-12.380952 0-22.857143-9.523809-22.857143-22.857143v-218.095238c0-12.380952 9.52381-22.857143 22.857143-22.857143zm-243.809524-173.333333c12.380952 0 22.857143 9.52381 22.857143 22.857143v391.428571c0 12.380953-9.52381 22.857143-22.857143 22.857143h-112.380953c-12.380952 0-22.857142-9.523809-22.857142-22.857143v-391.428571c0-12.380953 9.523809-22.857143 22.857142-22.857143zm487.619047 0c13.333334 0 23.809524 9.52381 23.809524 22.857143v391.428571c0 12.380953-9.523809 22.857143-22.857143 22.857143h-112.380952c-12.380952 0-22.857143-9.523809-22.857143-22.857143v-391.428571c0-12.380953 9.52381-22.857143 22.857143-22.857143z"/></svg>