<svg height="1000" viewBox="0 0 1000 1000" width="1000" xmlns="http://www.w3.org/2000/svg"><path d="m770.217968 590.028527c-51.821611.150103-101.023455 22.826812-134.836524 62.145l-228.862527-114.525c5.447914-24.798608 5.447914-50.486391 0-75.285l228.862527-114.525c57.304927 64.805634 152.698949 79.308203 226.63477 34.454846 73.935821-44.853358 105.255247-136.226968 74.407923-217.083176-30.847325-80.8562072-115.03383-128.0564135-200.008229-112.1370887-84.974398 15.9193248-146.419589 90.4025517-145.979972 176.9554187.022648 12.652417 1.409004 25.26544 4.134986 37.62l-228.862527 114.525c-49.135552-56.828974-128.367272-77.106428-198.713548-50.855955-70.3462764 26.250473-116.994847 93.501518-116.994847 168.665955s46.6485706 142.415482 116.994847 168.665955c70.346276 26.250474 149.577996 5.97302 198.713548-50.855955l228.862527 114.57c-2.723675 12.370164-4.109983 24.997849-4.134986 37.665 0 99.411255 80.491157 180 179.782032 180 99.290874 0 179.782032-80.588745 179.782032-180s-80.491158-180-179.782032-180zm0-450c49.645437 0 89.891016 40.294373 89.891016 90 0 49.705628-40.245579 90-89.891016 90-49.645438 0-89.891016-40.294372-89.891016-90 0-49.705627 40.245578-90 89.891016-90zm-539.346097 450c-49.645437 0-89.891016-40.294372-89.891016-90 0-49.705627 40.245579-90 89.891016-90s89.891016 40.294373 89.891016 90c0 49.705628-40.245579 90-89.891016 90zm539.346097 270c-49.645438 0-89.891016-40.294372-89.891016-90 0-49.705627 40.245578-90 89.891016-90 49.645437 0 89.891016 40.294373 89.891016 90 0 49.705628-40.245579 90-89.891016 90z"/></svg>