<svg height="329.736" viewBox="0 0 359.945 329.736" width="359.945" xmlns="http://www.w3.org/2000/svg" xmlns:xlink="http://www.w3.org/1999/xlink"><linearGradient id="a" gradientUnits="objectBoundingBox" x2="1" y1=".5" y2=".5"><stop offset="0" stop-color="#8fd6ff"/><stop offset="1" stop-color="#bfebfe"/></linearGradient><linearGradient id="b" gradientUnits="objectBoundingBox" x1="-.097" x2="1.066" y1="-.331" y2="1.608"><stop offset="0" stop-color="#c6cbcf"/><stop offset="1" stop-color="#f8f1fe"/></linearGradient><linearGradient id="c" gradientUnits="objectBoundingBox" x2="1.001" y1=".5" y2=".5"><stop offset="0" stop-color="#d5e4ff"/><stop offset="1" stop-color="#edfffe"/></linearGradient><linearGradient id="d" x1="0" x2=".999" xlink:href="#c" y1=".5" y2=".5"/><linearGradient id="e" x1="0" x2="1.001" xlink:href="#c" y1=".5" y2=".5"/><linearGradient id="f" x1="0" x2="1" xlink:href="#c" y1=".5" y2=".5"/><path d="m132.663 175.916h.877v92.105h-.877z" fill="#e0e0e0"/><path d="m195.083 175.916h.879v92.105h-.879z" fill="#e0e0e0"/><path d="m257.504 175.916h.877v92.105h-.877z" fill="#e0e0e0"/><g fill="#d9d9d9"><path d="m70.683 164.567h14.951v2.401h-14.951z"/><path d="m70.683 169.005h21.207v2.401h-21.207z"/><path d="m132.43 164.567h17.553v2.401h-17.553z"/><path d="m132.43 169.005h11.224v2.401h-11.224z"/><path d="m195.961 164.567h10.876v2.401h-10.876z"/><path d="m195.961 169.005h12.677v2.401h-12.677z"/><path d="m258.381 164.567h15.844v2.401h-15.844z"/><path d="m258.381 169.005h12.678v2.401h-12.678z"/></g><g fill="#b8b8b8"><path d="m133.103 273.478h9.931v3.201h-9.931z"/><path d="m195.961 273.478h9.931v3.201h-9.931z"/><path d="m258.381 273.478h9.931v3.201h-9.931z"/><path d="m320.8 273.478h9.931v3.201h-9.931z"/></g><path d="m1159.437 1221.689c-19.469 0-36.393-8.416-54.036-17.19-21.781-10.832-44.305-22.032-74.314-18.966-19.163 1.959-31.191 9.763-41.8 16.655-9.607 6.234-18.693 11.716-31 12.185-19.884.757-26.783-7.725-26.9-8.248v-5.436c.024.094 4.365 9.612 26.876 9.5 11.084-.056 19.266-5.365 28.74-11.511 11.008-7.138 23.487-15.238 43.653-17.3 31.213-3.19 54.289 8.285 76.6 19.382 23.35 11.611 45.631 22.5 73.807 13.053v4.475a63.742 63.742 0 0 1 -21.626 3.401z" fill="#f87117" opacity=".43" transform="translate(-860.707 -981.034)"/><path d="m1042.592 1154.495c-14.371 0-25.769-9.665-36.928-19.126-8.461-7.176-17.239-14.507-27.368-18.121-30.931-11.04-46.745 9.12-46.886 9.3v-6.134c.167-.209 2.988-3.873 11.152-7.372 7.435-3.185 19.905-5.726 37.107.257 10.9 3.791 19.949 11.465 28.71 18.887 17.756 15.053 33.091 28.055 59.721 7.69 20.172-15.424 39.179-30.122 57.9-35.492 18.3-5.252 37.375-1.407 55.233 16.45l-.132 5.569c-37.932-38.1-70.23-13.958-110.454 16.8-10.663 8.137-19.847 11.29-28.055 11.292z" fill="#2da8de" opacity=".22" transform="translate(-860.724 -914.882)"/><path d="m1821.583 683.6-.633-.744 10.515-8.957h6.386l14.488-12.344 9.062 7.72h6.683l3.378 2.877 10.493-8.94h5.328l22.083-18.814.633.744-22.357 19.047h-5.326l-10.853 9.246-3.739-3.183h-6.683l-8.7-7.414-14.128 12.038h-6.386z" fill="url(#a)" transform="translate(-1609.166 -529.686)"/><path d="m1815.244 615.561h-3.634v-.977h3.229l5.456-5.456 3.967 3.969 9.479-9.479 2.915 2.915 9.609-9.609 5.758 5.758h6.565l10.134-10.133h8.74l6.46-6.462h7.909l7.847-7.847.692.692-8.134 8.134h-7.909l-6.46 6.461h-8.74l-10.127 10.132h-7.376l-5.353-5.353-9.609 9.609-2.92-2.915-9.479 9.477-3.967-3.969z" fill="url(#a)" transform="translate(-1601.308 -474.021)"/><path d="m1227.94 376.753a.242.242 0 0 0 -.017-.064 117.624 117.624 0 0 0 -65.113-75.035 117.821 117.821 0 0 0 -62.312-9.347h-.06a117.22 117.22 0 0 0 -28.514 7.287l-.054.022a117.529 117.529 0 1 0 103.763 209.989l4.933 6.858 23.267-16.755-5.616-7.8a117.654 117.654 0 0 0 29.724-115.157zm-86.058 107.383a79.928 79.928 0 0 1 -56.229-149.62q1.138-.446 2.3-.863a79.932 79.932 0 0 1 102.209 48.275q.9 2.521 1.63 5.061a79.938 79.938 0 0 1 -49.91 97.147z" fill="#bdcbd6" transform="translate(-916.289 -232.429)"/><path d="m2044.17 307.452-23.09 6.579-36.016 10.269q-.723-2.538-1.624-5.044a79.425 79.425 0 0 0 -42.51-45.861l15.248-34.147 1.608-3.593 8.2-18.352a141.2 141.2 0 0 1 78.184 90.149z" fill="#2f8e84" transform="translate(-1710.115 -170.332)"/><path d="m1706.676 277.221-1.6 3.594-15.251 34.147a79.5 79.5 0 0 0 -42.265-6.345l-4.6-37.117-.476-3.894a121.418 121.418 0 0 1 64.192 9.615z" fill="#0064b5" transform="translate(-1459.005 -211.901)"/><path d="m1477.083 274.379a79.916 79.916 0 0 0 -17.1 4.086q-1.156.414-2.289.86l-13.684-34.812-4.145-10.534a127.821 127.821 0 0 1 31.212-7.979h.024l.91 7.355.476 3.894z" fill="#004e8c" transform="translate(-1288.533 -177.652)"/><path d="m2202.172 1647.478h-46.172l-32.087-44.564 15.048-10.837 15.359-11.057 7.649 10.624z" fill="url(#b)" transform="translate(-1864.071 -1317.742)"/><path d="m1545.1 131.134a35.282 35.282 0 0 0 -2.611-4.153c-.947-1.1-4.091-1.924-3.664-3.331s4.641-.793 5.8.579 4.7 1.864 4.824 2.443a9.115 9.115 0 0 1 -1.989 4.275 3.93 3.93 0 0 1 -2.36.187z" fill="#6a75ba" transform="translate(-1371.763 -90.865)"/><path d="m1487.833 157.326a33.917 33.917 0 0 0 -4.015-2.782c-1.306-.633-4.519-.141-4.684-1.6s3.943-2.571 5.552-1.772 5.053-.159 5.393.327a9.134 9.134 0 0 1 -.129 4.713c-.491.779-2.117 1.114-2.117 1.114z" fill="#545d94" transform="translate(-1321.565 -114.47)"/><path d="m1571.989 175.139s1.183-8.09 1.129-9.495c-.016-.4 2.435-.252 2.321.519-.249 1.678.882 8.183.685 9.373s-4.243.353-4.135-.397z" fill="#eea886" transform="translate(-1399.693 -126.688)"/><path d="m1534 187.828s-2.221-7.856-2.735-9.163c-.23-.581 2.03-1.481 2.336-.444.476 1.627 4.057 7.16 4.351 8.331s-3.752 2.004-3.952 1.276z" fill="#eea886" transform="translate(-1365.415 -137.052)"/><path d="m1543.717 216.3s-2.379-8.029-2.747-8.883l3.754-2.321s1.745 5.13 1.986 6.411-2.993 4.793-2.993 4.793z" fill="#d9d3c8" transform="translate(-1373.596 -160.067)"/><path d="m1898.236 142s-3.626.917-5.352 3.659-3.217 5.9-6.459 7.335a5.337 5.337 0 0 0 -3.014 5.694c.249.569 10.214 11.765 12.386 12.2s6.242.132 5.807-2.744-4.7-9.068-2.3-12.183a16.531 16.531 0 0 0 3-6.005z" fill="#222538" transform="translate(-1661.642 -106.976)"/><path d="m1947.973 194.951a1.317 1.317 0 0 0 -.282-.052 2.081 2.081 0 0 0 -.849.1 1.978 1.978 0 0 0 -.332.159c-.863.508-2.9 1.886-3.172 1.919-.317.038-.049-4.719-.049-4.719a11.162 11.162 0 0 0 1.223-3.185c.138-1.263 3.461 5.778 3.461 5.778z" fill="#eea886" transform="translate(-1712.011 -146.54)"/><path d="m1593.44 221.014a12.6 12.6 0 0 0 -8.656-1.924c-4.671.871-5.174 3.053-6.778 3.153s-6.96-.36-11.357.923-8.107 1.42-8.61 1.053 2.747-7.695 2.747-8.7l-5.45-1.428s-1.556 6.5-2.167 7.969c-.654 1.567-1.9 4.517-.122 7.082s6.778 1.409 9.8 1.926 16.55.186 18.914.059c2.563-.136 10.31-.5 10.31-.5z" fill="#d9d3c8" transform="translate(-1382.987 -167.631)"/><path d="m1962.176 153.534s.255 3.937-.619 5.117a5.564 5.564 0 0 1 -.747.868 1.714 1.714 0 0 0 -.5.722 13.882 13.882 0 0 1 -.652 2.049c-.216.227-.914-.382-1.161-.384s-2.643 2.062-3.217 1.643-4.07-3.965-3.777-6.4 1.367-6.067 5.306-6.045 5.072 1.452 5.367 2.43z" fill="#eea886" transform="translate(-1719.001 -114.632)"/><path d="m1825.345 221.719a17.573 17.573 0 0 1 -3.109 3.815 3.328 3.328 0 0 1 -1.959.952c-.189 0-.373 0-.552.008-1.819.049-3.218.328-5.677.45-2.552.127-8.746-.228-8.93-.228s-1.968.317-1.968.317c-.635-.779 1.053-9.571 1.374-9.617a13.791 13.791 0 0 0 4.351.412c1.972-.32 2.747-.5 5.679-3.94s5.869-4.3 7.1-4.029a15.6 15.6 0 0 0 3.694 0s.105 11.63-.003 11.86z" fill="#ffc955" transform="translate(-1594.071 -164.032)"/><path d="m1953.662 148.058a8.7 8.7 0 0 0 1.123 2.164s1.416-1.5.508-5.195-4.341-4.043-6.557-3.669c-2.757.476-5.534 9.8-5.393 10.707s3.233-4.822 5.939-4.36 2.726.611 4.38.353z" fill="#222538" transform="translate(-1712.141 -106.337)"/><path d="m1958.767 209.409a2.115 2.115 0 0 0 -.849.111 1.743 1.743 0 0 0 -.338.149 15.735 15.735 0 0 1 -1.24-3.409 23 23 0 0 0 2.427 3.149z" fill="#a77860" transform="translate(-1723.081 -161.043)"/><path d="m1910.911 275.359a3.328 3.328 0 0 1 -1.959.952c-.189 0-.373 0-.552.008l.9-7.289z" fill="#c29941" transform="translate(-1682.745 -213.857)"/><path d="m1929.694 280-1.754 1.6a61.937 61.937 0 0 1 -6.048-4.172c-.768-.652-5.88-4.93-6.583-5.9s-1.605-11.049-1.513-11.511 4.442-.69 4.939.378c0 0 .227 5.745.344 6.706a4.991 4.991 0 0 0 1.139 2.641c.912 1.12 2.855 3.72 4.738 5.821.444.497 4.157 3.937 4.738 4.437z" fill="#eea886" transform="translate(-1687.279 -205.945)"/><path d="m1917.781 225.152s.274-7.65-2.221-7.557c-3.147.121-3.618 3.965-3.191 8.153.008 0 4.709.046 5.412-.596z" fill="#ffc955" transform="translate(-1685.972 -170.58)"/><path d="m1998.161 383.247a1.3 1.3 0 0 0 .574.484c.585.2 1.451-.182 1.88.584s-1.635 2.684-2.191 2.8-1.442-.747-2.135-2.449 1.872-1.419 1.872-1.419z" fill="#eea886" transform="translate(-1756.594 -309.942)"/><path d="m2005.918 388.56a26.427 26.427 0 0 1 2.116 1.83c.934.9 1.883 2.086 1.643 2.309-.327.306-.963-.711-1.948-1.547-.907-.769-.857-.476-.857-.476s-.009-.086.819.937c.888 1.1 1.807 2.4 1.534 2.592-.173.117-.181.149-.569-.2.181.246.14.328.043.408-.5.417-2.062-1.006-2.673-1.572.476.438.773.806.293.863-.549.065-2.663-2.041-3.49-2.727-.899-.742 3.089-2.417 3.089-2.417z" fill="#eea886" transform="translate(-1762.085 -314.427)"/><path d="m1820.979 259.916s-.841 6.02-.427 8.983a1.522 1.522 0 0 0 1.31.062 84.507 84.507 0 0 1 .706-8.906c0-.009-.268-.212-1.589-.139z" fill="#e0e0e0" transform="translate(-1608.735 -206.175)"/><path d="m212.442 0h.65v57h-.65z" fill="#e0e0e0"/><g fill="#fff"><path d="m0 0h12.604v.884h-12.604z" transform="matrix(-1 0 0 -1 326.694 250.535)"/><path d="m0 0h12.604v3.715h-12.604z" transform="matrix(-1 0 0 -1 326.694 255.03)"/><path d="m0 0h7.436v.555h-7.436z" transform="matrix(-1 0 0 -1 315.604 256.835)"/><path d="m0 0h7.436v1.504h-7.436z" transform="matrix(-1 0 0 -1 315.604 258.582)"/><path d="m0 0h.555v10.409h-.555z" transform="matrix(-1 0 0 -1 329.32 255.298)"/></g><path d="m2404.1 1345.853 51.229-3.293.281 29.949h-46.1z" fill="#c5c6cf" transform="translate(-2099.818 -1117.106)"/><path d="m2418.09 1343.063 49.01-.5.281 29.949h-46.1z" fill="#e2e3ed" transform="translate(-2111.589 -1117.106)"/><path d="m2413.2 1122.479s1.164 1.281 1.623.717.98-1.366.98-1.366z" fill="#eea987" transform="translate(-2107.475 -931.388)"/><path d="m2398.132 1047.115 1.5 6.97c-.462-.568-1.269-1.474-1.534-1.2-.376.384.875 2.286 1.09 3.106a18.062 18.062 0 0 0 .779 2.614l.566 1.14 2.5-1.025s-.117-4.969-.211-6.088c-.159-1.819-3.648-5.759-3.994-5.8-.607-.077-.696.283-.696.283z" fill="#aa694a" transform="translate(-2094.71 -868.274)"/><path d="m2696.63 1880.38a11.762 11.762 0 0 0 1.3 2.38c.595.679 2.871 1.878 2.884 3.878.013 2.17-3.837 1.567-5.344 1.489s-1.62-1.239-2.254-2.468-1.269-1.02-1.391-2.011a12.452 12.452 0 0 1 .485-3.209z" fill="#5d4943" transform="translate(-2341.89 -1569.617)"/><path d="m2456.752 1880.775a10.287 10.287 0 0 1 -4.227 2.665c-2.129.462-3.62 1.05-3.636 2.313s6.129 2.1 8.565.823c3.637-1.9 4.007-1.328 4.41-2.279s-.483-3.49-.458-3.794c.032-.376-4.654.272-4.654.272z" fill="#5d4943" transform="translate(-2137.503 -1569.622)"/><path d="m2501.109 1457.55s-2.2 16-3.1 21.413c-1.053 6.326-1.41 11.552-1.7 14.826-.368 4.124-1.077 25.771-1.336 26.975s5.766.6 5.766.6 4.368-28.075 5.468-32.463c1.023-4.084 3.839-20.92 4.773-19.805s6.8 20.812 7.49 24.034 7.36 28.435 7.36 28.435 4.985 1.072 6.253.062c0 0-4.349-23.158-4.791-29.2-.168-2.3-1.53-27.441-5.423-37.616-2.062-5.377-20.76 2.739-20.76 2.739z" fill="#3c4145" transform="translate(-2176.265 -1210.003)"/><path d="m2528.427 1238.792s-5.829 1.205-6.521 1.818c-.752.653-2.076 7.038-2.156 8.818a68.612 68.612 0 0 0 1.454 11.976c.752 2.776.579 17.207.243 19.48a82.843 82.843 0 0 0 23.236.793s-1.994-12.542-1.532-16.338c.585-4.862 2.013-16.055 2.013-16.055s-1.542-7.534-2.569-8.407-8.172-2.286-8.172-2.286z" fill="#ffc955" transform="translate(-2197.12 -1029.627)"/><path d="m2554.7 1124.449s-7.014-2.595-6.575 6.724 2.081 10.267 6.7 8.965 5-7.182 5.6-10.012-3.432-5.271-5.725-5.677z" fill="#aa694a" transform="translate(-2220.982 -933.311)"/><path d="m2567.2 1197.186s3.648 2.955 7.154-1.67a24.631 24.631 0 0 1 .918-7.255c1.077-3.5-7.344 4.673-7.344 4.673.089.062.106.412.055.9a9.982 9.982 0 0 1 -.27 1.448c-.307 1.171-.227.963-.513 1.904z" fill="#aa694a" transform="translate(-2237.048 -986.546)"/><path d="m2558.435 1124.365s.021-2.49-1.015-2.719-1.568 1.21-1.568 1.21l-.833-.046s.744-2.522-.243-3.1-6.892-.07-7.633-.92.334-5.894 1.944-6.389 6.011-1.5 8.807.99c0 0 2.5.016 2.5 3.014a23.37 23.37 0 0 1 -1.959 7.96z" fill="#163342" transform="translate(-2219.971 -922.928)"/><path d="m2570.44 1215.654c5.436-.915 6.248-4.005 6.26-4.054-2.114 2.725-5.991 2.606-5.991 2.606a9.954 9.954 0 0 1 -.269 1.448z" fill="#874e33" transform="translate(-2239.773 -1006.918)"/><path d="m2602.661 1164.549c.317-.82 2.063-.717 1.88.585s-1.624 3.307-2.2 2.931-.107-2.384.32-3.516z" fill="#aa694a" transform="translate(-2266.384 -966.889)"/><path d="m2566.257 1237.462s-3.288 6.646-8.127 6.108-2.035-5.176-1.572-5.915c0 0 2.904-1.863 9.699-.193z" fill="#aa694a" transform="translate(-2227.061 -1028.093)"/><path d="m2408.473 1134c-1.367-2.662-4.373-12.937-4.373-12.937l4.254-.888s2.263 5.169 3.341 8.748a29.151 29.151 0 0 0 1.385 3.731c.157.274 7.4 5.764 8.193 6.167s3.823 1.454 5.274 2.928a3.571 3.571 0 0 1 .744 3.49c-3.075 3.965-8.759-1.187-8.759-1.187s-8.145-6.329-10.059-10.052z" fill="#ffc955" transform="translate(-2099.818 -929.991)"/><path d="m2476.39 1255.29s6.713 7.331 6.944 10.048c.159 1.938 1.375-5.831 1.375-5.831z" fill="#ffc955" transform="translate(-2160.642 -1043.678)"/><path d="m0 0h50.252v31.663h-50.252z" fill="#ff8557" transform="matrix(-1 0 0 -1 359.944 255.402)"/><path d="m2671.073 1504.043a2.883 2.883 0 0 0 .219-.887s-.079-.552-.111-.952a2.54 2.54 0 0 1 -.011-.308 5.246 5.246 0 0 0 -.027-1.672c-.165-.72-1-3.225-1-3.225l-2.259.336-1.962-.266a33.984 33.984 0 0 0 -1.388 4.962 1.759 1.759 0 0 0 .032.2 6.709 6.709 0 0 0 .551 1.259c.036.109.476 1.169.793 1.269a1.12 1.12 0 0 0 1.077-.159 2.678 2.678 0 0 0 1.47-.022 1.665 1.665 0 0 0 1.442-.281c.007.011.87.166 1.174-.254z" fill="#aa694a" transform="translate(-2318.941 -1247.049)"/><path d="m2637.309 1250.459c-.764.3-1.575 2.146-.972 5.774a15.668 15.668 0 0 0 2.448 6.464c.515.912 3.71 6.979 3.7 7.871-.03 2.336.024 8.5-.049 8.975-.127.806-.647 10.1-.647 10.1l4.931 1.194s.972-10.478 1.412-13.641a33.528 33.528 0 0 0 .119-8.229 70.2 70.2 0 0 0 -3.173-11.348c-.321-.594-2.714-9.119-7.769-7.16z" fill="#ffc955" transform="translate(-2295.041 -1039.369)"/><rect fill="#2f8e84" height="110.365" rx="51.483" width="102.966" x="11.675" y="158.44"/><g fill="#fff"><path d="m649.983 1018.943a13.838 13.838 0 1 0 -26.06 9.319c.1.293.219.582.341.863a13.838 13.838 0 0 0 25.718-10.182zm-9.536 14.434a10.366 10.366 0 0 1 -13.007-5.628c-.092-.213-.178-.428-.255-.647a10.374 10.374 0 1 1 13.262 6.275z" opacity=".76" transform="translate(-601.326 -837.095)"/><path d="m687.255 1245.657 14.506.818 11.563-15.949-.782-.566-11.254 15.522-14.449-.815-16.568 18.893-17.345-3.758-17.137 16.17.663.7 16.768-15.822 17.4 3.772z" transform="translate(-611.994 -1022.366)"/><path d="m843.145 1430.939a2.574 2.574 0 1 1 -3.061-1.972 2.574 2.574 0 0 1 3.061 1.972z" transform="translate(-782.175 -1189.758)"/><path d="m947.765 1312.619a2.574 2.574 0 1 1 -3.061-1.972 2.574 2.574 0 0 1 3.061 1.972z" transform="translate(-870.201 -1090.205)"/><path d="m1038.195 1316.229a2.574 2.574 0 1 1 -3.061-1.972 2.575 2.575 0 0 1 3.061 1.972z" transform="translate(-946.287 -1093.243)"/><path d="m733.525 1408.709a2.574 2.574 0 1 1 -3.061-1.972 2.575 2.575 0 0 1 3.061 1.972z" transform="translate(-689.943 -1171.054)"/><path d="m38.49 247.77h10.54v2.03h-10.54z"/><path d="m45.821 226.941h10.54v2.03h-10.54z"/><path d="m67.685 241.456h10.54v2.03h-10.54z"/><path d="m77.141 212.951h10.54v2.03h-10.54z"/><path d="m92.449 229.935h10.54v2.03h-10.54z"/></g><path d="m0 0h3.123v8.366h-3.123z" fill="url(#c)" transform="translate(57.876 182.984)"/><path d="m0 0h3.123v7.996h-3.123z" fill="url(#c)" transform="translate(63.361 178.354)"/><path d="m0 0h3.125v7.573h-3.125z" fill="url(#d)" transform="translate(69.118 180.776)"/><path d="m0 0h3.123v4.95h-3.123z" fill="url(#e)" transform="translate(75.031 186.399)"/><g fill="#2c546e"><path d="m57.876 189.337h3.123v11.013h-3.123z"/><path d="m63.361 186.399h3.123v13.95h-3.123z"/><path d="m69.118 187.936h3.125v12.413h-3.125z"/><path d="m75.031 191.667h3.123v8.683h-3.123z"/></g><path d="m0 0h3.123v5.651h-3.123z" fill="url(#e)" transform="translate(81.05 188.699)"/><path d="m0 0h3.123v11.219h-3.123z" fill="url(#c)" transform="translate(86.535 180.131)"/><path d="m0 0h3.123v8.511h-3.123z" fill="url(#f)" transform="translate(92.292 183.839)"/><path d="m0 0h3.123v6.507h-3.123z" fill="url(#c)" transform="translate(98.205 174.842)"/><g fill="#2c546e"><path d="m81.05 194.143h3.123v6.207h-3.123z"/><path d="m86.535 191.099h3.123v9.251h-3.123z"/><path d="m92.292 192.094h3.123v8.256h-3.123z"/><path d="m98.205 181.393h3.123v18.956h-3.123z"/></g><path d="m490.445 1472.5a4.182 4.182 0 0 1 .546 1.445 6.816 6.816 0 0 0 .666 1.705 15.634 15.634 0 0 1 .811 2.842 13.293 13.293 0 0 0 -.382 1.9c.063.412.3 1.228-.068 1.282s-.793-.614-.793-.614a.542.542 0 0 1 -.278.523.912.912 0 0 1 -.929.033s-.225.417-.506.476a1.146 1.146 0 0 1 -.925-.124 1.125 1.125 0 0 1 -.7.225.924.924 0 0 1 -.78-.485s-.695.141-.9-.184a3.139 3.139 0 0 1 -.251-.963 11.206 11.206 0 0 1 .882-4.859 4.3 4.3 0 0 0 -.23-3.774z" fill="#eea886" transform="translate(-485.904 -1225.955)"/><path d="m491.2 1509.3s.062-2.379-.565-2.887-.7.352-.7.352.086-.85-.6-.964-.714.895-.714.895a.661.661 0 0 0 -.831-.52c-.72.135-.549.969-.549.969s-.687-.818-1.133-.032a3.508 3.508 0 0 0 -.027 2.9s.213.36.9.184a.947.947 0 0 0 1.483.26s1.048.577 1.428-.349a.87.87 0 0 0 1.308-.808z" fill="#db9c7c" transform="translate(-485.769 -1254.447)"/><path d="m499.179 1229.743s-4.076 13.584-5.453 18.595c-.431 1.572-1.477 16.579-1.662 17.183s-5.353 1.428-5.353 1.428.634-18.774.684-19.8 5.71-21.989 7.347-22.738c1.229-.56 1.88-.1 3.429 1.055 2.174 1.62 1.008 4.277 1.008 4.277z" fill="#4c5385" transform="translate(-486.561 -1017.498)"/><path d="m847.46 1107.887a2.439 2.439 0 0 1 -.24.739s-.306.365-.508.634a2.166 2.166 0 0 0 -.146.217 4.5 4.5 0 0 1 -.771 1.2c-.444.451-2.175 1.883-2.175 1.883l-1.483-1.258-1.539-.69a29.035 29.035 0 0 1 1.226-4.214 1.482 1.482 0 0 1 .113-.127 5.638 5.638 0 0 1 .964-.665c.075-.062.868-.635 1.15-.56a.952.952 0 0 1 .711.595 2.291 2.291 0 0 1 1.055.677 1.418 1.418 0 0 1 .915.852c.002-.008.698.267.728.717z" fill="#efaa88" transform="translate(-784.318 -917.259)"/><path d="m690.3 1264.166 1.052-.389s-1.313-3.084-1.886-3.014a14.5 14.5 0 0 0 -1.485.3z" fill="#ead8cf" transform="translate(-655.906 -1048.283)"/><path d="m668.393 1263.635c-.135-.1-2.238-4.135-2.238-4.135l-4.5.611 2.433 4.781z" fill="#da9b5b" transform="translate(-633.761 -1047.22)"/><path d="m518.572 1842.239s-.373 2.579-.419 2.966-4.134-.228-4.134-.228l-.33-3.069s4.372-.029 4.883.331z" fill="#424773" transform="translate(-509.262 -1537.247)"/><path d="m514.8 1859.725a11.105 11.105 0 0 0 2.538 2.232c1.244.677 3.22.952 3.965 1.646.535.506 1.948 2.686-3.253 2.641s-7.709.308-8.266-.527.806-6.167.806-6.167a11.013 11.013 0 0 0 4.21.175z" fill="#292c47" transform="translate(-505.86 -1552.092)"/><path d="m703.171 1842.239s-.371 2.579-.417 2.966-4.134-.228-4.134-.228l-.33-3.069s4.37-.029 4.881.331z" fill="#424773" transform="translate(-664.581 -1537.247)"/><path d="m699.4 1859.724a11.058 11.058 0 0 0 2.547 2.232c1.252.677 5.869 1.234 6.6 1.935.535.506 1.428 2.538-5.894 2.352-5.2-.135-7.709.308-8.267-.527s.807-6.167.807-6.167a9.97 9.97 0 0 0 4.207.175z" fill="#292c47" transform="translate(-661.185 -1552.092)"/><path d="m518.569 1426.26s-3.84 6.1-3.553 11.616-1.393 11.535-1.97 17.289c-.642 6.422-3.274 21.628-3.369 25.062s.408 14.406.408 14.406l5.268.121s4.425-26.58 5.571-29.292 6.828-22.048 7.019-24.218-9.374-14.984-9.374-14.984z" fill="#292c47" transform="translate(-505.875 -1187.529)"/><path d="m575.766 1421.511s2.893 15.115 3.276 18.49.634 16.338.826 18.444 1.784 27.541 2.292 30.739h-6.735s-5.169-18.535-5.169-27.3-3.994-19.064-6.572-24.851-8.48-5.923-10.064-16.655c0-.006 20-2.273 22.146 1.133z" fill="#292c47" transform="translate(-542.858 -1181.954)"/><path d="m589.081 1100.394s5.153-1.926 7.53 2 2.148 11.777-.451 12.743-6.5.46-7.831-1.994-2.538-6.005-2.473-8.377a5.18 5.18 0 0 1 3.225-4.372z" fill="#eea886" transform="translate(-569.979 -912.954)"/><path d="m603.394 1171.051a4.455 4.455 0 0 0 .141 2.078c.355.687-6.678.7-6.678.7a46.364 46.364 0 0 0 -1.653-6.879c-1.082-3.15 8.19 4.101 8.19 4.101z" fill="#eea886" transform="translate(-577.772 -968.685)"/><path d="m585.119 1108.071s.485.793 2.466.49 4.4-2.946 5.225-3.236.834-.776.834-.776l.519.757.879.055s-.8-2.357.408-3.318-1.255-7.631-7.614-5.41c0 0-4.879 1.345-4.7 4.124s.892 5.932 1.983 7.314z" fill="#353a3d" transform="translate(-567.687 -909.808)"/><path d="m608.928 1199.362s-.022-1.308-.615-1.427-6.554-.7-7.282-.412v1.526s1.403.862 7.897.313z" fill="#e2d2ca" transform="translate(-582.748 -995.007)"/><path d="m638.8 1137.205c-.111-.465-1.3-1.8-1.745-.371s.684 3.341 1.318 3.172.709-1.622.427-2.801z" fill="#eea886" transform="translate(-612.973 -943.473)"/><path d="m799.87 1307.1h-.01c.04.017.046.019.01 0z" fill="#323657" transform="translate(-750.04 -1087.27)"/><path d="m559.852 1149.784c-4.086-.539-9.857-1.984-9.857-1.984l-7.9-.317s-7.249 1.6-10.1 2.884c-.271.122-.273 6.467-1.015 8.131l2.367 4.992s1.367 9.891 1.651 14.29c.13 2.019-2.82 18.934-2.82 18.934a54.443 54.443 0 0 0 8.551 1.524c5.39.593 18.857-.214 18.942-.852s-2.609-23.7-2.728-24.9c-.182-1.834.634-11.579.634-11.579 1.244-.964 12.171-6.037 15.151-8.68.793-.707 4.165-3.986 5.122-5.119a90.706 90.706 0 0 0 6.5-8.188c.384-.42-3.683-2.631-4.051-2.755-.317-.108-4.9 5.829-6.662 7.739a50.61 50.61 0 0 1 -4.054 3.229s-7.183 2.802-9.731 2.651z" fill="#4c5385" transform="translate(-523.809 -943.445)"/><path d="m581.126 1105.82s-6.572.514-.2 10.359z" fill="#353a3d" transform="translate(-563.492 -917.917)"/><path d="m1086.258 1851a6.578 6.578 0 0 1 -3.331 2.517c-1.948.455-3.853 1.159-3.867 2.379s5.612 1.956 7.833.72c3.317-1.843 3.648-1.286 4.021-2.208s-.443-3.385-.419-3.678c.036-.35-4.237.27-4.237.27z" fill="#353a3d" transform="translate(-984.953 -1544.581)"/><path d="m1124.637 1843.411a9.069 9.069 0 0 0 -.216 1.021c.036.021 4.375.538 4.243-.265-.106-.65-.257-1.358-.257-1.358z" fill="#81807e" transform="translate(-1023.117 -1538.007)"/><path d="m1185.215 1849.449a6.091 6.091 0 0 1 -2.673 2.655c-1.8.722-3.249 1.55-3.215 2.744s4.406 2.4 7.588.113c2.011-1.448 2.647-1.455 2.971-2.367s-.56-3.279-.549-3.566c.016-.353-4.122.421-4.122.421z" fill="#353a3d" transform="translate(-1069.316 -1543.162)"/><path d="m1216.14 1841.609a9.939 9.939 0 0 0 .049 1.028c.036.019 4.229.365 4.124-.42a6.432 6.432 0 0 0 -.406-1.377z" fill="#81807e" transform="translate(-1100.29 -1536.349)"/><path d="m1088.02 1439.894s-3.894 17.177-4.784 22.408c-.757 4.452-1.359 9.09-1 12.3.449 3.98 6.083 24.607 5.848 25.774s5.894.187 5.894.187-4.283-23.009-3.428-27.282c.635-3.172 6.186-24.24 7.04-23.158s1.9 19.884 2.538 23 2.567 27.785 2.567 27.785 4.327.635 5.482-.339c0 0 .526-21.06.125-26.911-.159-2.23 2.612-26.74-.934-36.608-1.875-5.216-19.348 2.844-19.348 2.844z" fill="#2d3133" transform="translate(-987.537 -1195.131)"/><path d="m1009.118 1237.026c2.776-.389 11.508 3.478 12.3 3.187.546-.2 1.826-4.373 2.741-7.531.541-1.867.952-3.38 1.01-3.505a18.887 18.887 0 0 0 .03 3.388c.011.12.025.244.04.37a.3.3 0 0 0 .011.1 16.857 16.857 0 0 0 .393 2.113 19.285 19.285 0 0 1 .458 3.966.278.278 0 0 0 0 .035v.144c.076 2.7-.109 5.62-.187 7.171a5.637 5.637 0 0 0 .692 3.517l.838-.117.6-.086.807-.112 3.172-.446 1.147-.159.271-.038 2-.282 5.656-.793.622-.087.255-.036 2.134-.3.963-.135s.82-5.807.882-8.946c.057-2.884 1.6-8.737 1.853-9.676v-.044l.013-.041a.083.083 0 0 1 0-.021.056.056 0 0 0 0-.011s4.617 4.851 5.512 6.967c.275.642 1.11 2.389 2.172 4.516a12.762 12.762 0 0 0 1.183-2.593v-.1c-.068-2.092-2.26-10.577-3.991-16.12a30.962 30.962 0 0 0 -2.874-5.152 39.562 39.562 0 0 0 -5-2.24l-.2-.079c-.192-.078-.382-.151-.568-.224l-.273-.1-.146-.056-.119-.046a15.923 15.923 0 0 0 -1.983-.677h-.128a2.161 2.161 0 0 0 -.262.013c-1.278.075-5.093.431-6.321.549l-.382.036-1.466.668-.083.036c-.531.244-1.148.569-1.8.926-1.277.7-2.685 1.516-3.856 2.073-1.145.546-2.716 1.305-2.855 1.412l-5.809 16.752-10.079-1.842z" fill="#decbc4" transform="translate(-925.586 -1007.877)"/><path d="m1119.809 1433.705s-.425.509-.549 2.665c0 0 17.5-2.041 19.351-2.845 0 0 .073-2.379-.317-2.417-.436-.045-18.485 2.597-18.485 2.597z" fill="#495055" transform="translate(-1018.777 -1191.607)"/><path d="m1178.894 1175.672c-.055 2.746-5.372 4.249-5.372 4.249s-2.221-2.789-1.693-3.057c.208-.1.293-.52.317-.987a9.838 9.838 0 0 0 -.03-1.247c-.016-.194-.03-.317-.03-.317s.76-.793 1.726-1.756c1.689-1.67 4.011-3.807 4.015-2.958a.826.826 0 0 1 -.019.159c-.408 1.917 1.086 5.914 1.086 5.914z" fill="#eea886" transform="translate(-1062.94 -971.418)"/><path d="m1214 1433.248s.381 2.408.414 3.036l.811-.159s-.224-2.547-.355-2.976z" fill="#353a3d" transform="translate(-1098.49 -1193.326)"/><path d="m1130.237 1445.131s-.306 2.189-.317 3.014l.856-.111s.176-2.733.273-3.014z" fill="#353a3d" transform="translate(-1027.747 -1203.314)"/><path d="m1176.015 1183.53c-.01.016-.235.352-.62.838a11.159 11.159 0 0 1 -4.077 3.391 9.861 9.861 0 0 0 -.03-1.247 2.708 2.708 0 0 1 -.528-.063 16.264 16.264 0 0 1 1.156-1.693l1.068-.317z" fill="#a77860" transform="translate(-1062.109 -983.301)"/><path d="m1158.013 1121.839c-.46 1-.9 1.726-1.02 2.013a3.565 3.565 0 0 1 -.62.838 6.1 6.1 0 0 1 -4.107 2.144 2.718 2.718 0 0 1 -.528-.063 2.507 2.507 0 0 1 -1.83-1.269 14.385 14.385 0 0 1 -.915-11.806s9.071-2.565 10.489.159c.995 1.927-.389 5.629-1.469 7.984z" fill="#eea886" transform="translate(-1043.087 -923.622)"/><path d="m1147.562 1089.823s-.842-.046-1.05-1.643.209-2.016.209-2.016a37.437 37.437 0 0 1 5.09-1.77c1.345-.2 4.651-.4 5.426.487 0 0 1.883-.438 2.4 2.688.814 4.958-2.774 9.774-2.774 9.774s.03-3.239-.684-3.669-1.331.592-1.331.592l-1.462.262s2.221-4.793-.443-4.971-3.856.543-5.381.266z" fill="#163342" transform="translate(-1041.658 -899.744)"/><path d="m1199.359 1132.156c.14-1.428 2.72-1.973 2.547-.476s-1.443 2.934-2.032 2.884-.622-1.319-.515-2.408z" fill="#eea886" transform="translate(-1086.131 -938.925)"/><path d="m1205.442 1241.076v-.1a80.772 80.772 0 0 0 -2.808-15.987c-.839-2.7-1.033-4.573-1.358-4.8-.563-.4-5.575-1.888-7.7-2.72l-.2-.079c-.192-.078-.382-.151-.568-.224l-.273-.1-.146-.056-.119-.046-.011.013a34.466 34.466 0 0 0 -2.348 3c-2.2 3.123-5.057 8.178-4.617 12.848.14 1.5.317 3.648.6 6.066.025.208.052.416.078.625.071.557.149 1.125.233 1.7q.076.517.159 1.041c.58 3.621 2.4 6.089 4.022 9.041.014.024.027.049.041.074l.024.043.1.189c.056.1.109.208.159.317.032.06.064.12.094.181.317.595.614 1.2.907 1.813q.285.59.56 1.183l.056.122.681 1.586c.141.327.292.679.444 1.034.1.244.211.489.317.726.09.208.176.409.258.6.184.428.344.8.455 1.066.084.2.14.328.159.374.557 1.393.952 2.468 1.145 2.969l.113.317 5.6-3.09c1.063-.531.508-3.4.108-4.516a25.641 25.641 0 0 0 -1.326-2.958c-.216-.422-.441-.849-.671-1.278 1.745-3.061 3.525-6.218 4.649-8.362a13.583 13.583 0 0 0 1.183-2.612zm-8.9-8.76v-.044a.059.059 0 0 1 .013-.041.083.083 0 0 1 0-.021s2.724 4.256 2.517 7.953a17.508 17.508 0 0 1 -1.437 3.894c-.3.68-.635 1.413-1 2.178-.014-.03-.027-.063-.04-.1a9.659 9.659 0 0 1 -.86-3.505c.018-.016.248-8.128.806-10.326z" fill="#3c4145" transform="translate(-1074.296 -1011.428)"/><path d="m982.968 1238.174 12.675 2.76 6.043-15.8c.133-.1 1.865-1.037 3.014-1.586 1.194-.569 2.7-1.269 4.045-1.889l1.745-.807.043.033a74.674 74.674 0 0 0 -1.716 8.71c-.033.209-.065.422-.1.635a.18.18 0 0 1 -.011.076c-.022.143-.044.289-.065.436v.052c-.016.1-.03.2-.044.3q-.056.368-.109.752c-.431 3.026-1.037 8.177-1.619 13.378-.46 4.1-1.508 8.305-1.842 11.444a21.851 21.851 0 0 1 -.436 2.359c-.024.1-.049.211-.075.317-.937 3.966-2.758 9.57-2.758 9.57l-.53-.49-1.57-1.45a1.269 1.269 0 0 1 -.352-1.313c.871-2.809 3.831-12.753 4.373-19.745a23.411 23.411 0 0 0 -.844-6.227.46.46 0 0 0 -.019.051c-.317.866-.657 1.81-1.006 2.727-.934 2.464-1.889 4.748-2.287 4.892-.887.327-17.576-4.237-17.692-4.892z" fill="#3c4145" transform="translate(-903.146 -1014.701)"/><path d="m1190.815 1223.726-2.585 1.459 1.11 1.128-2.94 15.887c-.6-3.724-.872-7.262-1.075-9.43-.677-7.22 6.527-15.362 6.979-15.862.346.132.72.276 1.11.43z" fill="#51565c" transform="translate(-1074.323 -1011.386)"/><path d="m1140.106 1220.64a83.509 83.509 0 0 0 -2.094 11.035c-.431 3.028-1.037 8.18-1.619 13.379l-.6-14.881 1.233-1.334-1.1-1.369 2.344-5.986 1.745-.807z" fill="#51565c" transform="translate(-1032.685 -1014.524)"/><path d="m1190.447 1210.2-2.145-1.3s-.06 1.177-5.372 4.249l1.508 4.248z" fill="#f5e2d9" transform="translate(-1072.348 -1004.647)"/><path d="m1164.745 1212.64a9.957 9.957 0 0 0 1.413 3.648l-2.944 3.837-.214-6.225z" fill="#f5e2d9" transform="translate(-1055.579 -1007.793)"/><path d="m1173.5 1235.69a9.977 9.977 0 0 1 .365 2.92 2.783 2.783 0 0 1 -2.156-.114 10.031 10.031 0 0 1 1.791-2.806z" fill="#323657" transform="translate(-1062.908 -1027.187)"/><path d="m1163.623 1407.97a43.069 43.069 0 0 1 0-6.64l.274.018a44.033 44.033 0 0 0 0 6.568z" fill="#ad9f99" transform="translate(-1055.982 -1166.553)"/><path d="m1160.3 1438.51s-2.574.308-3.426.52l.111 2.885 3.372-.36z" fill="#69737a" transform="translate(-1050.422 -1197.836)"/><path d="m1161.9 1250.391a40.49 40.49 0 0 0 -2.4 15.369c.485 8.416 1.282 11.468 1.282 11.468l1.77 2.221.782-2.73a66.837 66.837 0 0 1 -.842-21.171c.278-1.891.69-5.477.69-5.477z" fill="#323657" transform="translate(-1052.586 -1039.286)"/><path d="m1214.747 1467.946s-.615 1.233-1.233 1.439a5.335 5.335 0 0 0 -1.515 1.207l4.34 2.284a11.86 11.86 0 0 0 1.206-3.7c.055-1.436-2.798-1.23-2.798-1.23z" fill="#eea886" transform="translate(-1096.807 -1222.594)"/><path d="m1225.2 1468.73-.287.579a19.835 19.835 0 0 0 3.5 2.143l.254-.769z" fill="#decbc4" transform="translate(-1107.669 -1223.263)"/><path d="m1224.91 1395.151a20.959 20.959 0 0 0 3.807 2.5l5.853-10.527-3.033-5.869s-6.491 12.87-6.627 13.896z" fill="#3c4145" transform="translate(-1107.669 -1149.659)"/><path d="m1108.408 1290.813c-.1 1.946-.081 3.677-.081 3.677v.149a.984.984 0 0 0 -.011-.1c-.317.866-.657 1.81-1.006 2.727a29.238 29.238 0 0 1 -.078-2.973c.14-5.46 1.857-8.324 1.857-8.324a18.17 18.17 0 0 0 -.681 4.844z" fill="#2d3133" transform="translate(-1008.65 -1069.492)"/><path d="m1255.146 1439.281-4.686 5.66 4.019-6.941c.23.433.456.86.667 1.281z" fill="#2d3133" transform="translate(-1129.166 -1197.407)"/><path d="m974.68 1281.394h-10.818a1.607 1.607 0 0 1 -1.562-1.228l-4.7-19.4a1.607 1.607 0 0 1 1.561-1.984h10.819a1.607 1.607 0 0 1 1.562 1.229l4.7 19.4a1.607 1.607 0 0 1 -1.561 1.984z" fill="#d9c9c2" transform="translate(-882.723 -1046.615)"/><path d="m972.142 1330.749c.53-.49 1.55-.776 2.425-1.359a.685.685 0 0 0 .143-1.186c.9-.308.8-.719.687-1-.159-.378-1.136-.271-1.136-.271a9.659 9.659 0 0 0 1.242-.354c.362-.159.238-.793-.317-.991a9.989 9.989 0 0 0 -2.825.36s.37-.181 1.489-.742 1.364-1.072.7-1.318c-.458-.17-1.359.187-3.09 1.35-1.3.876-1.2.988-1.2.988s1.249 5.101 1.882 4.523z" fill="#eea886" transform="translate(-893.417 -1101.362)"/><path d="m1405.661 1619h48.222l-15.2 46.673 1.421.463 15.835-48.631h-51.367l-15.684 48.168 1.421.463z" fill="#898fbf" transform="translate(-1245.639 -1348.443)"/><path d="m1506.548 1665.678-15.2-46.673h48.222l15.349 47.136 1.421-.463-15.684-48.168h-51.366l15.836 48.631z" fill="#898fbf" transform="translate(-1330.114 -1348.443)"/><path d="m155.534 283.762h59.022v1.494h-59.022z" fill="#898fbf"/><path d="m149.455 299.992h70.615v1.494h-70.615z" fill="#898fbf"/><path d="m1582.72 892.561s1.2-2.1-.7-7.742a5.682 5.682 0 0 0 -10.255-1.464c-2.027 3.494-1.344 5.663 1.642 9.607s8.066 1.403 9.313-.401z" fill="#eea886" transform="translate(-1398.528 -728.524)"/><path d="m1531.481 1565.315s-.317 2.314-.355 2.663-3.513-.206-3.513-.206l-.282-2.755s3.715-.029 4.15.298z" fill="#eea886" transform="translate(-1362.12 -1304.276)"/><path d="m1528.289 1581.031a9.569 9.569 0 0 0 2.165 2c1.064.608 2.738.849 3.367 1.478.454.455 1.654 2.411-2.766 2.379s-6.554.276-7.027-.476.685-5.536.685-5.536a12.412 12.412 0 0 0 3.576.155z" fill="#152b3d" transform="translate(-1359.247 -1317.624)"/><path d="m1683.146 1565.3s-.317 2.314-.355 2.663-3.513-.206-3.513-.206l-.278-2.757s3.712-.028 4.146.3z" fill="#eea886" transform="translate(-1489.732 -1304.26)"/><path d="m1679.929 1581.031a9.572 9.572 0 0 0 2.165 2c1.064.608 4.982 1.11 5.612 1.745.454.455 1.211 2.284-5.01 2.113-4.421-.122-6.554.276-7.027-.476s.685-5.536.685-5.536a18.372 18.372 0 0 0 3.575.154z" fill="#152b3d" transform="translate(-1486.834 -1317.624)"/><path d="m1530.586 1203.42a34.367 34.367 0 0 0 -1.546 10.31c.235 4.775-.922 9.993-1.394 14.972-.525 5.552-2.681 18.706-2.758 21.677s.327 12.456.327 12.456l4.314.1s3.623-22.99 4.562-25.336 5.591-19.069 5.748-20.947-9.253-13.232-9.253-13.232z" fill="#ffc05c" transform="translate(-1360.056 -1000.036)"/><path d="m1578.724 1193.558s2.619 14.634 2.931 17.554.52 14.128.677 15.952 1.042 23.877 1.876 26.588h-4.808s-4.939-16.032-4.939-23.615-3.271-16.5-5.382-21.494-6.944-5.124-8.248-14.409c.005 0 16.135-3.522 17.893-.576z" fill="#ffc05c" transform="translate(-1390.306 -990.749)"/><path d="m1595.449 955.59a4.193 4.193 0 0 0 0 2.708c.542 1.121-6.933.45-6.933.45a8.065 8.065 0 0 0 -.635-4.245c-.972-1.914 7.568 1.087 7.568 1.087z" fill="#eea886" transform="translate(-1413.002 -790.064)"/><path d="m1558.68 1201.543s2.7 2.762 18.474-.431l-.24-1.351-17.946.676z" fill="#ffc05c" transform="translate(-1388.497 -996.956)"/><path d="m1511.327 882.1s2.762.282 3.55.433 6.1-.952 7.188-1.063 5.734-3.3 5.883-3.67 2.827-7.151 2.977-8.616 2.606-.709 2.4.3c-.393 1.888-.9 6.472-1.177 7.8-.3 1.428-1.1 4.684-1.553 5.076a32.615 32.615 0 0 1 -8.724 4.933 34.841 34.841 0 0 0 -7.177 3.344h-20.182s-7.849-11.219-8.017-12.91 5.482-12.926 6.608-14.334 2.758.46 2.758.46-3.377 9.907-3.827 11.317 3.927 7.6 5.13 7.614 4.283-.374 5.659-.431a9.578 9.578 0 0 0 2.817-.657z" fill="#eea886" transform="translate(-1327.755 -713.5)"/><path d="m1533.563 972.85a6.52 6.52 0 0 0 -2.7 4.459 57.354 57.354 0 0 1 -1.586 8.791c-.46 1.521.395 12.564.507 13.354s-15.614 2.663-18.03.793c0 0-.676-10.31-.952-13.241a76.186 76.186 0 0 0 -2.084-10.988c-.45-.958-5.917-8.624-6.142-9.634 0 0 2.827-4.508 4.856-4.563 0 0 3.221 3.775 4.271 3.943s7.49-1.01 7.49-1.02.7.952 4.441-.17c0 0 4.441.5 5.173.593.875.113 6.968-.765 6.968-.765s2.443 4.124 2.016 6.212z" fill="#254380" transform="translate(-1341.295 -796.758)"/><path d="m1752.281 848.928s.55-2.611-.113-3.361c-.379-.427-1.288-1.556-1.37-1.723s-1.058-.727-1.058-1 .952-.6 1.784.167 1.35.934 1.681.85.809-2.844.85-3.528.306-2.492.734-2.367.408.914.408.914.5-1.37.83-1.1.292.934.292.934.622-.768.793-.208a1.93 1.93 0 0 1 0 1.058s.644-.352.685.52a13.247 13.247 0 0 1 -.644 4.337c-.457.912-2.165 3.3-2.37 4.235s-2.502.272-2.502.272z" fill="#eea886" transform="translate(-1549.252 -692.366)"/><path d="m1529.661 817.12s1.876-3.157 2.516-3.437a10.7 10.7 0 0 0 2.328-1.006c.788-.563 1.832-1.033 1.775-1.22s-.985-.113-1.981.317-1.427.224-1.526 0a5.745 5.745 0 0 1 .831-2.192c.3-.376 2.441-2.528 2.084-2.847s-1.745.863-1.972 1.11c0 0 1.11-2.328.676-2.441s-1.239.714-1.239.714.094-1.991-2.048 1.239c0 0 .45-1.071-.206-.714s-1.3 2.367-1.5 3.382-1.144 4.245-1.943 5.023 2.205 2.072 2.205 2.072z" fill="#eea886" transform="translate(-1362.109 -665.143)"/><path d="m1571.375 890.464a8.574 8.574 0 0 0 3.093-.634c2.1-.722 2.26-4.4 2.716-3.965a1.33 1.33 0 0 0 2.156-.251s-1.026-1.353-.55-2a5.05 5.05 0 0 1 1.25-1.128s-1.48-7.13-8.212-3.881c-7.89 3.795-.453 11.859-.453 11.859z" fill="#c28753" transform="translate(-1396.507 -726.025)"/><path d="m1598.2 976.288-.238-1.031a54.737 54.737 0 0 0 -6.641.252l-.247 1.232a9.235 9.235 0 0 0 7.126-.453z" fill="#254380" transform="translate(-1415.75 -808.055)"/><path d="m1618.619 920.177c-.39-.649-1.833-1.086-2 .752-.132 1.428 2.581 2.98 2.6 1.653a4.015 4.015 0 0 0 -.6-2.405z" fill="#eea886" transform="translate(-1437.239 -761.248)"/><path d="m1765.331 904.49a4.279 4.279 0 0 1 2.3.719 1.544 1.544 0 0 1 -.125.771 9.237 9.237 0 0 0 -2.379-.744s.024-.565.204-.746z" fill="#e55353" transform="translate(-1562.2 -748.521)"/><path d="m1771.125 904.767a.668.668 0 1 1 -.874-.355.668.668 0 0 1 .874.355z" fill="#353a3d" transform="translate(-1566.165 -748.412)"/></svg>