<?xml version="1.0" encoding="UTF-8"?> <svg xmlns="http://www.w3.org/2000/svg" xmlns:xlink="http://www.w3.org/1999/xlink" width="308.48" height="312.783" viewBox="0 0 308.48 312.783"><defs><filter id="Caminho_793" x="0" y="0" width="222.783" height="312.783"><feOffset dy="3"></feOffset><feGaussianBlur stdDeviation="3" result="blur"></feGaussianBlur><feFlood flood-opacity="0.161"></feFlood><feComposite operator="in" in2="blur"></feComposite><feComposite in="SourceGraphic"></feComposite></filter><filter id="Caminho_799" x="70.074" y="107.891" width="88.333" height="88.333"><feOffset dy="3"></feOffset><feGaussianBlur stdDeviation="3" result="blur-2"></feGaussianBlur><feFlood flood-color="#455aff"></feFlood><feComposite operator="in" in2="blur-2"></feComposite><feComposite in="SourceGraphic"></feComposite></filter><filter id="Caminho_801" x="134.716" y="10.891" width="88.333" height="88.333"><feOffset dy="3"></feOffset><feGaussianBlur stdDeviation="3" result="blur-3"></feGaussianBlur><feFlood flood-color="#735cc4"></feFlood><feComposite operator="in" in2="blur-3"></feComposite><feComposite in="SourceGraphic"></feComposite></filter><filter id="Caminho_800" x="0.459" y="205.891" width="88.333" height="88.333"><feOffset dy="3"></feOffset><feGaussianBlur stdDeviation="3" result="blur-4"></feGaussianBlur><feFlood flood-color="#f67f74"></feFlood><feComposite operator="in" in2="blur-4"></feComposite><feComposite in="SourceGraphic"></feComposite></filter><filter id="Caminho_808" x="141.425" y="147.891" width="40.957" height="19"><feOffset dy="3"></feOffset><feGaussianBlur stdDeviation="3" result="blur-5"></feGaussianBlur><feFlood flood-color="#455aff" flood-opacity="0.161"></feFlood><feComposite operator="in" in2="blur-5"></feComposite><feComposite in="SourceGraphic"></feComposite></filter></defs><g id="Grupo_273" data-name="Grupo 273" transform="translate(-446.02 -17.109)"><g transform="matrix(1, 0, 0, 1, 446.02, 17.11)" filter="url(#Caminho_793)"><path id="Caminho_793-2" data-name="Caminho 793" d="M0,292l46.949-67.867L62.6,201.51,202,0" transform="translate(10.39 7.39)" fill="#ffff30" stroke="#707070" stroke-linecap="round" stroke-width="2" opacity="0.5"></path></g><text id="_1453" data-name="1453" transform="translate(662.5 180.5)" fill="#052b4c" stroke="#052b4c" stroke-width="1" font-size="24" font-family="BancoDoBrasilTextos-Medium, BancoDoBrasil Textos" font-weight="500" letter-spacing="0.01em"><tspan x="-28.128" y="0">1453</tspan></text><text id="_1139" data-name="1139" transform="translate(592.442 276.5)" fill="#052b4c" stroke="#052b4c" stroke-width="1" font-size="24" font-family="BancoDoBrasilTextos-Medium, BancoDoBrasil Textos" font-weight="500" letter-spacing="0.01em"><tspan x="-26.424" y="0">1139</tspan></text><g transform="matrix(1, 0, 0, 1, 446.02, 17.11)" filter="url(#Caminho_799)"><g id="Caminho_799-2" data-name="Caminho 799" transform="translate(79.07 113.89)" fill="#455aff"><path d="M 35.16668701171875 69.8333740234375 C 30.48649787902832 69.8333740234375 25.94656753540039 68.9168701171875 21.67300796508789 67.10929870605469 C 17.54497718811035 65.36329650878906 13.83752727508545 62.86362838745117 10.65363693237305 59.67973709106445 C 7.469747066497803 56.49584579467773 4.970077037811279 52.78839874267578 3.224076986312866 48.66036605834961 C 1.416507005691528 44.38680648803711 0.4999970197677612 39.84687805175781 0.4999970197677612 35.16668701171875 C 0.4999970197677612 30.48649787902832 1.416507005691528 25.94656753540039 3.224076986312866 21.67300796508789 C 4.970077037811279 17.54497718811035 7.469747066497803 13.83752727508545 10.65363693237305 10.65363693237305 C 13.83752727508545 7.469747066497803 17.54497718811035 4.970077037811279 21.67300796508789 3.224076986312866 C 25.94656753540039 1.416507005691528 30.48649787902832 0.4999970197677612 35.16668701171875 0.4999970197677612 C 39.84687805175781 0.4999970197677612 44.38680648803711 1.416507005691528 48.66036605834961 3.224076986312866 C 52.78839874267578 4.970077037811279 56.49584579467773 7.469747066497803 59.67973709106445 10.65363693237305 C 62.86362838745117 13.83752727508545 65.36329650878906 17.54497718811035 67.10929870605469 21.67300796508789 C 68.9168701171875 25.94656753540039 69.8333740234375 30.48649787902832 69.8333740234375 35.16668701171875 C 69.8333740234375 39.84687805175781 68.9168701171875 44.38680648803711 67.10929870605469 48.66036605834961 C 65.36329650878906 52.78839874267578 62.86362838745117 56.49584579467773 59.67973709106445 59.67973709106445 C 56.49584579467773 62.86362838745117 52.78839874267578 65.36329650878906 48.66036605834961 67.10929870605469 C 44.38680648803711 68.9168701171875 39.84687805175781 69.8333740234375 35.16668701171875 69.8333740234375 Z" stroke="none"></path><path d="M 35.16668701171875 1 C 30.55377578735352 1 26.07937622070313 1.903213500976563 21.86777877807617 3.684577941894531 C 17.79935836791992 5.405380249023438 14.14532852172852 7.869056701660156 11.00718688964844 11.00718688964844 C 7.869056701660156 14.14532852172852 5.405380249023438 17.79935836791992 3.684577941894531 21.86777877807617 C 1.903213500976563 26.07937622070313 1 30.55377578735352 1 35.16668701171875 C 1 39.77959442138672 1.903213500976563 44.25399780273438 3.684577941894531 48.46559906005859 C 5.405380249023438 52.53401947021484 7.869056701660156 56.18804931640625 11.00718688964844 59.32618713378906 C 14.14532852172852 62.46431732177734 17.79935836791992 64.92799377441406 21.86777877807617 66.64879608154297 C 26.07937622070313 68.43016052246094 30.55377578735352 69.3333740234375 35.16668701171875 69.3333740234375 C 39.77959442138672 69.3333740234375 44.25399780273438 68.43016052246094 48.46559906005859 66.64879608154297 C 52.53401947021484 64.92799377441406 56.18804931640625 62.46431732177734 59.32618713378906 59.32618713378906 C 62.46431732177734 56.18804931640625 64.92799377441406 52.53401947021484 66.64879608154297 48.46559906005859 C 68.43016052246094 44.25399780273438 69.3333740234375 39.77959442138672 69.3333740234375 35.16668701171875 C 69.3333740234375 30.55377578735352 68.43016052246094 26.07937622070313 66.64879608154297 21.86777877807617 C 64.92799377441406 17.79935836791992 62.46431732177734 14.14532852172852 59.32618713378906 11.00718688964844 C 56.18804931640625 7.869056701660156 52.53401947021484 5.405380249023438 48.46559906005859 3.684577941894531 C 44.25399780273438 1.903213500976563 39.77959442138672 1 35.16668701171875 1 M 35.16668701171875 0 C 54.58870697021484 0 70.3333740234375 15.74466705322266 70.3333740234375 35.16668701171875 C 70.3333740234375 54.58870697021484 54.58870697021484 70.3333740234375 35.16668701171875 70.3333740234375 C 15.74466705322266 70.3333740234375 0 54.58870697021484 0 35.16668701171875 C 0 15.74466705322266 15.74466705322266 0 35.16668701171875 0 Z" stroke="none" fill="#455aff"></path></g></g><g transform="matrix(1, 0, 0, 1, 446.02, 17.11)" filter="url(#Caminho_801)"><g id="Caminho_801-2" data-name="Caminho 801" transform="translate(143.72 16.89)" fill="#735cc4"><path d="M 35.16668701171875 69.8333740234375 C 30.48649787902832 69.8333740234375 25.94656753540039 68.9168701171875 21.67300796508789 67.10929870605469 C 17.54497718811035 65.36329650878906 13.83752727508545 62.86362838745117 10.65363693237305 59.67973709106445 C 7.469747066497803 56.49584579467773 4.970077037811279 52.78839874267578 3.224076986312866 48.66036605834961 C 1.416507005691528 44.38680648803711 0.4999970197677612 39.84687805175781 0.4999970197677612 35.16668701171875 C 0.4999970197677612 30.48649787902832 1.416507005691528 25.94656753540039 3.224076986312866 21.67300796508789 C 4.970077037811279 17.54497718811035 7.469747066497803 13.83752727508545 10.65363693237305 10.65363693237305 C 13.83752727508545 7.469747066497803 17.54497718811035 4.970077037811279 21.67300796508789 3.224076986312866 C 25.94656753540039 1.416507005691528 30.48649787902832 0.4999970197677612 35.16668701171875 0.4999970197677612 C 39.84687805175781 0.4999970197677612 44.38680648803711 1.416507005691528 48.66036605834961 3.224076986312866 C 52.78839874267578 4.970077037811279 56.49584579467773 7.469747066497803 59.67973709106445 10.65363693237305 C 62.86362838745117 13.83752727508545 65.36329650878906 17.54497718811035 67.10929870605469 21.67300796508789 C 68.9168701171875 25.94656753540039 69.8333740234375 30.48649787902832 69.8333740234375 35.16668701171875 C 69.8333740234375 39.84687805175781 68.9168701171875 44.38680648803711 67.10929870605469 48.66036605834961 C 65.36329650878906 52.78839874267578 62.86362838745117 56.49584579467773 59.67973709106445 59.67973709106445 C 56.49584579467773 62.86362838745117 52.78839874267578 65.36329650878906 48.66036605834961 67.10929870605469 C 44.38680648803711 68.9168701171875 39.84687805175781 69.8333740234375 35.16668701171875 69.8333740234375 Z" stroke="none"></path><path d="M 35.16668701171875 1 C 30.55377578735352 1 26.07937622070313 1.903213500976563 21.86777877807617 3.684577941894531 C 17.79935836791992 5.405380249023438 14.14532852172852 7.869056701660156 11.00718688964844 11.00718688964844 C 7.869056701660156 14.14532852172852 5.405380249023438 17.79935836791992 3.684577941894531 21.86777877807617 C 1.903213500976563 26.07937622070313 1 30.55377578735352 1 35.16668701171875 C 1 39.77959442138672 1.903213500976563 44.25399780273438 3.684577941894531 48.46559906005859 C 5.405380249023438 52.53401947021484 7.869056701660156 56.18804931640625 11.00718688964844 59.32618713378906 C 14.14532852172852 62.46431732177734 17.79935836791992 64.92799377441406 21.86777877807617 66.64879608154297 C 26.07937622070313 68.43016052246094 30.55377578735352 69.3333740234375 35.16668701171875 69.3333740234375 C 39.77959442138672 69.3333740234375 44.25399780273438 68.43016052246094 48.46559906005859 66.64879608154297 C 52.53401947021484 64.92799377441406 56.18804931640625 62.46431732177734 59.32618713378906 59.32618713378906 C 62.46431732177734 56.18804931640625 64.92799377441406 52.53401947021484 66.64879608154297 48.46559906005859 C 68.43016052246094 44.25399780273438 69.3333740234375 39.77959442138672 69.3333740234375 35.16668701171875 C 69.3333740234375 30.55377578735352 68.43016052246094 26.07937622070313 66.64879608154297 21.86777877807617 C 64.92799377441406 17.79935836791992 62.46431732177734 14.14532852172852 59.32618713378906 11.00718688964844 C 56.18804931640625 7.869056701660156 52.53401947021484 5.405380249023438 48.46559906005859 3.684577941894531 C 44.25399780273438 1.903213500976563 39.77959442138672 1 35.16668701171875 1 M 35.16668701171875 0 C 54.58870697021484 0 70.3333740234375 15.74466705322266 70.3333740234375 35.16668701171875 C 70.3333740234375 54.58870697021484 54.58870697021484 70.3333740234375 35.16668701171875 70.3333740234375 C 15.74466705322266 70.3333740234375 0 54.58870697021484 0 35.16668701171875 C 0 15.74466705322266 15.74466705322266 0 35.16668701171875 0 Z" stroke="none" fill="#735cc4"></path></g></g><g transform="matrix(1, 0, 0, 1, 446.02, 17.11)" filter="url(#Caminho_800)"><g id="Caminho_800-2" data-name="Caminho 800" transform="translate(9.46 211.89)" fill="#f77a70"><path d="M 35.16668701171875 69.8333740234375 C 30.48649787902832 69.8333740234375 25.94656753540039 68.9168701171875 21.67300796508789 67.10929870605469 C 17.54497718811035 65.36329650878906 13.83752727508545 62.86362838745117 10.65363693237305 59.67973709106445 C 7.469747066497803 56.49584579467773 4.970077037811279 52.78839874267578 3.224076986312866 48.66036605834961 C 1.416507005691528 44.38680648803711 0.4999970197677612 39.84687805175781 0.4999970197677612 35.16668701171875 C 0.4999970197677612 30.48649787902832 1.416507005691528 25.94656753540039 3.224076986312866 21.67300796508789 C 4.970077037811279 17.54497718811035 7.469747066497803 13.83752727508545 10.65363693237305 10.65363693237305 C 13.83752727508545 7.469747066497803 17.54497718811035 4.970077037811279 21.67300796508789 3.224076986312866 C 25.94656753540039 1.416507005691528 30.48649787902832 0.4999970197677612 35.16668701171875 0.4999970197677612 C 39.84687805175781 0.4999970197677612 44.38680648803711 1.416507005691528 48.66036605834961 3.224076986312866 C 52.78839874267578 4.970077037811279 56.49584579467773 7.469747066497803 59.67973709106445 10.65363693237305 C 62.86362838745117 13.83752727508545 65.36329650878906 17.54497718811035 67.10929870605469 21.67300796508789 C 68.9168701171875 25.94656753540039 69.8333740234375 30.48649787902832 69.8333740234375 35.16668701171875 C 69.8333740234375 39.84687805175781 68.9168701171875 44.38680648803711 67.10929870605469 48.66036605834961 C 65.36329650878906 52.78839874267578 62.86362838745117 56.49584579467773 59.67973709106445 59.67973709106445 C 56.49584579467773 62.86362838745117 52.78839874267578 65.36329650878906 48.66036605834961 67.10929870605469 C 44.38680648803711 68.9168701171875 39.84687805175781 69.8333740234375 35.16668701171875 69.8333740234375 Z" stroke="none"></path><path d="M 35.16668701171875 1 C 30.55377578735352 1 26.07937622070313 1.903213500976563 21.86777877807617 3.684577941894531 C 17.79935836791992 5.405380249023438 14.14532852172852 7.869056701660156 11.00718688964844 11.00718688964844 C 7.869056701660156 14.14532852172852 5.405380249023438 17.79935836791992 3.684577941894531 21.86777877807617 C 1.903213500976563 26.07937622070313 1 30.55377578735352 1 35.16668701171875 C 1 39.77959442138672 1.903213500976563 44.25399780273438 3.684577941894531 48.46559906005859 C 5.405380249023438 52.53401947021484 7.869056701660156 56.18804931640625 11.00718688964844 59.32618713378906 C 14.14532852172852 62.46431732177734 17.79935836791992 64.92799377441406 21.86777877807617 66.64879608154297 C 26.07937622070313 68.43016052246094 30.55377578735352 69.3333740234375 35.16668701171875 69.3333740234375 C 39.77959442138672 69.3333740234375 44.25399780273438 68.43016052246094 48.46559906005859 66.64879608154297 C 52.53401947021484 64.92799377441406 56.18804931640625 62.46431732177734 59.32618713378906 59.32618713378906 C 62.46431732177734 56.18804931640625 64.92799377441406 52.53401947021484 66.64879608154297 48.46559906005859 C 68.43016052246094 44.25399780273438 69.3333740234375 39.77959442138672 69.3333740234375 35.16668701171875 C 69.3333740234375 30.55377578735352 68.43016052246094 26.07937622070313 66.64879608154297 21.86777877807617 C 64.92799377441406 17.79935836791992 62.46431732177734 14.14532852172852 59.32618713378906 11.00718688964844 C 56.18804931640625 7.869056701660156 52.53401947021484 5.405380249023438 48.46559906005859 3.684577941894531 C 44.25399780273438 1.903213500976563 39.77959442138672 1 35.16668701171875 1 M 35.16668701171875 0 C 54.58870697021484 0 70.3333740234375 15.74466705322266 70.3333740234375 35.16668701171875 C 70.3333740234375 54.58870697021484 54.58870697021484 70.3333740234375 35.16668701171875 70.3333740234375 C 15.74466705322266 70.3333740234375 0 54.58870697021484 0 35.16668701171875 C 0 15.74466705322266 15.74466705322266 0 35.16668701171875 0 Z" stroke="none" fill="#f77a70"></path></g></g><text id="_2019" data-name="2019" transform="translate(490.99 273.5)" fill="#ffff30" stroke="#ffff30" stroke-width="1" font-size="22" font-family="BancoDoBrasilTextos-Medium, BancoDoBrasil Textos" font-weight="500" letter-spacing="0.01em"><tspan x="-26.059" y="0">2019</tspan></text><text id="_2020" data-name="2020" transform="translate(560.609 176.5)" fill="#ffff30" stroke="#ffff30" stroke-width="1" font-size="22" font-family="BancoDoBrasilTextos-Medium, BancoDoBrasil Textos" font-weight="500" letter-spacing="0.01em"><tspan x="-27.599" y="0">2020</tspan></text><text id="_2021" data-name="2021" transform="translate(625.265 78.5)" fill="#fcfb33" stroke="#fcfb33" stroke-width="1" font-size="22" font-family="BancoDoBrasilTextos-Medium, BancoDoBrasil Textos" font-weight="500" letter-spacing="0.01em"><tspan x="-25.894" y="0">2021</tspan></text><g transform="matrix(1, 0, 0, 1, 446.02, 17.11)" filter="url(#Caminho_808)"><path id="Caminho_808-2" data-name="Caminho 808" d="M6.043,0H29" transform="translate(144.38 154.39)" fill="none" stroke="#707070" stroke-width="1" stroke-dasharray="3" opacity="0.5"></path></g><line id="Linha_16" data-name="Linha 16" x2="22" transform="translate(659.5 71.5)" fill="none" stroke="#707070" stroke-width="1" stroke-dasharray="3" opacity="0.5"></line><g id="Elipse_9" data-name="Elipse 9" transform="translate(681 65)" fill="#fff" stroke="#707070" stroke-width="1" opacity="0.5"><ellipse cx="6" cy="6.5" rx="6" ry="6.5" stroke="none"></ellipse><ellipse cx="6" cy="6.5" rx="5.5" ry="6" fill="none"></ellipse></g><path id="Caminho_802" data-name="Caminho 802" d="M0,0H22.334" transform="translate(526.434 267.5)" fill="none" stroke="rgba(112,112,112,0.5)" stroke-width="1" stroke-dasharray="3"></path><g id="Caminho_807" data-name="Caminho 807" transform="translate(548.192 261)" fill="#fff"><path d="M6,0a6.265,6.265,0,0,1,6,6.5A6.265,6.265,0,0,1,6,13,6.265,6.265,0,0,1,0,6.5,6.265,6.265,0,0,1,6,0Z" stroke="none"></path><path d="M 6 1 C 3.242989540100098 1 1 3.467289924621582 1 6.5 C 1 9.532710075378418 3.242989540100098 12 6 12 C 8.757009506225586 12 11 9.532710075378418 11 6.5 C 11 3.467289924621582 8.757009506225586 1 6 1 M 6 0 C 9.31371021270752 0 12 2.910149574279785 12 6.5 C 12 10.0898494720459 9.31371021270752 13 6 13 C 2.68628978729248 13 0 10.0898494720459 0 6.5 C 0 2.910149574279785 2.68628978729248 0 6 0 Z" stroke="none" fill="rgba(112,112,112,0.5)"></path></g><g id="Caminho_806" data-name="Caminho 806" transform="translate(618.831 165)" fill="#fff" opacity="0.5"><path d="M 6 12.5 C 2.967289924621582 12.5 0.5 9.808409690856934 0.5 6.5 C 0.5 3.191590070724487 2.967289924621582 0.5 6 0.5 C 9.032710075378418 0.5 11.5 3.191590070724487 11.5 6.5 C 11.5 9.808409690856934 9.032710075378418 12.5 6 12.5 Z" stroke="none"></path><path d="M 6 1 C 3.242989540100098 1 1 3.467289924621582 1 6.5 C 1 9.532710075378418 3.242989540100098 12 6 12 C 8.757009506225586 12 11 9.532710075378418 11 6.5 C 11 3.467289924621582 8.757009506225586 1 6 1 M 6 0 C 9.31371021270752 0 12 2.910149574279785 12 6.5 C 12 10.0898494720459 9.31371021270752 13 6 13 C 2.68628978729248 13 0 10.0898494720459 0 6.5 C 0 2.910149574279785 2.68628978729248 0 6 0 Z" stroke="none" fill="#707070"></path></g><text id="_1950" data-name="1950" transform="translate(724.5 80.5)" fill="#052b4c" stroke="#052b4c" stroke-width="1" font-size="24" font-family="BancoDoBrasilTextos-Medium, BancoDoBrasil Textos" font-weight="500" letter-spacing="0.01em"><tspan x="-28.248" y="0">1950</tspan></text></g></svg> 