<?xml version="1.0" encoding="UTF-8"?> <svg xmlns="http://www.w3.org/2000/svg" height="22.33" viewBox="0 0 159.38 22.33" width="159.38"><g fill="#fff"><path d="m20 4.65 2.33-1.55v-3.1l-4.65 3.1z"></path><path d="m0 19.23v3.1l4.65-3.1-2.32-1.55z"></path><path d="m12.1 15.51 2.32 1.55-3.02 2.01-6.52-4.34 10.71-7.13-2.33-1.55-13.26 8.83 11.16 7.45 11.17-7.45-4.65-3.1z"></path><path d="m0 7.44 4.65 3.1 5.58-3.72-2.32-1.55 3.02-2.01 6.52 4.34-10.7 7.13 2.32 1.55 13.26-8.84-11.17-7.44z"></path><path d="m264.1 399.47a3.021 3.021 0 0 0 -3-2.85 3.18 3.18 0 0 0 2.8-3.32c0-3.18-2.16-3.86-4.79-3.86h-6.11v14.88h6.09c1.46 0 5.09-.16 5.09-3.93a6.771 6.771 0 0 0 -.06-.92zm-7.37-7.74h1.35a1.92 1.92 0 0 1 2.08 1.9 1.79 1.79 0 0 1 -1.89 1.89h-1.55zm1.13 10.27h-1.13v-4.21h1.27c1.59 0 2.23.62 2.36 1.66a3.443 3.443 0 0 1 0 .46c-.01 2.09-1.73 2.09-2.5 2.09z" transform="translate(-226.19 -385.72)"></path><path d="m291.61 402.82c-1.15 0-1.43-.61-1.48-3.35v-1.21c0-3.9.3-4.56 1.43-4.56.82 0 1.19.62 1.19 2.27h3c.11-2.66-1.37-4.13-4.3-4.13-4.37 0-4.49 2.78-4.49 6.42v1.21c0 3 .42 5.21 4.62 5.21 2.69 0 4.27-1.07 4.27-4.39h-3.06c-.01.98-.03 2.53-1.18 2.53z" transform="translate(-226.19 -385.72)"></path><path d="m155.76 16.76v-10.34h-3.1v12.18h6.72v-1.84z"></path><path d="m367.84 399.47c1 .45 1.68.9 1.68 1.62a1.25 1.25 0 0 1 -1.35 1.39h-4.17l-.9-3-2.2-7.33h-3.72l-2.27 7.33-1.16 3.76-1.7-3.76-.45-1c1.58-.29 2.2-1.29 2.21-3.13a2.91 2.91 0 0 0 -3.16-3.19h-5.8v12.18h3.15v-10.34h1.05a1.69 1.69 0 0 1 1.68 1.86c0 1-.51 1.84-1.33 1.79h-.88l.78 1.8 2.11 4.85h5.08l.77-2.7h3.28l.75 2.7h7.38c2 0 4.1-.27 4.1-3.42a3 3 0 0 0 -.34-1.43zm-10.13.29.07-.29 1.05-4.7 1.16 4.7.08.29z" transform="translate(-226.19 -385.72)"></path><path d="m343.12 399.47h.64a3.021 3.021 0 0 0 -3-2.85 3.18 3.18 0 0 0 2.81-3.32c0-3.17-2.17-3.85-4.79-3.85h-6.11v14.87h6.09c1.46 0 5.08-.16 5.08-3.93a9 9 0 0 0 -.05-.92zm-6.73-7.72h1.81a1.75 1.75 0 0 1 1.7 1.9c0 1.44-.9 1.9-1.54 1.9h-2zm1.61 10.31h-1.64v-4.2h1.72a1.66 1.66 0 0 1 1.92 1.64 3.906 3.906 0 0 1 0 .49c.06 2.01-1.35 2.07-2 2.07z" transform="translate(-226.19 -385.72)"></path><path d="m147.74 13.75v4.85h3.1v-12.18h-3.1z"></path><g transform="translate(-226.19 -385.72)"><path d="m367.84 399.47h4.6c-1.16-2.17-4.94-2.21-4.94-4.16a1.22 1.22 0 0 1 1.39-1.3h2.82v-1.88h-4c-3.26 0-4.07 1.48-4.07 3.38.03 2.35 2.48 3.14 4.2 3.96z"></path><path d="m301.53 391.84c-4.75 0-4.75 3.14-4.75 6.42v1.21c.07 2.79.59 5.21 4.74 5.21s4.66-2.42 4.73-5.21h-3.18c-.06 2.33-.36 3.35-1.56 3.35s-1.49-1-1.55-3.35v-1.21c0-3.18.18-4.56 1.56-4.56s1.57 1.38 1.57 4.56v1.21h3.18v-1.21c0-3.26 0-6.42-4.74-6.42z"></path><path d="m271.69 392.14h-3.69l-2.25 7.33-1.48 4.85h3.06l.76-2.7h3.29l.75 2.7h3.24l-1.45-4.85zm-3.18 7.61.07-.28 1.05-4.7 1.16 4.7.07.28z"></path></g><path d="m56.92 13.75v.55l-.23-.55-3.07-7.33h-3.74v12.18h2.62v-8.12l1.37 3.27 2.02 4.85h3.66v-12.18h-2.63z"></path><g transform="translate(-226.19 -385.72)"><path d="m314.37 392.1h-4.74v12.22h4.63c3.91 0 4.46-2.78 4.53-4.85h-3.14c-.09 2.15-.49 3-1.75 3h-1.18v-8.47h1.28c1.69 0 1.69 2 1.69 4.23v1.24h3.14v-1.32c-.03-3.81-.73-6.05-4.46-6.05z"></path><path d="m324.69 391.9c-4.74 0-4.74 3.12-4.74 6.39v1.18c.06 2.78.57 5.21 4.73 5.21s4.67-2.43 4.73-5.21v-1.18c.02-3.29.02-6.39-4.72-6.39zm1.56 7.57c-.06 2.33-.36 3.36-1.56 3.36s-1.5-1-1.56-3.36v-1.18c0-3.17.18-4.54 1.57-4.54s1.57 1.37 1.57 4.54v1.18z"></path></g></g></svg> 