<svg height="1000" viewBox="0 0 1000 1000" width="1000" xmlns="http://www.w3.org/2000/svg"><path d="m878.947368 94.9638236-778.736842 136.4210524c-29.3684207 4.736842-50.210526 30.31579-50.210526 59.684211v310.736842c0 29.368421 20.8421053 54.947368 50.210526 59.68421l79.578948 14.210527c32.210526 53.052631 92.842105 144.947368 174.315789 219.789473 27.473684 25.578948 72.947369 2.842106 67.263158-35.052631-7.578947-50.210527-5.68421-104.210527-2.842105-142.105263l460.421052 81.473684c36.947369 6.631579 71.052632-21.789474 71.052632-59.684211v-585.473684c0-37.894737-34.105263-66.3157894-71.052632-59.6842104zm-538.105263 390.3157894c0 10.421053-8.526316 18.947368-18.947368 18.947368h-77.684211c-10.421052 0-18.947368-8.526315-18.947368-18.947368v-77.68421c0-10.421053 8.526316-18.947369 18.947368-18.947369h77.684211c10.421052 0 18.947368 8.526316 18.947368 18.947369zm216.947369 0c0 10.421053-8.526316 18.947368-18.947369 18.947368h-77.68421c-10.421053 0-18.947369-8.526315-18.947369-18.947368v-77.68421c0-10.421053 8.526316-18.947369 18.947369-18.947369h77.68421c10.421053 0 18.947369 8.526316 18.947369 18.947369zm217.894737 0c0 10.421053-8.526316 18.947368-18.947369 18.947368h-77.68421c-10.421053 0-18.947369-8.526315-18.947369-18.947368v-77.68421c0-10.421053 8.526316-18.947369 18.947369-18.947369h76.736842c10.421052 0 18.947368 8.526316 18.947368 18.947369v77.68421z"/></svg>