<svg height="1000" viewBox="0 0 1000 1000" width="1000" xmlns="http://www.w3.org/2000/svg"><path d="m500 50c248.447894 0 450 201.552106 450 450s-201.552106 450-450 450-450-201.552106-450-450 201.552106-450 450-450zm0 816.186253c201.552106 0 366.186253-164.634147 366.186253-366.186253s-164.634147-366.186253-366.186253-366.186253-366.186253 163.636364-366.186253 366.186253 164.634147 366.186253 366.186253 366.186253zm-85.548122-453.531133h130.89521c5.860219-.524082 11.684849 1.331763 16.161696 5.149442 4.476847 3.81768 7.229356 9.276082 7.637433 15.145521 2.628124 13.213626-1.314063 25.551212-3.650174 38.107807-8.565739 45.846175-17.009806 91.668016-25.332201 137.465522-3.066146 16.790796-6.570312 33.581593-9.05243 50.518396-.792905 6.857366-.571519 13.794125.657032 20.586977.487733 6.07973 3.618622 11.639257 8.56465 15.208265 4.946027 3.569008 11.209001 4.788008 17.132569 3.334614 7.345164-1.668104 14.491308-4.115413 21.317011-7.300346 5.840277-2.555121 11.16953-6.643315 17.155814-8.614409 3.809059-1.362647 8.032444-.905338 11.461543 1.241059 2.837684 3.859942 3.947889 8.723696 3.066146 13.432637-1.805752 5.390572-4.944787 10.237241-9.125433 14.089669-23.018123 24.46665-55.106809 38.358542-88.699208 38.399821-15.675808.183333-31.343084-.817225-46.868223-2.993142-26.208243-4.380207-59.205809-37.596783-53.438535-73.003463 4.307204-26.281246 8.030381-52.635497 12.483592-78.916743 6.570312-38.98385 14.235675-77.748689 19.929945-116.805541 3.066146-20.878991-5.110242-29.785413-25.405205-30.734458-7.714731-.679392-15.250726-2.705462-22.266056-5.986284-5.762862-2.574646-8.842203-8.918089-7.300346-15.038714.82881-5.633564 5.084524-10.151617 10.658505-11.315537 4.566411-1.264803 9.278529-1.927445 14.016665-1.971093zm104.832973-162.359702v.146007c36.091181 1.269473 64.392478 31.429266 63.367006 67.528203-.589658 26.936598-17.424879 50.83641-42.589878 60.46194s-53.652531 3.061522-72.067991-16.60568-23.094602-48.524285-11.837333-73.002886c11.25727-24.478601 36.211018-39.70805 63.128196-38.527584z"/></svg>