<svg xmlns="http://www.w3.org/2000/svg" xmlns:xlink="http://www.w3.org/1999/xlink" width="307.5" height="312.783" viewBox="0 0 307.5 312.783">
  <defs>
    <filter id="Caminho_793" x="0.109" y="0" width="222.783" height="312.783" filterUnits="userSpaceOnUse">
      <feOffset dy="3" input="SourceAlpha"/>
      <feGaussianBlur stdDeviation="3" result="blur"/>
      <feFlood flood-opacity="0.161"/>
      <feComposite operator="in" in2="blur"/>
      <feComposite in="SourceGraphic"/>
    </filter>
    <filter id="Caminho_799" x="70" y="107.891" width="88.333" height="88.333" filterUnits="userSpaceOnUse">
      <feOffset dy="3" input="SourceAlpha"/>
      <feGaussianBlur stdDeviation="3" result="blur-2"/>
      <feFlood flood-color="#455aff"/>
      <feComposite operator="in" in2="blur-2"/>
      <feComposite in="SourceGraphic"/>
    </filter>
    <filter id="Caminho_801" x="135" y="10.891" width="88.333" height="88.333" filterUnits="userSpaceOnUse">
      <feOffset dy="3" input="SourceAlpha"/>
      <feGaussianBlur stdDeviation="3" result="blur-3"/>
      <feFlood flood-color="#735cc4"/>
      <feComposite operator="in" in2="blur-3"/>
      <feComposite in="SourceGraphic"/>
    </filter>
    <filter id="Caminho_800" x="0" y="205.891" width="88.333" height="88.333" filterUnits="userSpaceOnUse">
      <feOffset dy="3" input="SourceAlpha"/>
      <feGaussianBlur stdDeviation="3" result="blur-4"/>
      <feFlood flood-color="#f67f74"/>
      <feComposite operator="in" in2="blur-4"/>
      <feComposite in="SourceGraphic"/>
    </filter>
    <filter id="Linha_15" x="140.5" y="147.891" width="47" height="19" filterUnits="userSpaceOnUse">
      <feOffset dy="3" input="SourceAlpha"/>
      <feGaussianBlur stdDeviation="3" result="blur-5"/>
      <feFlood flood-color="#455aff" flood-opacity="0.161"/>
      <feComposite operator="in" in2="blur-5"/>
      <feComposite in="SourceGraphic"/>
    </filter>
    <filter id="Linha_17" x="70.5" y="244.891" width="47" height="19" filterUnits="userSpaceOnUse">
      <feOffset dy="3" input="SourceAlpha"/>
      <feGaussianBlur stdDeviation="3" result="blur-6"/>
      <feFlood flood-color="#455aff" flood-opacity="0.161"/>
      <feComposite operator="in" in2="blur-6"/>
      <feComposite in="SourceGraphic"/>
    </filter>
  </defs>
  <g id="Grupo_252" data-name="Grupo 252" transform="translate(-449 -17.109)">
    <g transform="matrix(1, 0, 0, 1, 449, 17.11)" filter="url(#Caminho_793)">
      <path id="Caminho_793-2" data-name="Caminho 793" d="M0,292l46.949-67.867L202,0" transform="translate(10.5 7.39)" fill="#ffff30" stroke="#707070" stroke-linecap="round" stroke-width="2" opacity="0.37"/>
    </g>
    <text id="_1950" data-name="1950" transform="translate(728.5 80.5)" fill="#052b4c" stroke="#052b4c" stroke-width="1" font-size="24" font-family="SegoeUI, Segoe UI" letter-spacing="0.01em"><tspan x="-26.235" y="0">1950</tspan></text>
    <text id="_1453" data-name="1453" transform="translate(666.5 180.5)" fill="#052b4c" stroke="#052b4c" stroke-width="1" font-size="24" font-family="SegoeUI, Segoe UI" letter-spacing="0.01em"><tspan x="-26.235" y="0">1453</tspan></text>
    <text id="_1139" data-name="1139" transform="translate(595.5 276.5)" fill="#052b4c" stroke="#052b4c" stroke-width="1" font-size="24" font-family="SegoeUI, Segoe UI" letter-spacing="0.01em"><tspan x="-26.235" y="0">1139</tspan></text>
    <g transform="matrix(1, 0, 0, 1, 449, 17.11)" filter="url(#Caminho_799)">
      <g id="Caminho_799-2" data-name="Caminho 799" transform="translate(79 113.89)" fill="#455aff">
        <path d="M 35.16668701171875 69.8333740234375 C 30.48649787902832 69.8333740234375 25.94656753540039 68.9168701171875 21.67300796508789 67.10929870605469 C 17.54497718811035 65.36329650878906 13.83752727508545 62.86362838745117 10.65363693237305 59.67973709106445 C 7.469747066497803 56.49584579467773 4.970077037811279 52.78839874267578 3.224076986312866 48.66036605834961 C 1.416507005691528 44.38680648803711 0.4999970197677612 39.84687805175781 0.4999970197677612 35.16668701171875 C 0.4999970197677612 30.48649787902832 1.416507005691528 25.94656753540039 3.224076986312866 21.67300796508789 C 4.970077037811279 17.54497718811035 7.469747066497803 13.83752727508545 10.65363693237305 10.65363693237305 C 13.83752727508545 7.469747066497803 17.54497718811035 4.970077037811279 21.67300796508789 3.224076986312866 C 25.94656753540039 1.416507005691528 30.48649787902832 0.4999970197677612 35.16668701171875 0.4999970197677612 C 39.84687805175781 0.4999970197677612 44.38680648803711 1.416507005691528 48.66036605834961 3.224076986312866 C 52.78839874267578 4.970077037811279 56.49584579467773 7.469747066497803 59.67973709106445 10.65363693237305 C 62.86362838745117 13.83752727508545 65.36329650878906 17.54497718811035 67.10929870605469 21.67300796508789 C 68.9168701171875 25.94656753540039 69.8333740234375 30.48649787902832 69.8333740234375 35.16668701171875 C 69.8333740234375 39.84687805175781 68.9168701171875 44.38680648803711 67.10929870605469 48.66036605834961 C 65.36329650878906 52.78839874267578 62.86362838745117 56.49584579467773 59.67973709106445 59.67973709106445 C 56.49584579467773 62.86362838745117 52.78839874267578 65.36329650878906 48.66036605834961 67.10929870605469 C 44.38680648803711 68.9168701171875 39.84687805175781 69.8333740234375 35.16668701171875 69.8333740234375 Z" stroke="none"/>
        <path d="M 35.16668701171875 1 C 30.55377578735352 1 26.07937622070313 1.903213500976563 21.86777877807617 3.684577941894531 C 17.79935836791992 5.405380249023438 14.14532852172852 7.869056701660156 11.00718688964844 11.00718688964844 C 7.869056701660156 14.14532852172852 5.405380249023438 17.79935836791992 3.684577941894531 21.86777877807617 C 1.903213500976563 26.07937622070313 1 30.55377578735352 1 35.16668701171875 C 1 39.77959442138672 1.903213500976563 44.25399780273438 3.684577941894531 48.46559906005859 C 5.405380249023438 52.53401947021484 7.869056701660156 56.18804931640625 11.00718688964844 59.32618713378906 C 14.14532852172852 62.46431732177734 17.79935836791992 64.92799377441406 21.86777877807617 66.64879608154297 C 26.07937622070313 68.43016052246094 30.55377578735352 69.3333740234375 35.16668701171875 69.3333740234375 C 39.77959442138672 69.3333740234375 44.25399780273438 68.43016052246094 48.46559906005859 66.64879608154297 C 52.53401947021484 64.92799377441406 56.18804931640625 62.46431732177734 59.32618713378906 59.32618713378906 C 62.46431732177734 56.18804931640625 64.92799377441406 52.53401947021484 66.64879608154297 48.46559906005859 C 68.43016052246094 44.25399780273438 69.3333740234375 39.77959442138672 69.3333740234375 35.16668701171875 C 69.3333740234375 30.55377578735352 68.43016052246094 26.07937622070313 66.64879608154297 21.86777877807617 C 64.92799377441406 17.79935836791992 62.46431732177734 14.14532852172852 59.32618713378906 11.00718688964844 C 56.18804931640625 7.869056701660156 52.53401947021484 5.405380249023438 48.46559906005859 3.684577941894531 C 44.25399780273438 1.903213500976563 39.77959442138672 1 35.16668701171875 1 M 35.16668701171875 0 C 54.58870697021484 0 70.3333740234375 15.74466705322266 70.3333740234375 35.16668701171875 C 70.3333740234375 54.58870697021484 54.58870697021484 70.3333740234375 35.16668701171875 70.3333740234375 C 15.74466705322266 70.3333740234375 0 54.58870697021484 0 35.16668701171875 C 0 15.74466705322266 15.74466705322266 0 35.16668701171875 0 Z" stroke="none" fill="#455aff"/>
      </g>
    </g>
    <g transform="matrix(1, 0, 0, 1, 449, 17.11)" filter="url(#Caminho_801)">
      <g id="Caminho_801-2" data-name="Caminho 801" transform="translate(144 16.89)" fill="#735cc4">
        <path d="M 35.16668701171875 69.8333740234375 C 30.48649787902832 69.8333740234375 25.94656753540039 68.9168701171875 21.67300796508789 67.10929870605469 C 17.54497718811035 65.36329650878906 13.83752727508545 62.86362838745117 10.65363693237305 59.67973709106445 C 7.469747066497803 56.49584579467773 4.970077037811279 52.78839874267578 3.224076986312866 48.66036605834961 C 1.416507005691528 44.38680648803711 0.4999970197677612 39.84687805175781 0.4999970197677612 35.16668701171875 C 0.4999970197677612 30.48649787902832 1.416507005691528 25.94656753540039 3.224076986312866 21.67300796508789 C 4.970077037811279 17.54497718811035 7.469747066497803 13.83752727508545 10.65363693237305 10.65363693237305 C 13.83752727508545 7.469747066497803 17.54497718811035 4.970077037811279 21.67300796508789 3.224076986312866 C 25.94656753540039 1.416507005691528 30.48649787902832 0.4999970197677612 35.16668701171875 0.4999970197677612 C 39.84687805175781 0.4999970197677612 44.38680648803711 1.416507005691528 48.66036605834961 3.224076986312866 C 52.78839874267578 4.970077037811279 56.49584579467773 7.469747066497803 59.67973709106445 10.65363693237305 C 62.86362838745117 13.83752727508545 65.36329650878906 17.54497718811035 67.10929870605469 21.67300796508789 C 68.9168701171875 25.94656753540039 69.8333740234375 30.48649787902832 69.8333740234375 35.16668701171875 C 69.8333740234375 39.84687805175781 68.9168701171875 44.38680648803711 67.10929870605469 48.66036605834961 C 65.36329650878906 52.78839874267578 62.86362838745117 56.49584579467773 59.67973709106445 59.67973709106445 C 56.49584579467773 62.86362838745117 52.78839874267578 65.36329650878906 48.66036605834961 67.10929870605469 C 44.38680648803711 68.9168701171875 39.84687805175781 69.8333740234375 35.16668701171875 69.8333740234375 Z" stroke="none"/>
        <path d="M 35.16668701171875 1 C 30.55377578735352 1 26.07937622070313 1.903213500976563 21.86777877807617 3.684577941894531 C 17.79935836791992 5.405380249023438 14.14532852172852 7.869056701660156 11.00718688964844 11.00718688964844 C 7.869056701660156 14.14532852172852 5.405380249023438 17.79935836791992 3.684577941894531 21.86777877807617 C 1.903213500976563 26.07937622070313 1 30.55377578735352 1 35.16668701171875 C 1 39.77959442138672 1.903213500976563 44.25399780273438 3.684577941894531 48.46559906005859 C 5.405380249023438 52.53401947021484 7.869056701660156 56.18804931640625 11.00718688964844 59.32618713378906 C 14.14532852172852 62.46431732177734 17.79935836791992 64.92799377441406 21.86777877807617 66.64879608154297 C 26.07937622070313 68.43016052246094 30.55377578735352 69.3333740234375 35.16668701171875 69.3333740234375 C 39.77959442138672 69.3333740234375 44.25399780273438 68.43016052246094 48.46559906005859 66.64879608154297 C 52.53401947021484 64.92799377441406 56.18804931640625 62.46431732177734 59.32618713378906 59.32618713378906 C 62.46431732177734 56.18804931640625 64.92799377441406 52.53401947021484 66.64879608154297 48.46559906005859 C 68.43016052246094 44.25399780273438 69.3333740234375 39.77959442138672 69.3333740234375 35.16668701171875 C 69.3333740234375 30.55377578735352 68.43016052246094 26.07937622070313 66.64879608154297 21.86777877807617 C 64.92799377441406 17.79935836791992 62.46431732177734 14.14532852172852 59.32618713378906 11.00718688964844 C 56.18804931640625 7.869056701660156 52.53401947021484 5.405380249023438 48.46559906005859 3.684577941894531 C 44.25399780273438 1.903213500976563 39.77959442138672 1 35.16668701171875 1 M 35.16668701171875 0 C 54.58870697021484 0 70.3333740234375 15.74466705322266 70.3333740234375 35.16668701171875 C 70.3333740234375 54.58870697021484 54.58870697021484 70.3333740234375 35.16668701171875 70.3333740234375 C 15.74466705322266 70.3333740234375 0 54.58870697021484 0 35.16668701171875 C 0 15.74466705322266 15.74466705322266 0 35.16668701171875 0 Z" stroke="none" fill="#735cc4"/>
      </g>
    </g>
    <g transform="matrix(1, 0, 0, 1, 449, 17.11)" filter="url(#Caminho_800)">
      <g id="Caminho_800-2" data-name="Caminho 800" transform="translate(9 211.89)" fill="#f77a70">
        <path d="M 35.16668701171875 69.8333740234375 C 30.48649787902832 69.8333740234375 25.94656753540039 68.9168701171875 21.67300796508789 67.10929870605469 C 17.54497718811035 65.36329650878906 13.83752727508545 62.86362838745117 10.65363693237305 59.67973709106445 C 7.469747066497803 56.49584579467773 4.970077037811279 52.78839874267578 3.224076986312866 48.66036605834961 C 1.416507005691528 44.38680648803711 0.4999970197677612 39.84687805175781 0.4999970197677612 35.16668701171875 C 0.4999970197677612 30.48649787902832 1.416507005691528 25.94656753540039 3.224076986312866 21.67300796508789 C 4.970077037811279 17.54497718811035 7.469747066497803 13.83752727508545 10.65363693237305 10.65363693237305 C 13.83752727508545 7.469747066497803 17.54497718811035 4.970077037811279 21.67300796508789 3.224076986312866 C 25.94656753540039 1.416507005691528 30.48649787902832 0.4999970197677612 35.16668701171875 0.4999970197677612 C 39.84687805175781 0.4999970197677612 44.38680648803711 1.416507005691528 48.66036605834961 3.224076986312866 C 52.78839874267578 4.970077037811279 56.49584579467773 7.469747066497803 59.67973709106445 10.65363693237305 C 62.86362838745117 13.83752727508545 65.36329650878906 17.54497718811035 67.10929870605469 21.67300796508789 C 68.9168701171875 25.94656753540039 69.8333740234375 30.48649787902832 69.8333740234375 35.16668701171875 C 69.8333740234375 39.84687805175781 68.9168701171875 44.38680648803711 67.10929870605469 48.66036605834961 C 65.36329650878906 52.78839874267578 62.86362838745117 56.49584579467773 59.67973709106445 59.67973709106445 C 56.49584579467773 62.86362838745117 52.78839874267578 65.36329650878906 48.66036605834961 67.10929870605469 C 44.38680648803711 68.9168701171875 39.84687805175781 69.8333740234375 35.16668701171875 69.8333740234375 Z" stroke="none"/>
        <path d="M 35.16668701171875 1 C 30.55377578735352 1 26.07937622070313 1.903213500976563 21.86777877807617 3.684577941894531 C 17.79935836791992 5.405380249023438 14.14532852172852 7.869056701660156 11.00718688964844 11.00718688964844 C 7.869056701660156 14.14532852172852 5.405380249023438 17.79935836791992 3.684577941894531 21.86777877807617 C 1.903213500976563 26.07937622070313 1 30.55377578735352 1 35.16668701171875 C 1 39.77959442138672 1.903213500976563 44.25399780273438 3.684577941894531 48.46559906005859 C 5.405380249023438 52.53401947021484 7.869056701660156 56.18804931640625 11.00718688964844 59.32618713378906 C 14.14532852172852 62.46431732177734 17.79935836791992 64.92799377441406 21.86777877807617 66.64879608154297 C 26.07937622070313 68.43016052246094 30.55377578735352 69.3333740234375 35.16668701171875 69.3333740234375 C 39.77959442138672 69.3333740234375 44.25399780273438 68.43016052246094 48.46559906005859 66.64879608154297 C 52.53401947021484 64.92799377441406 56.18804931640625 62.46431732177734 59.32618713378906 59.32618713378906 C 62.46431732177734 56.18804931640625 64.92799377441406 52.53401947021484 66.64879608154297 48.46559906005859 C 68.43016052246094 44.25399780273438 69.3333740234375 39.77959442138672 69.3333740234375 35.16668701171875 C 69.3333740234375 30.55377578735352 68.43016052246094 26.07937622070313 66.64879608154297 21.86777877807617 C 64.92799377441406 17.79935836791992 62.46431732177734 14.14532852172852 59.32618713378906 11.00718688964844 C 56.18804931640625 7.869056701660156 52.53401947021484 5.405380249023438 48.46559906005859 3.684577941894531 C 44.25399780273438 1.903213500976563 39.77959442138672 1 35.16668701171875 1 M 35.16668701171875 0 C 54.58870697021484 0 70.3333740234375 15.74466705322266 70.3333740234375 35.16668701171875 C 70.3333740234375 54.58870697021484 54.58870697021484 70.3333740234375 35.16668701171875 70.3333740234375 C 15.74466705322266 70.3333740234375 0 54.58870697021484 0 35.16668701171875 C 0 15.74466705322266 15.74466705322266 0 35.16668701171875 0 Z" stroke="none" fill="#f77a70"/>
      </g>
    </g>
    <text id="_2019" data-name="2019" transform="translate(493.5 273.5)" fill="#ffff30" stroke="#ffff30" stroke-width="1" font-size="22" font-family="SegoeUI, Segoe UI" letter-spacing="0.01em"><tspan x="-24.049" y="0">2019</tspan></text>
    <text id="_2020" data-name="2020" transform="translate(563.5 176.5)" fill="#ffff30" stroke="#ffff30" stroke-width="1" font-size="22" font-family="SegoeUI, Segoe UI" letter-spacing="0.01em"><tspan x="-24.049" y="0">2020</tspan></text>
    <text id="_2021" data-name="2021" transform="translate(628.5 78.5)" fill="#fcfb33" stroke="#fcfb33" stroke-width="1" font-size="22" font-family="SegoeUI, Segoe UI" letter-spacing="0.01em"><tspan x="-24.049" y="0">2021</tspan></text>
    <g transform="matrix(1, 0, 0, 1, 449, 17.11)" filter="url(#Linha_15)">
      <line id="Linha_15-2" data-name="Linha 15" x2="29" transform="translate(149.5 154.39)" fill="none" stroke="#455aff" stroke-width="1" stroke-dasharray="3"/>
    </g>
    <line id="Linha_16" data-name="Linha 16" x2="29" transform="translate(662.5 71.5)" fill="none" stroke="#455aff" stroke-width="1" stroke-dasharray="3"/>
    <g transform="matrix(1, 0, 0, 1, 449, 17.11)" filter="url(#Linha_17)">
      <line id="Linha_17-2" data-name="Linha 17" x2="29" transform="translate(79.5 251.39)" fill="none" stroke="#455aff" stroke-width="1" stroke-dasharray="3"/>
    </g>
    <g id="Elipse_9" data-name="Elipse 9" transform="translate(685 65)" fill="#fff" stroke="#455aff" stroke-width="1">
      <ellipse cx="6" cy="6.5" rx="6" ry="6.5" stroke="none"/>
      <ellipse cx="6" cy="6.5" rx="5.5" ry="6" fill="none"/>
    </g>
    <g id="Elipse_8" data-name="Elipse 8" transform="translate(622 165)" fill="#fff" stroke="#455aff" stroke-width="1">
      <ellipse cx="6" cy="6.5" rx="6" ry="6.5" stroke="none"/>
      <ellipse cx="6" cy="6.5" rx="5.5" ry="6" fill="none"/>
    </g>
    <g id="Elipse_7" data-name="Elipse 7" transform="translate(551 261)" fill="#fff" stroke="#455aff" stroke-width="1">
      <ellipse cx="6" cy="6.5" rx="6" ry="6.5" stroke="none"/>
      <ellipse cx="6" cy="6.5" rx="5.5" ry="6" fill="none"/>
    </g>
  </g>
</svg>
